{
.appVersion = "1075";
classes = (
{
code = "B C D F G H J K L M N P Q R S T V W X Y Z";
name = capsCon0;
},
{
code = "B.ss01 C.ss01 D.ss01 F.ss01 G.ss01 H.ss01 J.ss01 K.ss01 L.ss01 M.ss01 N.ss01 P.ss01 Q.ss01 R.ss01 S.ss01 T.ss01 V.ss01 W.ss01 X.ss01 Y.ss01 Z.ss01";
name = capsCon1;
},
{
code = "B.ss02 C.ss02 D.ss02 F.ss02 G.ss02 H.ss02 J.ss02 K.ss02 L.ss02 M.ss02 N.ss02 P.ss02 Q.ss02 R.ss02 S.ss02 T.ss02 V.ss02 W.ss02 X.ss02 Y.ss02 Z.ss02";
name = capsCon2;
},
{
code = "a b c d e f g h i j k l m n o p q r s t u v w x y z a.ss01 b.ss01 c.ss01 d.ss01 e.ss01 f.ss01 g.ss01 h.ss01 i.ss01 j.ss01 k.ss01 l.ss01 m.ss01 n.ss01 o.ss01 p.ss01 q.ss01 r.ss01 s.ss01 t.ss01 u.ss01 v.ss01 w.ss01 x.ss01 y.ss01 z.ss01 a.ss02 b.ss02 c.ss02 d.ss02 e.ss02 f.ss02 g.ss02 h.ss02 i.ss02 j.ss02 k.ss02 l.ss02 m.ss02 n.ss02 o.ss02 p.ss02 q.ss02 r.ss02 s.ss02 t.ss02 u.ss02 v.ss02 w.ss02 x.ss02 y.ss02 z.ss02 f_f_i f_f_l f_i f_l f_f f_t space";
name = capsEtc;
},
{
code = "A E I O U";
name = capsVoc0;
},
{
code = "A.ss01 E.ss01 I.ss01 O.ss01 U.ss01";
name = capsVoc1;
},
{
code = "A.ss02 E.ss02 I.ss02 O.ss02 U.ss02";
name = capsVoc2;
},
{
code = "b c d f g h j k l m n p q r s t v w x y z";
name = lowerCon0;
},
{
code = "b.ss01 c.ss01 d.ss01 f.ss01 g.ss01 h.ss01 j.ss01 k.ss01 l.ss01 m.ss01 n.ss01 p.ss01 q.ss01 r.ss01 s.ss01 t.ss01 v.ss01 w.ss01 x.ss01 y.ss01 z.ss01";
name = lowerCon1;
},
{
code = "b.ss02 c.ss02 d.ss02 f.ss02 g.ss02 h.ss02 j.ss02 k.ss02 l.ss02 m.ss02 n.ss02 p.ss02 q.ss02 r.ss02 s.ss02 t.ss02 v.ss02 w.ss02 x.ss02 y.ss02 z.ss02";
name = lowerCon2;
},
{

glyphs = (
{
color = 9;
glyphname = "Be-cy.ss01";
layers = (
{
background = {
paths = (
{
closed = 1;
nodes = (
"211 0 OFFCURVE",
"221 -1 OFFCURVE",
"232 -1 CURVE",
"251 -1 OFFCURVE",
"270 -1 OFFCURVE",
"287 9 CURVE",
"286 9 OFFCURVE",
"331 20 OFFCURVE",
"330 20 CURVE",
"358 25 OFFCURVE",
"361 27 OFFCURVE",
"397 45 CURVE",
"428 60 OFFCURVE",
"457 76 OFFCURVE",
"479 103 CURVE",
"494 120 OFFCURVE",
"513 144 OFFCURVE",
"529 171 CURVE",
"538 187 OFFCURVE",
"547 236 OFFCURVE",
"547 247 CURVE",
"550 278 OFFCURVE",
"538 305 OFFCURVE",
"525 332 CURVE",
"511 359 OFFCURVE",
"488 375 OFFCURVE",
"458 394 CURVE",
"443 404 OFFCURVE",
"368 429 OFFCURVE",
"354 426 CURVE",
"343 424 OFFCURVE",
"332 432 OFFCURVE",
"321 432 CURVE",
"309 432 OFFCURVE",
"284 432 OFFCURVE",
"295 447 CURVE",
"294 445 OFFCURVE",
"350 569 OFFCURVE",
"359 585 CURVE",
"367 599 OFFCURVE",
"375 613 OFFCURVE",
"389 621 CURVE",
"461 630 OFFCURVE",
"604 641 OFFCURVE",
"614 638 CURVE",
"629 632 OFFCURVE",
"640 637 OFFCURVE",
"647 647 CURVE",
"652 648 OFFCURVE",
"643 660 OFFCURVE",
"639 671 CURVE",
"633 681 OFFCURVE",
"626 698 OFFCURVE",
"598 692 CURVE",
"593 690 OFFCURVE",
"493 683 OFFCURVE",
"496 683 CURVE",
"489 683 OFFCURVE",
"403 677 OFFCURVE",
"394 677 CURVE",
"384 672 OFFCURVE",
"371 670 OFFCURVE",
"359 674 CURVE",
"347 677 OFFCURVE",
"347 671 OFFCURVE",
"335 672 CURVE",
"319 674 OFFCURVE",
"303 672 OFFCURVE",
"288 672 CURVE",
"279 668 OFFCURVE",
"275 666 OFFCURVE",
"276 658 CURVE",
"276 642 OFFCURVE",
"288 619 OFFCURVE",
"302 612 CURVE",
"243 478 LINE",
"219 424 OFFCURVE",
"222 443 OFFCURVE",
"201 375 CURVE",
"193 355 OFFCURVE",
"182 335 OFFCURVE",
"177 315 CURVE",
"173 301 OFFCURVE",
"141 214 OFFCURVE",
"143 202 CURVE",
"137 190 OFFCURVE",
"139 176 OFFCURVE",
"133 164 CURVE",
"121 81 LINE",
"120 76 OFFCURVE",
"129 38 OFFCURVE",
"144 18 CURVE",
"153 9 OFFCURVE",
"186 -2 OFFCURVE",
"200 -1 CURVE"
);
},
{
closed = 1;
nodes = (
"177 64 OFFCURVE",
"186 130 OFFCURVE",
"195 164 CURVE",
"205 204 OFFCURVE",
"218 243 OFFCURVE",
"231 282 CURVE",
"243 317 OFFCURVE",
"260 358 OFFCURVE",
"274 391 CURVE",
"298 391 OFFCURVE",
"374 378 OFFCURVE",
"358 380 CURVE",
"370 379 OFFCURVE",
"411 374 OFFCURVE",
"428 360 CURVE",
"444 352 OFFCURVE",
"459 357 OFFCURVE",
"477 316 CURVE",
"481 291 OFFCURVE",
"489 275 OFFCURVE",
"484 254 CURVE",
"475 211 OFFCURVE",
"460 181 OFFCURVE",
"427 143 CURVE",
"379 89 OFFCURVE",
"320 75 OFFCURVE",
"254 57 CURVE",
"232 51 OFFCURVE",
"211 53 OFFCURVE",
"191 52 CURVE"
);
}
);
};
layerId = "5B238DC5-4F6F-4A74-B879-7A3E5189648B";
paths = (
{
closed = 1;
nodes = (
"467 647 OFFCURVE",
"609 625 OFFCURVE",
"663 643 CURVE SMOOTH",
"675 647 OFFCURVE",
"683 664 OFFCURVE",
"683 676 CURVE SMOOTH",
"683 679 OFFCURVE",
"677 679 OFFCURVE",
"675 680 CURVE",
"658 685 OFFCURVE",
"643 693 OFFCURVE",
"625 696 CURVE SMOOTH",
"566 705 OFFCURVE",
"457 697 OFFCURVE",
"394 695 CURVE SMOOTH",
"378 695 OFFCURVE",
"362 691 OFFCURVE",
"346 690 CURVE SMOOTH",
"335 689 OFFCURVE",
"323 691 OFFCURVE",
"312 689 CURVE SMOOTH",
"237 678 OFFCURVE",
"287 616 OFFCURVE",
"316 631 CURVE",
"281 564 OFFCURVE",
"245 485 OFFCURVE",
"214 416 CURVE SMOOTH",
"203 392 OFFCURVE",
"197 365 OFFCURVE",
"189 340 CURVE SMOOTH",
"177 305 OFFCURVE",
"163 271 OFFCURVE",
"152 236 CURVE SMOOTH",
"137 188 OFFCURVE",
"125 140 OFFCURVE",
"115 91 CURVE SMOOTH",
"111 74 OFFCURVE",
"97 55 OFFCURVE",
"104 38 CURVE SMOOTH",
"111 20 OFFCURVE",
"144 -7 OFFCURVE",
"160 -16 CURVE",
"170 -21 OFFCURVE",
"237 -17 OFFCURVE",
"251 -14 CURVE SMOOTH",
"315 -1 OFFCURVE",
"394 35 OFFCURVE",
"439 83 CURVE SMOOTH",
"493 140 OFFCURVE",
"536 205 OFFCURVE",
"528 288 CURVE SMOOTH",
"525 317 OFFCURVE",
"508 338 OFFCURVE",
"492 361 CURVE SMOOTH",
"488 367 OFFCURVE",
"484 374 OFFCURVE",
"478 379 CURVE",
"452 403 OFFCURVE",
"410 423 OFFCURVE",
"375 430 CURVE SMOOTH",
"353 434 OFFCURVE",
"319 431 OFFCURVE",
"299 439 CURVE",
"305 473 OFFCURVE",
"378 601 OFFCURVE",
"401 634 CURVE"
);
},
{
closed = 1;
nodes = (
"172 64 OFFCURVE",
"195 159 OFFCURVE",
"205 180 CURVE",
"205 202 OFFCURVE",
"256 342 OFFCURVE",
"269 364 CURVE SMOOTH",
"276 376 LINE",
"294 377 OFFCURVE",
"317 374 OFFCURVE",
"334 380 CURVE SMOOTH",
"337 381 OFFCURVE",
"339 382 OFFCURVE",
"342 381 CURVE",
"357 378 OFFCURVE",
"373 373 OFFCURVE",
"388 369 CURVE SMOOTH",
"432 357 OFFCURVE",
"451 342 OFFCURVE",
"465 302 CURVE SMOOTH",
"498 209 OFFCURVE",
"392 113 OFFCURVE",
"318 74 CURVE SMOOTH",
"303 66 OFFCURVE",
"291 59 OFFCURVE",
"274 55 CURVE SMOOTH",
"259 52 OFFCURVE",
"246 41 OFFCURVE",
"230 44 CURVE",
"205 38 OFFCURVE",
"198 37 OFFCURVE",
"173 41 CURVE"
);
}
);
width = 527;
}
);
leftKerningGroup = "Be-cy";
rightKerningGroup = "Be-cy";
},
{
color = 9;
glyphname = "De-cy.ss01";
layers = (
{
layerId = "5B238DC5-4F6F-4A74-B879-7A3E5189648B";
paths = (
{
closed = 1;
nodes = (
"479 590 OFFCURVE",
"451 523 OFFCURVE",
"429 475 CURVE",
"431 451 OFFCURVE",
"326 194 OFFCURVE",
"256 74 CURVE",
"260 70 OFFCURVE",
"264 70 OFFCURVE",
"269 72 CURVE",
"288 80 OFFCURVE",
"335 79 OFFCURVE",
"316 77 CURVE SMOOTH",
"327 76 OFFCURVE",
"340 82 OFFCURVE",
"353 82 CURVE SMOOTH",
"366 82 OFFCURVE",
"380 80 OFFCURVE",
"393 84 CURVE",
"402 86 OFFCURVE",
"521 101 OFFCURVE",
"531 101 CURVE",
"519 145 OFFCURVE",
"548 167 OFFCURVE",
"550 206 CURVE",
"565 241 OFFCURVE",
"573 278 OFFCURVE",
"586 313 CURVE SMOOTH",
"589 322 OFFCURVE",
"590 332 OFFCURVE",
"594 340 CURVE SMOOTH",
"618 386 OFFCURVE",
"639 455 OFFCURVE",
"655 505 CURVE SMOOTH",
"667 541 OFFCURVE",
"684 578 OFFCURVE",
"693 615 CURVE SMOOTH",
"694 619 OFFCURVE",
"693 624 OFFCURVE",
"693 628 CURVE",
"683 630 OFFCURVE",
"675 635 OFFCURVE",
"665 635 CURVE",
"643 634 OFFCURVE",
"568 649 OFFCURVE",
"558 645 CURVE",
"540 639 OFFCURVE",
"515 640 OFFCURVE",
"496 640 CURVE"
);
},
{
closed = 1;
nodes = (
"622 96 OFFCURVE",
"780 126 OFFCURVE",
"726 25 CURVE SMOOTH",
"712 -1 OFFCURVE",
"685 -34 OFFCURVE",
"677 -62 CURVE SMOOTH",
"674 -73 OFFCURVE",
"667 -80 OFFCURVE",
"661 -89 CURVE SMOOTH",
"647 -111 OFFCURVE",
"637 -136 OFFCURVE",
"631 -161 CURVE",
"595 -187 OFFCURVE",
"569 -125 OFFCURVE",
"583 -92 CURVE SMOOTH",
"594 -66 OFFCURVE",
"646 21 OFFCURVE",
"649 34 CURVE",
"643 37 LINE",
"633 38 OFFCURVE",
"623 33 OFFCURVE",
"613 36 CURVE",
"597 40 OFFCURVE",
"579 42 OFFCURVE",
"576 43 CURVE",
"569 46 OFFCURVE",
"387 25 OFFCURVE",
"371 20 CURVE SMOOTH",
"369 19 OFFCURVE",
"329 18 OFFCURVE",
"318 18 CURVE SMOOTH",
"296 17 OFFCURVE",
"165 -4 OFFCURVE",
"145 -12 CURVE",
"133 -29 OFFCURVE",
"119 -87 OFFCURVE",
"115 -109 CURVE SMOOTH",
"112 -126 OFFCURVE",
"118 -142 OFFCURVE",
"112 -157 CURVE",
"103 -161 OFFCURVE",
"95 -166 OFFCURVE",
"86 -170 CURVE",
"69 -169 OFFCURVE",
"49 -145 OFFCURVE",
"49 -128 CURVE SMOOTH",
"49 -82 OFFCURVE",
"72 -37 OFFCURVE",
"73 9 CURVE SMOOTH",
"73 18 OFFCURVE",
"78 25 OFFCURVE",
"83 32 CURVE",
"109 64 OFFCURVE",
"138 45 OFFCURVE",
"164 58 CURVE",
"220 97 OFFCURVE",
"347 390 OFFCURVE",
"388 519 CURVE SMOOTH",
"395 538 OFFCURVE",
"403 556 OFFCURVE",
"411 574 CURVE SMOOTH",
"418 591 OFFCURVE",
"422 609 OFFCURVE",
"430 625 CURVE",
"420 628 LINE",
"403 620 OFFCURVE",
"382 617 OFFCURVE",
"364 609 CURVE SMOOTH",
"333 596 OFFCURVE",
"319 637 OFFCURVE",
"325 661 CURVE",
"350 678 OFFCURVE",
"414 686 OFFCURVE",
"445 690 CURVE SMOOTH",
"454 691 OFFCURVE",
"463 713 OFFCURVE",
"473 721 CURVE",
"480 719 OFFCURVE",
"487 716 OFFCURVE",
"494 714 CURVE",
"497 709 OFFCURVE",
"500 705 OFFCURVE",
"503 701 CURVE",
"520 695 OFFCURVE",
"544 699 OFFCURVE",
"562 699 CURVE SMOOTH",
"591 699 OFFCURVE",
"684 684 OFFCURVE",
"703 689 CURVE SMOOTH",
"722 694 OFFCURVE",
"734 693 OFFCURVE",
"746 677 CURVE",
"761 655 LINE",
"767 631 OFFCURVE",
"760 608 OFFCURVE",
"749 587 CURVE SMOOTH",
"745 579 OFFCURVE",
"746 567 OFFCURVE",
"737 561 CURVE",
"735 556 LINE",
"736 536 OFFCURVE",
"724 520 OFFCURVE",
"718 502 CURVE SMOOTH",
"698 442 OFFCURVE",
"675 383 OFFCURVE",
"654 323 CURVE SMOOTH",
"629 252 OFFCURVE",
"607 181 OFFCURVE",
"584 110 CURVE"
);
}
);
width = 724;
}
);
leftKerningGroup = "De-cy";
rightKerningGroup = "De-cy";
},
{
color = 9;
glyphname = "Zhe-cy.ss01";
layers = (
{
background = {
paths = (
{
closed = 1;
nodes = (
"943 671 OFFCURVE",
"963 665 OFFCURVE",
"975 645 CURVE",
"974 641 OFFCURVE",
"973 638 OFFCURVE",
"972 634 CURVE",
"970 624 OFFCURVE",
"966 618 OFFCURVE",
"958 611 CURVE",
"936 594 OFFCURVE",
"914 576 OFFCURVE",
"894 557 CURVE",
"879 543 OFFCURVE",
"861 531 OFFCURVE",
"845 517 CURVE",
"826 501 OFFCURVE",
"806 484 OFFCURVE",
"788 467 CURVE",
"772 453 OFFCURVE",
"755 441 OFFCURVE",
"739 427 CURVE",
"724 415 OFFCURVE",
"709 403 OFFCURVE",
"695 390 CURVE",
"679 376 OFFCURVE",
"664 360 OFFCURVE",
"646 347 CURVE",
"637 341 OFFCURVE",
"631 331 OFFCURVE",
"622 322 CURVE",
"623 319 OFFCURVE",
"625 314 OFFCURVE",
"625 309 CURVE",
"624 292 OFFCURVE",
"632 277 OFFCURVE",
"632 261 CURVE",
"639 251 OFFCURVE",
"635 240 OFFCURVE",
"639 230 CURVE",
"643 220 OFFCURVE",
"641 209 OFFCURVE",
"643 199 CURVE",
"647 183 OFFCURVE",
"647 165 OFFCURVE",
"651 149 CURVE",
"655 132 OFFCURVE",
"656 115 OFFCURVE",
"663 99 CURVE",
"667 89 OFFCURVE",
"668 77 OFFCURVE",
"672 66 CURVE",
"678 49 OFFCURVE",
"683 30 OFFCURVE",
"698 17 CURVE",
"702 13 OFFCURVE",
"701 4 OFFCURVE",
"706 -1 CURVE",
"711 -6 OFFCURVE",
"715 -14 OFFCURVE",
"721 -18 CURVE",
"729 -26 OFFCURVE",
"739 -32 OFFCURVE",
"748 -38 CURVE",
"768 -51 OFFCURVE",
"769 -64 OFFCURVE",
"752 -82 CURVE",
"750 -84 OFFCURVE",
"748 -86 OFFCURVE",
"744 -89 CURVE",
"738 -89 OFFCURVE",
"730 -90 OFFCURVE",
"724 -90 CURVE",
"715 -84 OFFCURVE",
"707 -79 OFFCURVE",
"699 -74 CURVE",
"668 -54 OFFCURVE",
"646 -28 OFFCURVE",
"630 4 CURVE",
"610 42 OFFCURVE",
"597 81 OFFCURVE",
"588 122 CURVE",
"587 128 OFFCURVE",
"588 134 OFFCURVE",
"586 140 CURVE",
"583 147 OFFCURVE",
"583 155 OFFCURVE",
"580 162 CURVE",
"577 168 OFFCURVE",
"577 175 OFFCURVE",
"576 182 CURVE",
"575 184 OFFCURVE",
"574 187 OFFCURVE",
"574 190 CURVE",
"573 200 OFFCURVE",
"574 209 OFFCURVE",
"573 219 CURVE",
"572 228 OFFCURVE",
"568 237 OFFCURVE",
"568 247 CURVE",
"568 256 OFFCURVE",
"564 265 OFFCURVE",
"563 274 CURVE",
"561 284 OFFCURVE",
"558 293 OFFCURVE",
"554 301 CURVE",
"552 306 OFFCURVE",
"551 310 OFFCURVE",
"550 315 CURVE",
"549 322 OFFCURVE",
"546 328 OFFCURVE",
"543 337 CURVE",
"524 287 OFFCURVE",
"507 239 OFFCURVE",
"492 190 CURVE",
"484 164 OFFCURVE",
"475 138 OFFCURVE",
"467 111 CURVE",
"464 102 OFFCURVE",
"464 93 OFFCURVE",
"462 84 CURVE",
"457 69 OFFCURVE",
"455 54 OFFCURVE",
"449 40 CURVE",
"447 35 OFFCURVE",
"448 29 OFFCURVE",
"447 23 CURVE",
"444 7 OFFCURVE",
"430 -2 OFFCURVE",
"415 4 CURVE",
"409 6 OFFCURVE",
"405 9 OFFCURVE",
"399 11 CURVE",
"389 16 OFFCURVE",
"382 23 OFFCURVE",
"380 33 CURVE",
"384 48 OFFCURVE",
"387 63 OFFCURVE",
"393 77 CURVE",
"398 90 OFFCURVE",
"401 104 OFFCURVE",
"406 118 CURVE",
"411 132 OFFCURVE",
"414 147 OFFCURVE",
"419 161 CURVE",
"424 175 OFFCURVE",
"428 190 OFFCURVE",
"433 204 CURVE",
"437 218 OFFCURVE",
"444 231 OFFCURVE",
"446 245 CURVE",
"447 260 OFFCURVE",
"460 272 OFFCURVE",
"457 290 CURVE",
"449 281 OFFCURVE",
"442 274 OFFCURVE",
"435 267 CURVE",
"428 260 OFFCURVE",
"419 254 OFFCURVE",
"414 244 CURVE",
"393 225 OFFCURVE",
"376 202 OFFCURVE",
"352 185 CURVE",
"342 178 OFFCURVE",
"334 168 OFFCURVE",
"325 159 CURVE",
"299 132 OFFCURVE",
"270 109 OFFCURVE",
"241 86 CURVE",
"238 83 OFFCURVE",
"235 80 OFFCURVE",
"232 78 CURVE",
"215 63 OFFCURVE",
"198 48 OFFCURVE",
"180 33 CURVE",
"164 20 OFFCURVE",
"147 7 OFFCURVE",
"131 -6 CURVE",
"116 -18 OFFCURVE",
"101 -29 OFFCURVE",
"85 -41 CURVE",
"76 -48 OFFCURVE",
"67 -55 OFFCURVE",
"58 -62 CURVE",
"48 -69 OFFCURVE",
"37 -74 OFFCURVE",
"24 -79 CURVE",
"13 -68 OFFCURVE",
"3 -57 OFFCURVE",
"-7 -47 CURVE",
"-9 -33 OFFCURVE",
"-6 -25 OFFCURVE",
"8 -20 CURVE",
"21 -15 OFFCURVE",
"31 -4 OFFCURVE",
"42 5 CURVE",
"66 24 OFFCURVE",
"88 45 OFFCURVE",
"115 60 CURVE",
"117 62 OFFCURVE",
"120 64 OFFCURVE",
"122 66 CURVE",
"155 97 OFFCURVE",
"191 124 OFFCURVE",
"225 156 CURVE",
"242 172 OFFCURVE",
"261 186 OFFCURVE",
"279 202 CURVE",
"290 211 OFFCURVE",
"301 221 OFFCURVE",
"309 233 CURVE",
"312 239 OFFCURVE",
"317 244 OFFCURVE",
"322 248 CURVE",
"343 265 OFFCURVE",
"359 286 OFFCURVE",
"378 305 CURVE",
"386 314 OFFCURVE",
"393 325 OFFCURVE",
"400 335 CURVE",
"404 340 OFFCURVE",
"408 346 OFFCURVE",
"412 353 CURVE",
"409 359 OFFCURVE",
"406 366 OFFCURVE",
"402 372 CURVE",
"391 390 OFFCURVE",
"381 408 OFFCURVE",
"370 426 CURVE",
"351 458 OFFCURVE",
"336 492 OFFCURVE",
"313 521 CURVE",
"307 528 OFFCURVE",
"303 537 OFFCURVE",
"298 545 CURVE",
"286 567 OFFCURVE",
"271 586 OFFCURVE",
"256 606 CURVE",
"248 616 OFFCURVE",
"242 629 OFFCURVE",
"234 643 CURVE",
"234 648 OFFCURVE",
"233 655 OFFCURVE",
"234 663 CURVE",
"234 670 OFFCURVE",
"240 676 OFFCURVE",
"246 676 CURVE",
"269 678 OFFCURVE",
"287 672 OFFCURVE",
"299 650 CURVE",
"311 628 OFFCURVE",
"324 606 OFFCURVE",
"339 585 CURVE",
"353 564 OFFCURVE",
"366 542 OFFCURVE",
"381 521 CURVE",
"389 510 OFFCURVE",
"392 497 OFFCURVE",
"402 487 CURVE",
"410 478 OFFCURVE",
"415 466 OFFCURVE",
"421 456 CURVE",
"428 444 OFFCURVE",
"434 432 OFFCURVE",
"440 420 CURVE",
"442 417 OFFCURVE",
"443 413 OFFCURVE",
"445 410 CURVE",
"459 394 OFFCURVE",
"468 375 OFFCURVE",
"478 356 CURVE",
"487 363 OFFCURVE",
"487 374 OFFCURVE",
"491 383 CURVE",
"503 412 OFFCURVE",
"514 441 OFFCURVE",
"525 470 CURVE",
"536 499 OFFCURVE",
"545 528 OFFCURVE",
"559 555 CURVE",
"561 559 OFFCURVE",
"561 564 OFFCURVE",
"563 568 CURVE",
"569 578 OFFCURVE",
"571 589 OFFCURVE",
"577 599 CURVE",
"583 608 OFFCURVE",
"587 620 OFFCURVE",
"592 630 CURVE",
"599 644 OFFCURVE",
"606 658 OFFCURVE",
"613 673 CURVE",
"618 682 OFFCURVE",
"617 682 OFFCURVE",
"627 691 CURVE",
"632 690 OFFCURVE",
"637 688 OFFCURVE",
"642 688 CURVE",
"654 689 OFFCURVE",
"663 685 OFFCURVE",
"671 678 CURVE",
"677 674 OFFCURVE",
"680 666 OFFCURVE",
"684 659 CURVE",
"672 638 OFFCURVE",
"662 617 OFFCURVE",
"649 596 CURVE",
"635 572 OFFCURVE",
"625 545 OFFCURVE",
"614 518 CURVE",
"602 489 OFFCURVE",
"590 460 OFFCURVE",
"578 431 CURVE",
"569 409 OFFCURVE",
"560 388 OFFCURVE",
"551 366 CURVE",
"550 363 OFFCURVE",
"551 360 OFFCURVE",
"551 357 CURVE",
"553 357 OFFCURVE",
"555 357 OFFCURVE",
"556 357 CURVE",
"567 365 OFFCURVE",
"577 374 OFFCURVE",
"587 382 CURVE",
"609 400 OFFCURVE",
"629 418 OFFCURVE",
"651 435 CURVE",
"654 438 OFFCURVE",
"657 441 OFFCURVE",
"659 443 CURVE",
"681 464 OFFCURVE",
"703 483 OFFCURVE",
"727 500 CURVE",
"734 505 OFFCURVE",
"740 512 OFFCURVE",
"746 518 CURVE",
"767 539 OFFCURVE",
"791 556 OFFCURVE",
"813 577 CURVE",
"827 592 OFFCURVE",
"845 603 OFFCURVE",
"861 617 CURVE",
"872 625 OFFCURVE",
"881 635 OFFCURVE",
"890 645 CURVE",
"900 654 OFFCURVE",
"909 664 OFFCURVE",
"918 674 CURVE"
);
}
);
};
layerId = "5B238DC5-4F6F-4A74-B879-7A3E5189648B";
paths = (
{
closed = 1;
nodes = (
"940 671 OFFCURVE",
"963 666 OFFCURVE",
"975 645 CURVE",
"971 630 OFFCURVE",
"970 621 OFFCURVE",
"958 611 CURVE SMOOTH",
"901 563 OFFCURVE",
"843 517 OFFCURVE",
"788 467 CURVE SMOOTH",
"732 417 OFFCURVE",
"677 378 OFFCURVE",
"622 322 CURVE",
"624 318 OFFCURVE",
"638 243 OFFCURVE",
"639 237 CURVE",
"645 230 OFFCURVE",
"663 154 OFFCURVE",
"680 124 CURVE",
"686 114 OFFCURVE",
"689 103 OFFCURVE",
"694 93 CURVE SMOOTH",
"704 73 OFFCURVE",
"710 63 OFFCURVE",
"728 49 CURVE",
"732 44 OFFCURVE",
"732 37 OFFCURVE",
"738 32 CURVE SMOOTH",
"754 18 OFFCURVE",
"767 10 OFFCURVE",
"785 2 CURVE SMOOTH",
"813 -10 OFFCURVE",
"808 -30 OFFCURVE",
"789 -49 CURVE",
"782 -50 OFFCURVE",
"776 -52 OFFCURVE",
"770 -53 CURVE",
"742 -41 LINE SMOOTH",
"675 -12 OFFCURVE",
"629 70 OFFCURVE",
"603 136 CURVE SMOOTH",
"601 141 OFFCURVE",
"601 147 OFFCURVE",
"598 153 CURVE SMOOTH",
"591 166 OFFCURVE",
"590 172 OFFCURVE",
"587 187 CURVE SMOOTH",
"585 196 OFFCURVE",
"580 205 OFFCURVE",
"578 214 CURVE SMOOTH",
"563 270 OFFCURVE",
"552 308 OFFCURVE",
"543 337 CURVE",
"525 289 OFFCURVE",
"507 240 OFFCURVE",
"492 190 CURVE SMOOTH",
"475 135 OFFCURVE",
"448 30 OFFCURVE",
"437 -27 CURVE SMOOTH",
"434 -43 OFFCURVE",
"420 -51 OFFCURVE",
"405 -46 CURVE SMOOTH",
"391 -41 OFFCURVE",
"373 -33 OFFCURVE",
"370 -17 CURVE",
"379 18 OFFCURVE",
"459 276 OFFCURVE",
"457 290 CURVE",
"446 278 OFFCURVE",
"421 257 OFFCURVE",
"414 244 CURVE",
"393 225 OFFCURVE",
"375 202 OFFCURVE",
"352 185 CURVE SMOOTH",
"342 178 OFFCURVE",
"334 168 OFFCURVE",
"325 159 CURVE SMOOTH",
"299 132 OFFCURVE",
"270 109 OFFCURVE",
"241 86 CURVE SMOOTH",
"222 71 OFFCURVE",
"159 24 OFFCURVE",
"98 -25 CURVE SMOOTH",
"88 -33 OFFCURVE",
"75 -38 OFFCURVE",
"64 -42 CURVE",
"54 -31 OFFCURVE",
"43 -21 OFFCURVE",
"33 -10 CURVE",
"31 5 OFFCURVE",
"34 11 OFFCURVE",
"48 17 CURVE SMOOTH",
"61 23 OFFCURVE",
"71 33 OFFCURVE",
"82 42 CURVE SMOOTH",
"106 62 OFFCURVE",
"130 79 OFFCURVE",
"155 97 CURVE",
"162 103 LINE",
"213 150 OFFCURVE",
"226 157 OFFCURVE",
"279 202 CURVE SMOOTH",
"295 216 OFFCURVE",
"306 235 OFFCURVE",
"322 248 CURVE SMOOTH",
"354 275 OFFCURVE",
"391 317 OFFCURVE",
"412 353 CURVE",
"394 389 OFFCURVE",
"335 493 OFFCURVE",
"313 521 CURVE",
"307 528 OFFCURVE",
"303 537 OFFCURVE",
"298 545 CURVE SMOOTH",
"278 579 OFFCURVE",
"254 609 OFFCURVE",
"234 643 CURVE",
"234 650 OFFCURVE",
"233 656 OFFCURVE",
"234 663 CURVE",
"237 692 OFFCURVE",
"287 672 OFFCURVE",
"299 650 CURVE SMOOTH",
"324 606 OFFCURVE",
"352 563 OFFCURVE",
"381 521 CURVE SMOOTH",
"389 510 OFFCURVE",
"393 497 OFFCURVE",
"402 487 CURVE SMOOTH",
"421 465 OFFCURVE",
"429 434 OFFCURVE",
"445 410 CURVE SMOOTH",
"457 392 OFFCURVE",
"468 375 OFFCURVE",
"478 356 CURVE",
"494 369 OFFCURVE",
"582 651 OFFCURVE",
"627 691 CURVE",
"660 684 OFFCURVE",
"665 692 OFFCURVE",
"684 659 CURVE",
"649 596 LINE",
"630 565 OFFCURVE",
"550 372 OFFCURVE",
"551 357 CURVE",
"594 384 OFFCURVE",
"620 404 OFFCURVE",
"659 443 CURVE SMOOTH",
"686 470 OFFCURVE",
"719 491 OFFCURVE",
"746 518 CURVE SMOOTH",
"801 573 OFFCURVE",
"866 616 OFFCURVE",
"918 674 CURVE"
);
}
);
width = 813;
}
);
leftKerningGroup = "Zhe-cy";
rightKerningGroup = "Zhe-cy";
},
{
color = 9;
glyphname = "Ze-cy.ss01";
layers = (
{
layerId = "5B238DC5-4F6F-4A74-B879-7A3E5189648B";
paths = (
{
closed = 1;
nodes = (
"453 272 OFFCURVE",
"508 245 OFFCURVE",
"483 113 CURVE",
"484 86 OFFCURVE",
"466 62 OFFCURVE",
"452 40 CURVE SMOOTH",
"442 25 OFFCURVE",
"422 15 OFFCURVE",
"410 2 CURVE SMOOTH",
"392 -17 OFFCURVE",
"370 -25 OFFCURVE",
"347 -36 CURVE",
"337 -31 OFFCURVE",
"330 -41 OFFCURVE",
"321 -43 CURVE SMOOTH",
"312 -45 OFFCURVE",
"301 -43 OFFCURVE",
"293 -49 CURVE",
"257 -47 OFFCURVE",
"201 -53 OFFCURVE",
"173 -27 CURVE",
"153 -19 OFFCURVE",
"90 40 OFFCURVE",
"86 60 CURVE SMOOTH",
"81 87 OFFCURVE",
"120 127 OFFCURVE",
"149 123 CURVE",
"196 90 OFFCURVE",
"155 83 OFFCURVE",
"149 59 CURVE",
"214 -41 OFFCURVE",
"377 23 OFFCURVE",
"413 118 CURVE SMOOTH",
"422 142 OFFCURVE",
"420 161 OFFCURVE",
"414 185 CURVE SMOOTH",
"412 193 OFFCURVE",
"413 200 OFFCURVE",
"408 207 CURVE",
"397 259 OFFCURVE",
"347 276 OFFCURVE",
"310 268 CURVE",
"304 267 OFFCURVE",
"303 264 OFFCURVE",
"297 267 CURVE SMOOTH",
"289 271 OFFCURVE",
"282 269 OFFCURVE",
"276 277 CURVE SMOOTH",
"266 290 OFFCURVE",
"245 313 OFFCURVE",
"261 329 CURVE",
"280 340 OFFCURVE",
"273 338 OFFCURVE",
"294 336 CURVE",
"307 343 OFFCURVE",
"327 340 OFFCURVE",
"344 349 CURVE SMOOTH",
"430 392 OFFCURVE",
"497 435 OFFCURVE",
"522 532 CURVE SMOOTH",
"527 552 OFFCURVE",
"520 575 OFFCURVE",
"515 595 CURVE",
"472 625 OFFCURVE",
"412 618 OFFCURVE",
"370 590 CURVE SMOOTH",
"350 577 OFFCURVE",
"322 559 OFFCURVE",
"311 537 CURVE SMOOTH",
"302 519 OFFCURVE",
"294 490 OFFCURVE",
"275 481 CURVE",
"251 497 OFFCURVE",
"249 500 OFFCURVE",
"235 525 CURVE",
"257 582 OFFCURVE",
"273 601 OFFCURVE",
"322 637 CURVE SMOOTH",
"334 646 OFFCURVE",
"351 660 OFFCURVE",
"364 665 CURVE",
"378 671 OFFCURVE",
"399 675 OFFCURVE",
"414 677 CURVE SMOOTH",
"432 679 OFFCURVE",
"439 685 OFFCURVE",
"459 680 CURVE SMOOTH",
"471 677 OFFCURVE",
"483 673 OFFCURVE",
"495 671 CURVE",
"503 670 OFFCURVE",
"511 666 OFFCURVE",
"518 661 CURVE",
"568 622 OFFCURVE",
"581 586 OFFCURVE",
"581 524 CURVE SMOOTH",
"581 471 OFFCURVE",
"566 434 OFFCURVE",
"532 394 CURVE SMOOTH",
"491 352 OFFCURVE",
"461 339 OFFCURVE",
"413 309 CURVE"
);
}
);
width = 479;
}
);
leftKerningGroup = "Ze-cy";
rightKerningGroup = "Ze-cy";
},
{
color = 9;
glyphname = "Ii-cy.ss01";
layers = (
{
background = {
components = (
{
name = H;
transform = "{1, 0, 0, 1, 48, 0}";
}
);
};
layerId = "5B238DC5-4F6F-4A74-B879-7A3E5189648B";
paths = (
{
closed = 1;
nodes = (
"554 -39 OFFCURVE",
"508 -18 OFFCURVE",
"507 -1 CURVE SMOOTH",
"507 7 OFFCURVE",
"504 16 OFFCURVE",
"507 24 CURVE SMOOTH",
"514 45 OFFCURVE",
"520 64 OFFCURVE",
"524 86 CURVE SMOOTH",
"534 149 OFFCURVE",
"553 210 OFFCURVE",
"569 271 CURVE SMOOTH",
"579 310 OFFCURVE",
"655 549 OFFCURVE",
"650 565 CURVE",
"644 569 OFFCURVE",
"643 565 OFFCURVE",
"641 562 CURVE",
"610 520 OFFCURVE",
"578 478 OFFCURVE",
"546 437 CURVE SMOOTH",
"511 392 OFFCURVE",
"473 348 OFFCURVE",
"436 303 CURVE SMOOTH",
"410 271 OFFCURVE",
"386 236 OFFCURVE",
"359 205 CURVE SMOOTH",
"340 184 OFFCURVE",
"325 160 OFFCURVE",
"307 139 CURVE SMOOTH",
"266 91 OFFCURVE",
"211 21 OFFCURVE",
"164 -18 CURVE SMOOTH",
"150 -30 OFFCURVE",
"111 -28 OFFCURVE",
"109 -3 CURVE SMOOTH",
"107 41 OFFCURVE",
"128 118 OFFCURVE",
"142 161 CURVE SMOOTH",
"146 175 OFFCURVE",
"152 189 OFFCURVE",
"156 204 CURVE SMOOTH",
"157 212 OFFCURVE",
"159 220 OFFCURVE",
"162 228 CURVE SMOOTH",
"171 248 OFFCURVE",
"175 263 OFFCURVE",
"175 285 CURVE SMOOTH",
"176 296 OFFCURVE",
"192 333 OFFCURVE",
"196 348 CURVE SMOOTH",
"202 368 OFFCURVE",
"207 389 OFFCURVE",
"217 408 CURVE",
"219 412 OFFCURVE",
"219 412 OFFCURVE",
"220 416 CURVE SMOOTH",
"226 457 OFFCURVE",
"240 474 OFFCURVE",
"254 507 CURVE",
"255 513 LINE SMOOTH",
"260 527 OFFCURVE",
"264 536 OFFCURVE",
"270 549 CURVE SMOOTH",
"272 555 OFFCURVE",
"264 556 OFFCURVE",
"269 561 CURVE",
"279 574 OFFCURVE",
"272 570 OFFCURVE",
"276 581 CURVE",
"289 598 OFFCURVE",
"308 654 OFFCURVE",
"316 675 CURVE SMOOTH",
"319 684 OFFCURVE",
"322 686 OFFCURVE",
"331 690 CURVE SMOOTH",
"374 708 OFFCURVE",
"389 654 OFFCURVE",
"372 631 CURVE SMOOTH",
"369 627 OFFCURVE",
"369 624 OFFCURVE",
"367 619 CURVE",
"361 596 OFFCURVE",
"349 576 OFFCURVE",
"340 554 CURVE SMOOTH",
"317 497 OFFCURVE",
"198 166 OFFCURVE",
"202 118 CURVE",
"219 136 OFFCURVE",
"235 156 OFFCURVE",
"250 175 CURVE SMOOTH",
"289 224 OFFCURVE",
"333 270 OFFCURVE",
"371 320 CURVE SMOOTH",
"392 349 OFFCURVE",
"419 375 OFFCURVE",
"440 404 CURVE SMOOTH",
"454 423 OFFCURVE",
"470 439 OFFCURVE",
"484 458 CURVE SMOOTH",
"525 513 OFFCURVE",
"572 565 OFFCURVE",
"615 618 CURVE SMOOTH",
"631 638 OFFCURVE",
"681 688 OFFCURVE",
"704 698 CURVE SMOOTH",
"721 706 OFFCURVE",
"737 690 OFFCURVE",
"751 678 CURVE",
"761 668 OFFCURVE",
"763 657 OFFCURVE",
"759 644 CURVE",
"756 637 OFFCURVE",
"752 630 OFFCURVE",
"749 623 CURVE SMOOTH",
"731 589 OFFCURVE",
"719 553 OFFCURVE",
"709 516 CURVE SMOOTH",
"707 506 OFFCURVE",
"705 493 OFFCURVE",
"701 483 CURVE",
"692 461 OFFCURVE",
"672 436 OFFCURVE",
"674 410 CURVE SMOOTH",
"674 401 OFFCURVE",
"673 396 OFFCURVE",
"669 388 CURVE SMOOTH",
"657 364 OFFCURVE",
"654 337 OFFCURVE",
"647 310 CURVE SMOOTH",
"631 245 OFFCURVE",
"613 182 OFFCURVE",
"595 118 CURVE SMOOTH",
"582 67 OFFCURVE",
"577 12 OFFCURVE",
"569 -40 CURVE"
);
}
);
width = 612;
}
);
leftKerningGroup = "Ii-cy";
rightKerningGroup = "Ii-cy";
},
{
color = 9;
glyphname = "El-cy.ss01";
layers = (
{
layerId = "5B238DC5-4F6F-4A74-B879-7A3E5189648B";
paths = (
{
closed = 1;
nodes = (
"403 73 OFFCURVE",
"429 134 OFFCURVE",
"453 197 CURVE SMOOTH",
"464 225 OFFCURVE",
"471 255 OFFCURVE",
"484 282 CURVE SMOOTH",
"488 290 OFFCURVE",
"490 298 OFFCURVE",
"492 306 CURVE SMOOTH",
"498 331 OFFCURVE",
"507 355 OFFCURVE",
"514 380 CURVE SMOOTH",
"520 404 OFFCURVE",
"524 429 OFFCURVE",
"533 453 CURVE",
"531 466 OFFCURVE",
"538 477 OFFCURVE",
"539 490 CURVE SMOOTH",
"540 509 OFFCURVE",
"539 529 OFFCURVE",
"539 548 CURVE",
"526 568 LINE",
"506 578 OFFCURVE",
"480 590 OFFCURVE",
"457 587 CURVE",
"436 558 OFFCURVE",
"427 526 OFFCURVE",
"410 496 CURVE SMOOTH",
"379 443 OFFCURVE",
"357 382 OFFCURVE",
"331 326 CURVE SMOOTH",
"326 316 OFFCURVE",
"328 306 OFFCURVE",
"322 296 CURVE",
"316 287 OFFCURVE",
"313 277 OFFCURVE",
"309 267 CURVE SMOOTH",
"305 257 OFFCURVE",
"302 251 OFFCURVE",
"296 242 CURVE SMOOTH",
"294 239 OFFCURVE",
"264 173 OFFCURVE",
"263 167 CURVE",
"249 149 OFFCURVE",
"242 127 OFFCURVE",
"230 107 CURVE SMOOTH",
"209 72 OFFCURVE",
"172 15 OFFCURVE",
"144 -14 CURVE SMOOTH",
"133 -26 OFFCURVE",
"118 -33 OFFCURVE",
"103 -40 CURVE",
"81 -34 OFFCURVE",
"50 -26 OFFCURVE",
"50 1 CURVE SMOOTH",
"50 9 OFFCURVE",
"53 14 OFFCURVE",
"61 16 CURVE SMOOTH",
"85 22 OFFCURVE",
"94 33 OFFCURVE",
"109 51 CURVE SMOOTH",
"127 73 OFFCURVE",
"143 96 OFFCURVE",
"159 120 CURVE SMOOTH",
"195 176 OFFCURVE",
"227 238 OFFCURVE",
"254 299 CURVE SMOOTH",
"270 334 OFFCURVE",
"287 369 OFFCURVE",
"302 405 CURVE SMOOTH",
"309 421 OFFCURVE",
"315 439 OFFCURVE",
"322 456 CURVE SMOOTH",
"340 498 OFFCURVE",
"361 541 OFFCURVE",
"380 583 CURVE",
"371 586 LINE",
"336 577 OFFCURVE",
"291 567 OFFCURVE",
"263 544 CURVE",
"259 541 OFFCURVE",
"256 538 OFFCURVE",
"252 536 CURVE",
"234 538 OFFCURVE",
"218 545 OFFCURVE",
"206 558 CURVE",
"206 563 OFFCURVE",
"205 569 OFFCURVE",
"205 574 CURVE SMOOTH",
"205 623 OFFCURVE",
"328 648 OFFCURVE",
"366 654 CURVE",
"375 648 OFFCURVE",
"396 659 OFFCURVE",
"406 653 CURVE",
"418 659 OFFCURVE",
"427 658 OFFCURVE",
"439 653 CURVE",
"443 651 OFFCURVE",
"446 651 OFFCURVE",
"450 651 CURVE SMOOTH",
"484 651 OFFCURVE",
"509 640 OFFCURVE",
"538 623 CURVE SMOOTH",
"559 610 OFFCURVE",
"596 582 OFFCURVE",
"601 556 CURVE SMOOTH",
"605 536 OFFCURVE",
"611 512 OFFCURVE",
"608 491 CURVE SMOOTH",
"598 429 OFFCURVE",
"581 370 OFFCURVE",
"565 309 CURVE SMOOTH",
"560 291 OFFCURVE",
"551 274 OFFCURVE",
"545 256 CURVE SMOOTH",
"517 167 OFFCURVE",
"477 81 OFFCURVE",
"448 -8 CURVE SMOOTH",
"436 -44 OFFCURVE",
"393 -19 OFFCURVE",
"382 4 CURVE SMOOTH",
"379 10 LINE"
);
}
);
width = 562;
}
);
leftKerningGroup = "El-cy";
rightKerningGroup = "El-cy";
},
{
color = 9;
glyphname = "Pe-cy.ss01";
layers = (
{
background = {
components = (
{
name = H.ss02;
transform = "{1, 0, 0, 1, 61, 0}";
}
);
};
layerId = "5B238DC5-4F6F-4A74-B879-7A3E5189648B";
paths = (
{
closed = 1;
nodes = (
"412 562 OFFCURVE",
"396 526 OFFCURVE",
"382 490 CURVE SMOOTH",
"371 462 OFFCURVE",
"361 433 OFFCURVE",
"345 407 CURVE SMOOTH",
"341 400 OFFCURVE",
"320 345 OFFCURVE",
"314 331 CURVE SMOOTH",
"293 284 OFFCURVE",
"273 236 OFFCURVE",
"255 188 CURVE SMOOTH",
"235 137 OFFCURVE",
"219 85 OFFCURVE",
"201 33 CURVE SMOOTH",
"196 18 OFFCURVE",
"194 -2 OFFCURVE",
"187 -16 CURVE",
"179 -34 OFFCURVE",
"157 -32 OFFCURVE",
"142 -24 CURVE SMOOTH",
"125 -15 OFFCURVE",
"119 -7 OFFCURVE",
"125 13 CURVE SMOOTH",
"150 94 OFFCURVE",
"194 214 OFFCURVE",
"229 287 CURVE SMOOTH",
"252 334 OFFCURVE",
"268 383 OFFCURVE",
"289 431 CURVE SMOOTH",
"309 476 OFFCURVE",
"334 530 OFFCURVE",
"348 577 CURVE",
"349 582 OFFCURVE",
"350 590 OFFCURVE",
"343 590 CURVE SMOOTH",
"337 590 OFFCURVE",
"327 587 OFFCURVE",
"321 585 CURVE SMOOTH",
"305 580 OFFCURVE",
"287 586 OFFCURVE",
"272 588 CURVE",
"258 600 OFFCURVE",
"252 627 OFFCURVE",
"261 643 CURVE SMOOTH",
"264 648 OFFCURVE",
"266 650 OFFCURVE",
"272 650 CURVE SMOOTH",
"347 650 LINE SMOOTH",
"378 649 OFFCURVE",
"373 675 OFFCURVE",
"396 666 CURVE SMOOTH",
"418 657 OFFCURVE",
"457 660 OFFCURVE",
"481 666 CURVE SMOOTH",
"485 667 OFFCURVE",
"488 667 OFFCURVE",
"492 667 CURVE SMOOTH",
"580 667 LINE SMOOTH",
"594 667 OFFCURVE",
"602 668 OFFCURVE",
"616 663 CURVE SMOOTH",
"632 657 OFFCURVE",
"710 664 OFFCURVE",
"731 647 CURVE SMOOTH",
"740 640 OFFCURVE",
"748 630 OFFCURVE",
"750 619 CURVE",
"751 615 OFFCURVE",
"698 421 OFFCURVE",
"691 413 CURVE",
"689 397 OFFCURVE",
"679 383 OFFCURVE",
"675 367 CURVE SMOOTH",
"664 325 OFFCURVE",
"649 284 OFFCURVE",
"634 243 CURVE SMOOTH",
"625 217 OFFCURVE",
"619 188 OFFCURVE",
"610 161 CURVE SMOOTH",
"592 108 OFFCURVE",
"571 53 OFFCURVE",
"557 -1 CURVE SMOOTH",
"554 -13 OFFCURVE",
"547 -24 OFFCURVE",
"541 -34 CURVE",
"533 -41 OFFCURVE",
"472 -38 OFFCURVE",
"494 17 CURVE SMOOTH",
"539 132 OFFCURVE",
"574 250 OFFCURVE",
"612 366 CURVE SMOOTH",
"629 415 OFFCURVE",
"659 498 OFFCURVE",
"665 546 CURVE SMOOTH",
"667 560 OFFCURVE",
"672 575 OFFCURVE",
"674 589 CURVE",
"675 594 OFFCURVE",
"675 596 OFFCURVE",
"670 598 CURVE SMOOTH",
"641 610 OFFCURVE",
"612 598 OFFCURVE",
"588 606 CURVE",
"574 610 OFFCURVE",
"473 605 OFFCURVE",
"449 604 CURVE",
"434 604 OFFCURVE",
"441 598 OFFCURVE",
"426 598 CURVE"
);
}
);
width = 601;
}
);
leftKerningGroup = "Pe-cy";
rightKerningGroup = "Pe-cy";
},
{
color = 9;
glyphname = "U-cy.ss01";
layers = (
{
anchors = (
{
name = topUC;
position = "{491, 769}";
}
);
layerId = "5B238DC5-4F6F-4A74-B879-7A3E5189648B";
paths = (
{
closed = 1;
nodes = (
"385 144 OFFCURVE",
"409 175 OFFCURVE",
"441 230 CURVE SMOOTH",
"482 296 OFFCURVE",
"570 491 OFFCURVE",
"603 568 CURVE SMOOTH",
"612 591 OFFCURVE",
"617 620 OFFCURVE",
"630 646 CURVE",
"637 650 OFFCURVE",
"649 656 OFFCURVE",
"661 651 CURVE",
"671 645 OFFCURVE",
"678 637 OFFCURVE",
"683 628 CURVE",
"688 618 OFFCURVE",
"689 610 OFFCURVE",
"686 600 CURVE SMOOTH",
"676 573 OFFCURVE",
"667 546 OFFCURVE",
"654 523 CURVE SMOOTH",
"632 477 OFFCURVE",
"611 434 OFFCURVE",
"588 387 CURVE SMOOTH",
"572 354 OFFCURVE",
"558 323 OFFCURVE",
"543 293 CURVE SMOOTH",
"538 278 OFFCURVE",
"526 266 OFFCURVE",
"518 251 CURVE SMOOTH",
"500 215 OFFCURVE",
"474 181 OFFCURVE",
"451 147 CURVE SMOOTH",
"422 103 OFFCURVE",
"372 58 OFFCURVE",
"328 26 CURVE SMOOTH",
"323 20 OFFCURVE",
"313 9 OFFCURVE",
"307 10 CURVE SMOOTH",
"299 11 OFFCURVE",
"303 7 OFFCURVE",
"296 4 CURVE SMOOTH",
"286 -2 OFFCURVE",
"230 -11 OFFCURVE",
"224 -12 CURVE SMOOTH",
"210 -8 OFFCURVE",
"194 -8 OFFCURVE",
"181 -1 CURVE SMOOTH",
"157 10 OFFCURVE",
"145 38 OFFCURVE",
"167 55 CURVE",
"184 57 OFFCURVE",
"194 52 OFFCURVE",
"204 47 CURVE",
"232 37 OFFCURVE",
"237 43 OFFCURVE",
"246 40 CURVE SMOOTH",
"285 43 OFFCURVE",
"309 68 OFFCURVE",
"335 94 CURVE SMOOTH",
"341 107 OFFCURVE",
"354 112 OFFCURVE",
"363 122 CURVE"
);
},
{
closed = 1;
nodes = (
"389 113 LINE",
"353 124 OFFCURVE",
"348 126 OFFCURVE",
"336 151 CURVE",
"333 158 OFFCURVE",
"304 235 OFFCURVE",
"304 241 CURVE",
"303 254 OFFCURVE",
"301 265 OFFCURVE",
"298 278 CURVE SMOOTH",
"291 310 OFFCURVE",
"276 340 OFFCURVE",
"268 371 CURVE SMOOTH",
"258 411 OFFCURVE",
"237 516 OFFCURVE",
"239 555 CURVE SMOOTH",
"241 589 OFFCURVE",
"223 641 OFFCURVE",
"233 670 CURVE",
"263 673 LINE",
"273 666 OFFCURVE",
"282 658 OFFCURVE",
"292 651 CURVE",
"292 624 OFFCURVE",
"299 580 OFFCURVE",
"295 556 CURVE",
"295 547 LINE",
"296 537 OFFCURVE",
"304 537 OFFCURVE",
"300 523 CURVE",
"296 511 OFFCURVE",
"317 393 OFFCURVE",
"325 382 CURVE",
"328 359 OFFCURVE",
"400 150 OFFCURVE",
"409 143 CURVE"
);
}
);
width = 558;
}
);
leftKerningGroup = "U-cy";
rightKerningGroup = "U-cy";
},
{
color = 9;
glyphname = "Ef-cy.ss01";
layers = (
{
layerId = "5B238DC5-4F6F-4A74-B879-7A3E5189648B";
paths = (
{
closed = 1;
nodes = (
"367 522 OFFCURVE",
"217 410 OFFCURVE",
"217 284 CURVE SMOOTH",
"217 189 OFFCURVE",
"277 135 OFFCURVE",
"389 111 CURVE",
"395 110 OFFCURVE",
"402 108 OFFCURVE",
"406 114 CURVE",
"406 151 OFFCURVE",
"438 218 OFFCURVE",
"436 254 CURVE",
"446 282 OFFCURVE",
"486 441 OFFCURVE",
"507 488 CURVE",
"518 519 LINE"
);
},
{
closed = 1;
nodes = (
"566 471 OFFCURVE",
"482 215 OFFCURVE",
"482 173 CURVE SMOOTH",
"482 161 OFFCURVE",
"464 104 OFFCURVE",
"468 99 CURVE",
"615 76 OFFCURVE",
"714 201 OFFCURVE",
"745 317 CURVE SMOOTH",
"758 365 OFFCURVE",
"756 398 OFFCURVE",
"745 431 CURVE",
"737 456 OFFCURVE",
"725 486 OFFCURVE",
"703 494 CURVE SMOOTH",
"657 510 OFFCURVE",
"630 509 OFFCURVE",
"585 512 CURVE"
);
},
{
closed = 1;
nodes = (
"541 568 OFFCURVE",
"566 640 OFFCURVE",
"585 650 CURVE",
"607 650 LINE",
"615 643 OFFCURVE",
"620 632 OFFCURVE",
"630 627 CURVE",
"642 605 OFFCURVE",
"610 582 OFFCURVE",
"605 562 CURVE",
"764 546 OFFCURVE",
"864 475 OFFCURVE",
"823 323 CURVE SMOOTH",
"814 291 OFFCURVE",
"800 255 OFFCURVE",
"778 216 CURVE SMOOTH",
"719 108 OFFCURVE",
"634 40 OFFCURVE",
"478 40 CURVE SMOOTH",
"458 40 LINE",
"443 27 OFFCURVE",
"449 -14 OFFCURVE",
"435 -39 CURVE SMOOTH",
"421 -71 OFFCURVE",
"420 -73 OFFCURVE",
"383 -68 CURVE",
"369 -50 LINE",
"367 -43 OFFCURVE",
"389 36 OFFCURVE",
"391 48 CURVE",
"374 58 OFFCURVE",
"308 64 OFFCURVE",
"302 71 CURVE",
"252 95 OFFCURVE",
"214 124 OFFCURVE",
"181 168 CURVE SMOOTH",
"166 188 OFFCURVE",
"165 226 OFFCURVE",
"160 250 CURVE SMOOTH",
"155 272 OFFCURVE",
"163 284 OFFCURVE",
"164 304 CURVE SMOOTH",
"165 332 OFFCURVE",
"177 349 OFFCURVE",
"179 366 CURVE SMOOTH",
"188 392 OFFCURVE",
"230 437 OFFCURVE",
"250 457 CURVE SMOOTH",
"306 512 OFFCURVE",
"410 589 OFFCURVE",
"534 569 CURVE SMOOTH"
);
}
);
width = 757;
}
);
leftKerningGroup = "Ef-cy";
rightKerningGroup = "Ef-cy";
},
{
color = 9;
glyphname = "Che-cy.ss01";
layers = (
{
layerId = "5B238DC5-4F6F-4A74-B879-7A3E5189648B";
paths = (
{
closed = 1;
nodes = (
"322 665 OFFCURVE",
"341 657 OFFCURVE",
"349 643 CURVE",
"353 637 OFFCURVE",
"353 630 OFFCURVE",
"351 623 CURVE",
"341 593 OFFCURVE",
"324 564 OFFCURVE",
"311 535 CURVE SMOOTH",
"299 510 OFFCURVE",
"290 481 OFFCURVE",
"280 455 CURVE SMOOTH",
"269 424 OFFCURVE",
"261 389 OFFCURVE",
"247 359 CURVE",
"250 333 OFFCURVE",
"233 296 OFFCURVE",
"255 274 CURVE",
"308 254 OFFCURVE",
"360 307 OFFCURVE",
"392 334 CURVE SMOOTH",
"421 358 OFFCURVE",
"436 389 OFFCURVE",
"460 417 CURVE SMOOTH",
"474 433 OFFCURVE",
"490 449 OFFCURVE",
"498 470 CURVE",
"532 519 OFFCURVE",
"551 556 OFFCURVE",
"559 573 CURVE",
"573 579 OFFCURVE",
"587 614 OFFCURVE",
"598 627 CURVE",
"601 631 OFFCURVE",
"606 633 OFFCURVE",
"610 636 CURVE",
"627 628 OFFCURVE",
"655 623 OFFCURVE",
"661 602 CURVE",
"662 599 OFFCURVE",
"649 587 OFFCURVE",
"647 582 CURVE SMOOTH",
"644 575 OFFCURVE",
"643 567 OFFCURVE",
"640 560 CURVE SMOOTH",
"629 535 OFFCURVE",
"619 511 OFFCURVE",
"590 447 CURVE SMOOTH",
"587 441 OFFCURVE",
"579 431 OFFCURVE",
"577 424 CURVE SMOOTH",
"568 393 OFFCURVE",
"552 365 OFFCURVE",
"540 335 CURVE SMOOTH",
"525 295 OFFCURVE",
"510 256 OFFCURVE",
"494 216 CURVE SMOOTH",
"484 191 OFFCURVE",
"481 160 OFFCURVE",
"469 137 CURVE SMOOTH",
"456 111 OFFCURVE",
"440 45 OFFCURVE",
"434 15 CURVE",
"433 8 OFFCURVE",
"423 -15 OFFCURVE",
"427 -20 CURVE",
"424 -24 OFFCURVE",
"422 -34 OFFCURVE",
"421 -35 CURVE",
"386 -42 OFFCURVE",
"380 -14 OFFCURVE",
"362 14 CURVE",
"372 12 OFFCURVE",
"380 32 OFFCURVE",
"376 40 CURVE",
"384 62 OFFCURVE",
"390 83 OFFCURVE",
"395 105 CURVE SMOOTH",
"400 127 OFFCURVE",
"411 149 OFFCURVE",
"417 171 CURVE SMOOTH",
"423 193 OFFCURVE",
"430 215 OFFCURVE",
"438 236 CURVE SMOOTH",
"460 287 OFFCURVE",
"463 314 OFFCURVE",
"505 386 CURVE",
"501 385 LINE",
"470 323 OFFCURVE",
"444 309 OFFCURVE",
"416 272 CURVE SMOOTH",
"409 265 OFFCURVE",
"395 250 OFFCURVE",
"385 248 CURVE",
"381 247 OFFCURVE",
"378 244 OFFCURVE",
"375 241 CURVE",
"359 227 OFFCURVE",
"344 221 OFFCURVE",
"324 217 CURVE",
"316 215 OFFCURVE",
"309 211 OFFCURVE",
"301 213 CURVE SMOOTH",
"273 221 OFFCURVE",
"231 229 OFFCURVE",
"204 258 CURVE SMOOTH",
"188 275 OFFCURVE",
"172 299 OFFCURVE",
"176 324 CURVE SMOOTH",
"178 337 OFFCURVE",
"175 352 OFFCURVE",
"182 363 CURVE",
"183 385 OFFCURVE",
"247 563 OFFCURVE",
"260 581 CURVE",
"256 589 OFFCURVE",
"261 592 OFFCURVE",
"266 596 CURVE SMOOTH",
"272 601 OFFCURVE",
"267 607 OFFCURVE",
"271 612 CURVE",
"284 627 OFFCURVE",
"289 666 OFFCURVE",
"308 673 CURVE"
);
}
);
width = 532;
}
);
leftKerningGroup = "Che-cy";
rightKerningGroup = "Che-cy";
},
{
color = 9;
glyphname = "Tse-cy.ss01";
layers = (
{
layerId = "5B238DC5-4F6F-4A74-B879-7A3E5189648B";
paths = (
{
closed = 1;
nodes = (
"551 -210 OFFCURVE",
"563 -211 OFFCURVE",
"574 -208 CURVE",
"581 -185 OFFCURVE",
"605 -146 OFFCURVE",
"607 -131 CURVE SMOOTH",
"608 -125 OFFCURVE",
"611 -118 OFFCURVE",
"614 -113 CURVE SMOOTH",
"639 -70 OFFCURVE",
"687 32 OFFCURVE",
"615 58 CURVE SMOOTH",
"601 63 OFFCURVE",
"585 69 OFFCURVE",
"570 68 CURVE SMOOTH",
"560 67 OFFCURVE",
"553 66 OFFCURVE",
"544 71 CURVE",
"554 97 OFFCURVE",
"554 126 OFFCURVE",
"567 151 CURVE",
"570 188 OFFCURVE",
"592 224 OFFCURVE",
"602 260 CURVE SMOOTH",
"615 342 OFFCURVE",
"649 423 OFFCURVE",
"678 498 CURVE SMOOTH",
"689 530 OFFCURVE",
"700 561 OFFCURVE",
"714 592 CURVE SMOOTH",
"717 601 OFFCURVE",
"723 625 OFFCURVE",
"719 634 CURVE SMOOTH",
"714 644 OFFCURVE",
"682 659 OFFCURVE",
"670 657 CURVE SMOOTH",
"658 655 OFFCURVE",
"655 637 OFFCURVE",
"651 628 CURVE SMOOTH",
"643 609 OFFCURVE",
"637 587 OFFCURVE",
"630 567 CURVE SMOOTH",
"604 498 OFFCURVE",
"581 429 OFFCURVE",
"558 359 CURVE SMOOTH",
"557 335 OFFCURVE",
"549 310 OFFCURVE",
"538 286 CURVE SMOOTH",
"528 264 OFFCURVE",
"524 240 OFFCURVE",
"515 218 CURVE",
"508 203 OFFCURVE",
"507 186 OFFCURVE",
"501 170 CURVE SMOOTH",
"488 133 OFFCURVE",
"483 96 OFFCURVE",
"471 61 CURVE",
"463 61 OFFCURVE",
"418 63 OFFCURVE",
"411 60 CURVE SMOOTH",
"397 54 OFFCURVE",
"390 55 OFFCURVE",
"375 56 CURVE SMOOTH",
"362 57 OFFCURVE",
"351 50 OFFCURVE",
"338 50 CURVE SMOOTH",
"298 51 OFFCURVE",
"261 46 OFFCURVE",
"222 56 CURVE SMOOTH",
"202 61 OFFCURVE",
"201 96 OFFCURVE",
"204 112 CURVE SMOOTH",
"229 232 OFFCURVE",
"278 343 OFFCURVE",
"322 457 CURVE SMOOTH",
"327 470 OFFCURVE",
"330 484 OFFCURVE",
"339 495 CURVE",
"341 514 OFFCURVE",
"353 527 OFFCURVE",
"360 544 CURVE SMOOTH",
"369 566 OFFCURVE",
"374 587 OFFCURVE",
"388 607 CURVE SMOOTH",
"395 617 OFFCURVE",
"398 628 OFFCURVE",
"396 640 CURVE",
"384 652 OFFCURVE",
"370 669 OFFCURVE",
"352 672 CURVE",
"344 674 OFFCURVE",
"333 669 OFFCURVE",
"333 659 CURVE SMOOTH",
"333 643 OFFCURVE",
"291 558 OFFCURVE",
"282 536 CURVE SMOOTH",
"256 474 OFFCURVE",
"231 412 OFFCURVE",
"205 350 CURVE SMOOTH",
"189 312 OFFCURVE",
"181 272 OFFCURVE",
"166 234 CURVE SMOOTH",
"157 210 OFFCURVE",
"149 187 OFFCURVE",
"144 162 CURVE",
"141 150 OFFCURVE",
"140 136 OFFCURVE",
"137 124 CURVE SMOOTH",
"132 106 OFFCURVE",
"132 103 OFFCURVE",
"138 85 CURVE SMOOTH",
"146 62 OFFCURVE",
"157 47 OFFCURVE",
"170 27 CURVE",
"173 27 OFFCURVE",
"208 2 OFFCURVE",
"210 0 CURVE",
"218 1 OFFCURVE",
"251 -8 OFFCURVE",
"266 -8 CURVE SMOOTH",
"282 -8 OFFCURVE",
"301 -12 OFFCURVE",
"317 -10 CURVE SMOOTH",
"330 -8 OFFCURVE",
"409 -6 OFFCURVE",
"413 -3 CURVE",
"418 -3 OFFCURVE",
"477 5 OFFCURVE",
"480 7 CURVE",
"490 2 OFFCURVE",
"500 7 OFFCURVE",
"510 8 CURVE",
"533 9 OFFCURVE",
"557 9 OFFCURVE",
"580 9 CURVE",
"587 -19 OFFCURVE",
"564 -81 OFFCURVE",
"547 -105 CURVE SMOOTH",
"536 -120 OFFCURVE",
"538 -141 OFFCURVE",
"526 -161 CURVE",
"520 -172 OFFCURVE",
"516 -183 OFFCURVE",
"521 -195 CURVE",
"540 -209 LINE"
);
}
);
width = 656;
}
);
leftKerningGroup = "Tse-cy";
rightKerningGroup = "Tse-cy";
},
{
color = 9;
glyphname = "Sha-cy.ss01";
layers = (
{
background = {
paths = (
{
closed = 1;
nodes = (
"355 -68 OFFCURVE",
"385 47 OFFCURVE",
"395 94 CURVE",
"400 125 OFFCURVE",
"449 278 OFFCURVE",
"454 289 CURVE",
"454 289 OFFCURVE",
"465 289 OFFCURVE",
"480 289 CURVE SMOOTH",
"491 289 OFFCURVE",
"512 289 OFFCURVE",
"527 289 CURVE",
"605 299 OFFCURVE",
"740 298 OFFCURVE",
"745 292 CURVE",
"745 292 OFFCURVE",
"745 287 OFFCURVE",
"745 282 CURVE",
"740 277 OFFCURVE",
"714 165 OFFCURVE",
"699 124 CURVE",
"688 82 OFFCURVE",
"677 32 OFFCURVE",
"671 22 CURVE",
"656 -9 OFFCURVE",
"660 -22 OFFCURVE",
"686 -37 CURVE",
"701 -43 OFFCURVE",
"712 -48 OFFCURVE",
"717 -43 CURVE",
"717 -37 OFFCURVE",
"730 20 OFFCURVE",
"740 66 CURVE",
"740 72 OFFCURVE",
"751 103 OFFCURVE",
"756 119 CURVE",
"756 129 OFFCURVE",
"766 145 OFFCURVE",
"766 155 CURVE",
"787 207 OFFCURVE",
"823 339 OFFCURVE",
"828 355 CURVE",
"833 360 OFFCURVE",
"838 376 OFFCURVE",
"838 386 CURVE SMOOTH",
"838 391 OFFCURVE",
"857 438 OFFCURVE",
"862 443 CURVE SMOOTH",
"867 448 OFFCURVE",
"872 458 OFFCURVE",
"872 474 CURVE",
"883 500 OFFCURVE",
"896 548 OFFCURVE",
"917 584 CURVE",
"938 615 OFFCURVE",
"938 631 OFFCURVE",
"922 646 CURVE",
"917 657 OFFCURVE",
"900 662 OFFCURVE",
"895 662 CURVE SMOOTH",
"879 662 OFFCURVE",
"870 655 OFFCURVE",
"849 594 CURVE SMOOTH",
"836 556 OFFCURVE",
"815 495 OFFCURVE",
"805 458 CURVE",
"771 355 LINE",
"719 350 LINE",
"687 344 OFFCURVE",
"471 349 OFFCURVE",
"471 342 CURVE SMOOTH",
"471 337 OFFCURVE",
"486 375 OFFCURVE",
"501 417 CURVE",
"512 453 OFFCURVE",
"535 511 OFFCURVE",
"535 511 CURVE",
"535 516 OFFCURVE",
"551 552 OFFCURVE",
"572 589 CURVE",
"608 661 LINE",
"598 677 LINE",
"587 698 OFFCURVE",
"561 708 OFFCURVE",
"551 693 CURVE",
"551 687 OFFCURVE",
"540 672 OFFCURVE",
"535 661 CURVE SMOOTH",
"499 583 OFFCURVE",
"478 531 OFFCURVE",
"473 526 CURVE",
"473 526 OFFCURVE",
"473 526 OFFCURVE",
"473 521 CURVE SMOOTH",
"473 521 OFFCURVE",
"452 474 OFFCURVE",
"441 443 CURVE SMOOTH",
"432 417 OFFCURVE",
"420 386 OFFCURVE",
"415 380 CURVE",
"415 375 OFFCURVE",
"410 354 OFFCURVE",
"405 339 CURVE",
"394 323 OFFCURVE",
"394 308 OFFCURVE",
"394 308 CURVE",
"394 302 OFFCURVE",
"394 297 OFFCURVE",
"394 297 CURVE",
"384 287 OFFCURVE",
"331 95 OFFCURVE",
"321 38 CURVE",
"316 17 OFFCURVE",
"316 17 OFFCURVE",
"311 7 CURVE",
"311 -4 OFFCURVE",
"308 -26 OFFCURVE",
"303 -31 CURVE",
"298 -52 OFFCURVE",
"308 -73 OFFCURVE",
"329 -78 CURVE",
"340 -78 OFFCURVE",
"350 -83 OFFCURVE",
"350 -83 CURVE"
);
}
);
};
layerId = "5B238DC5-4F6F-4A74-B879-7A3E5189648B";
paths = (
{
closed = 1;
nodes = (
"397 48 OFFCURVE",
"398 62 OFFCURVE",
"401 75 CURVE SMOOTH",
"409 108 OFFCURVE",
"418 139 OFFCURVE",
"433 169 CURVE SMOOTH",
"440 183 OFFCURVE",
"443 195 OFFCURVE",
"446 210 CURVE SMOOTH",
"449 227 OFFCURVE",
"491 340 OFFCURVE",
"499 357 CURVE SMOOTH",
"529 420 OFFCURVE",
"544 490 OFFCURVE",
"572 554 CURVE SMOOTH",
"581 575 OFFCURVE",
"583 595 OFFCURVE",
"595 615 CURVE",
"603 613 OFFCURVE",
"611 612 OFFCURVE",
"619 610 CURVE",
"627 594 OFFCURVE",
"638 603 OFFCURVE",
"651 567 CURVE",
"642 557 OFFCURVE",
"557 331 OFFCURVE",
"530 248 CURVE SMOOTH",
"524 230 OFFCURVE",
"519 211 OFFCURVE",
"509 193 CURVE SMOOTH",
"502 180 OFFCURVE",
"501 166 OFFCURVE",
"494 153 CURVE SMOOTH",
"483 133 OFFCURVE",
"469 77 OFFCURVE",
"469 55 CURVE",
"473 51 OFFCURVE",
"478 51 OFFCURVE",
"483 53 CURVE SMOOTH",
"500 60 OFFCURVE",
"518 61 OFFCURVE",
"535 67 CURVE SMOOTH",
"563 77 OFFCURVE",
"650 92 OFFCURVE",
"680 92 CURVE SMOOTH",
"686 92 OFFCURVE",
"691 96 OFFCURVE",
"692 102 CURVE SMOOTH",
"700 151 OFFCURVE",
"716 197 OFFCURVE",
"734 243 CURVE SMOOTH",
"743 291 OFFCURVE",
"778 370 OFFCURVE",
"795 417 CURVE SMOOTH",
"809 456 OFFCURVE",
"820 497 OFFCURVE",
"837 536 CURVE SMOOTH",
"847 559 OFFCURVE",
"854 583 OFFCURVE",
"862 608 CURVE",
"864 617 OFFCURVE",
"864 627 OFFCURVE",
"867 636 CURVE",
"891 645 OFFCURVE",
"935 627 OFFCURVE",
"929 598 CURVE SMOOTH",
"926 583 OFFCURVE",
"903 524 OFFCURVE",
"895 508 CURVE SMOOTH",
"889 496 OFFCURVE",
"885 482 OFFCURVE",
"881 469 CURVE",
"862 420 OFFCURVE",
"827 335 OFFCURVE",
"818 286 CURVE SMOOTH",
"815 269 OFFCURVE",
"807 254 OFFCURVE",
"801 237 CURVE SMOOTH",
"789 203 OFFCURVE",
"764 136 OFFCURVE",
"759 98 CURVE",
"764 90 OFFCURVE",
"774 90 OFFCURVE",
"781 86 CURVE SMOOTH",
"801 75 OFFCURVE",
"801 44 OFFCURVE",
"758 44 CURVE",
"752 37 OFFCURVE",
"746 30 OFFCURVE",
"739 23 CURVE",
"710 23 LINE",
"702 31 OFFCURVE",
"701 41 OFFCURVE",
"686 39 CURVE SMOOTH",
"641 33 OFFCURVE",
"594 27 OFFCURVE",
"550 12 CURVE SMOOTH",
"541 9 OFFCURVE",
"531 12 OFFCURVE",
"522 8 CURVE",
"512 4 OFFCURVE",
"453 -15 OFFCURVE",
"445 -14 CURVE SMOOTH",
"438 -13 OFFCURVE",
"355 -40 OFFCURVE",
"334 -42 CURVE SMOOTH",
"314 -44 OFFCURVE",
"295 -51 OFFCURVE",
"276 -55 CURVE SMOOTH",
"243 -62 OFFCURVE",
"198 -60 OFFCURVE",
"167 -46 CURVE SMOOTH",
"141 -34 OFFCURVE",
"111 -3 OFFCURVE",
"107 26 CURVE SMOOTH",
"105 42 OFFCURVE",
"108 62 OFFCURVE",
"108 78 CURVE",
"110 81 OFFCURVE",
"122 136 OFFCURVE",
"125 144 CURVE SMOOTH",
"158 239 OFFCURVE",
"163 252 OFFCURVE",
"169 266 CURVE SMOOTH",
"175 279 OFFCURVE",
"176 294 OFFCURVE",
"181 307 CURVE SMOOTH",
"193 337 OFFCURVE",
"203 368 OFFCURVE",
"216 397 CURVE SMOOTH",
"223 413 OFFCURVE",
"234 432 OFFCURVE",
"236 449 CURVE SMOOTH",
"237 456 OFFCURVE",
"314 616 OFFCURVE",
"325 641 CURVE SMOOTH",
"330 652 OFFCURVE",
"333 664 OFFCURVE",
"344 670 CURVE",
"364 668 OFFCURVE",
"370 648 OFFCURVE",
"386 644 CURVE",
"391 628 OFFCURVE",
"389 614 OFFCURVE",
"381 599 CURVE SMOOTH",
"345 532 OFFCURVE",
"314 463 OFFCURVE",
"284 393 CURVE SMOOTH",
"278 379 OFFCURVE",
"271 365 OFFCURVE",
"266 351 CURVE SMOOTH",
"255 321 OFFCURVE",
"245 292 OFFCURVE",
"233 263 CURVE SMOOTH",
"224 242 OFFCURVE",
"194 139 OFFCURVE",
"185 118 CURVE SMOOTH",
"175 95 OFFCURVE",
"166 48 OFFCURVE",
"170 23 CURVE SMOOTH",
"176 -15 OFFCURVE",
"238 -1 OFFCURVE",
"248 -5 CURVE",
"255 0 OFFCURVE",
"262 -2 OFFCURVE",
"270 -1 CURVE",
"275 -1 OFFCURVE",
"280 0 OFFCURVE",
"284 2 CURVE",
"326 17 OFFCURVE",
"358 17 OFFCURVE",
"403 36 CURVE"
);
}
);
width = 806;
}
);
leftKerningGroup = "Sha-cy";
rightKerningGroup = "Sha-cy";
},
{
color = 9;
glyphname = "Shcha-cy.ss01";
layers = (
{
layerId = "5B238DC5-4F6F-4A74-B879-7A3E5189648B";
paths = (
{
closed = 1;
nodes = (
"966 653 LINE",
"967 648 OFFCURVE",
"969 642 OFFCURVE",
"971 637 CURVE",
"970 632 LINE",
"943 603 OFFCURVE",
"743 146 OFFCURVE",
"730 93 CURVE",
"735 88 OFFCURVE",
"743 88 OFFCURVE",
"750 90 CURVE",
"771 97 OFFCURVE",
"834 98 OFFCURVE",
"848 104 CURVE",
"862 103 OFFCURVE",
"875 97 OFFCURVE",
"888 92 CURVE",
"898 80 OFFCURVE",
"899 70 OFFCURVE",
"893 56 CURVE SMOOTH",
"888 45 OFFCURVE",
"889 32 OFFCURVE",
"883 21 CURVE SMOOTH",
"841 -57 OFFCURVE",
"818 -144 OFFCURVE",
"767 -217 CURVE",
"756 -257 OFFCURVE",
"727 -234 OFFCURVE",
"704 -223 CURVE",
"699 -212 OFFCURVE",
"700 -202 OFFCURVE",
"706 -191 CURVE SMOOTH",
"742 -128 OFFCURVE",
"779 -63 OFFCURVE",
"800 6 CURVE",
"802 14 OFFCURVE",
"815 34 OFFCURVE",
"809 40 CURVE SMOOTH",
"805 44 OFFCURVE",
"794 42 OFFCURVE",
"789 42 CURVE SMOOTH",
"778 42 OFFCURVE",
"774 39 OFFCURVE",
"764 37 CURVE",
"743 32 OFFCURVE",
"708 31 OFFCURVE",
"686 30 CURVE",
"678 30 OFFCURVE",
"670 32 OFFCURVE",
"664 26 CURVE",
"662 26 OFFCURVE",
"660 25 OFFCURVE",
"658 25 CURVE",
"639 24 OFFCURVE",
"555 17 OFFCURVE",
"542 9 CURVE",
"520 5 OFFCURVE",
"493 2 OFFCURVE",
"471 2 CURVE",
"409 -8 LINE",
"403 -10 OFFCURVE",
"398 -9 OFFCURVE",
"392 -9 CURVE SMOOTH",
"339 -9 OFFCURVE",
"241 -17 OFFCURVE",
"197 13 CURVE SMOOTH",
"177 27 OFFCURVE",
"156 41 OFFCURVE",
"143 62 CURVE SMOOTH",
"132 81 OFFCURVE",
"122 118 OFFCURVE",
"126 139 CURVE SMOOTH",
"132 171 OFFCURVE",
"141 204 OFFCURVE",
"152 235 CURVE SMOOTH",
"165 274 OFFCURVE",
"182 312 OFFCURVE",
"198 350 CURVE SMOOTH",
"207 372 OFFCURVE",
"220 394 OFFCURVE",
"225 418 CURVE",
"241 441 OFFCURVE",
"246 470 OFFCURVE",
"259 494 CURVE SMOOTH",
"282 535 OFFCURVE",
"302 577 OFFCURVE",
"323 619 CURVE SMOOTH",
"330 632 OFFCURVE",
"334 635 OFFCURVE",
"346 644 CURVE",
"372 629 OFFCURVE",
"401 624 OFFCURVE",
"385 585 CURVE SMOOTH",
"378 568 OFFCURVE",
"369 551 OFFCURVE",
"359 535 CURVE SMOOTH",
"335 495 OFFCURVE",
"315 451 OFFCURVE",
"295 409 CURVE SMOOTH",
"269 356 OFFCURVE",
"251 299 OFFCURVE",
"225 246 CURVE",
"224 227 OFFCURVE",
"209 211 OFFCURVE",
"211 191 CURVE",
"191 159 OFFCURVE",
"194 118 OFFCURVE",
"194 83 CURVE",
"197 80 OFFCURVE",
"199 76 OFFCURVE",
"202 72 CURVE SMOOTH",
"232 32 OFFCURVE",
"341 44 OFFCURVE",
"386 42 CURVE",
"393 59 OFFCURVE",
"396 77 OFFCURVE",
"401 95 CURVE SMOOTH",
"419 161 OFFCURVE",
"442 228 OFFCURVE",
"468 292 CURVE SMOOTH",
"477 313 OFFCURVE",
"489 334 OFFCURVE",
"495 356 CURVE SMOOTH",
"506 395 OFFCURVE",
"548 503 OFFCURVE",
"568 536 CURVE",
"569 542 OFFCURVE",
"593 611 OFFCURVE",
"597 618 CURVE",
"603 631 OFFCURVE",
"606 635 OFFCURVE",
"621 633 CURVE SMOOTH",
"636 631 OFFCURVE",
"654 618 OFFCURVE",
"660 604 CURVE",
"663 598 OFFCURVE",
"662 594 OFFCURVE",
"660 587 CURVE",
"640 530 OFFCURVE",
"612 475 OFFCURVE",
"589 419 CURVE SMOOTH",
"561 351 OFFCURVE",
"534 283 OFFCURVE",
"509 214 CURVE SMOOTH",
"501 191 OFFCURVE",
"487 168 OFFCURVE",
"483 144 CURVE SMOOTH",
"481 133 OFFCURVE",
"463 65 OFFCURVE",
"459 56 CURVE",
"495 49 OFFCURVE",
"608 78 OFFCURVE",
"657 78 CURVE",
"661 83 OFFCURVE",
"658 86 OFFCURVE",
"658 92 CURVE SMOOTH",
"658 98 OFFCURVE",
"661 100 OFFCURVE",
"663 105 CURVE",
"673 135 OFFCURVE",
"684 171 OFFCURVE",
"701 198 CURVE SMOOTH",
"703 201 OFFCURVE",
"705 204 OFFCURVE",
"706 208 CURVE",
"712 243 OFFCURVE",
"765 348 OFFCURVE",
"783 387 CURVE SMOOTH",
"810 448 OFFCURVE",
"833 511 OFFCURVE",
"864 571 CURVE SMOOTH",
"878 599 OFFCURVE",
"889 628 OFFCURVE",
"901 656 CURVE",
"902 678 OFFCURVE",
"914 673 OFFCURVE",
"933 677 CURVE"
);
}
);
width = 914;
}
);
leftKerningGroup = "Shcha-cy";
rightKerningGroup = "Shcha-cy";
},
{
color = 9;
glyphname = "Softsign-cy.ss01";
layers = (
{
background = {
components = (
{
name = H;
transform = "{1, 0, 0, 1, 9, 0}";
}
);
};
layerId = "5B238DC5-4F6F-4A74-B879-7A3E5189648B";
paths = (
{
closed = 1;
nodes = (
"243 -61 OFFCURVE",
"278 -50 OFFCURVE",
"290 -43 CURVE SMOOTH",
"391 16 OFFCURVE",
"504 128 OFFCURVE",
"465 256 CURVE SMOOTH",
"445 321 OFFCURVE",
"391 371 OFFCURVE",
"329 397 CURVE SMOOTH",
"317 402 OFFCURVE",
"303 405 OFFCURVE",
"294 416 CURVE",
"316 489 OFFCURVE",
"353 565 OFFCURVE",
"390 632 CURVE SMOOTH",
"396 643 OFFCURVE",
"403 663 OFFCURVE",
"397 675 CURVE",
"388 696 OFFCURVE",
"345 709 OFFCURVE",
"335 683 CURVE SMOOTH",
"318 638 OFFCURVE",
"298 594 OFFCURVE",
"276 551 CURVE SMOOTH",
"262 523 OFFCURVE",
"255 490 OFFCURVE",
"242 461 CURVE SMOOTH",
"233 441 OFFCURVE",
"197 324 OFFCURVE",
"186 311 CURVE",
"172 252 OFFCURVE",
"89 38 OFFCURVE",
"104 -8 CURVE SMOOTH",
"106 -14 OFFCURVE",
"136 -39 OFFCURVE",
"142 -42 CURVE",
"173 -55 OFFCURVE",
"196 -58 OFFCURVE",
"228 -60 CURVE SMOOTH"
);
},
{
closed = 1;
nodes = (
"204 -5 OFFCURVE",
"194 2 OFFCURVE",
"170 12 CURVE",
"171 15 OFFCURVE",
"173 18 OFFCURVE",
"173 22 CURVE",
"175 51 OFFCURVE",
"181 74 OFFCURVE",
"188 102 CURVE SMOOTH",
"210 191 OFFCURVE",
"238 274 OFFCURVE",
"269 359 CURVE",
"291 365 OFFCURVE",
"335 338 OFFCURVE",
"355 325 CURVE SMOOTH",
"369 316 OFFCURVE",
"392 295 OFFCURVE",
"400 280 CURVE SMOOTH",
"412 258 OFFCURVE",
"405 238 OFFCURVE",
"413 219 CURVE",
"408 209 OFFCURVE",
"411 197 OFFCURVE",
"409 186 CURVE SMOOTH",
"405 164 OFFCURVE",
"394 142 OFFCURVE",
"382 123 CURVE SMOOTH",
"351 74 OFFCURVE",
"286 20 OFFCURVE",
"230 3 CURVE SMOOTH"
);
}
);
width = 437;
}
);
leftKerningGroup = "Softsign-cy";
rightKerningGroup = "Soft-cy";
},
{
color = 9;
glyphname = "Iu-cy.ss01";
layers = (
{
background = {
components = (
{
name = H;
transform = "{1, 0, 0, 1, 7, 0}";
}
);
};
layerId = "5B238DC5-4F6F-4A74-B879-7A3E5189648B";
paths = (
{
closed = 1;
nodes = (
"576 556 OFFCURVE",
"547 508 OFFCURVE",
"516 434 CURVE SMOOTH",
"482 352 OFFCURVE",
"458 270 OFFCURVE",
"442 182 CURVE SMOOTH",
"440 171 OFFCURVE",
"436 160 OFFCURVE",
"436 148 CURVE SMOOTH",
"436 65 LINE SMOOTH",
"436 43 OFFCURVE",
"450 11 OFFCURVE",
"478 21 CURVE SMOOTH",
"513 34 OFFCURVE",
"523 51 OFFCURVE",
"550 72 CURVE SMOOTH",
"610 119 OFFCURVE",
"673 264 OFFCURVE",
"692 337 CURVE SMOOTH",
"700 368 OFFCURVE",
"702 401 OFFCURVE",
"711 431 CURVE",
"706 441 OFFCURVE",
"714 451 OFFCURVE",
"713 461 CURVE SMOOTH",
"707 517 OFFCURVE",
"720 554 OFFCURVE",
"670 594 CURVE",
"662 591 OFFCURVE",
"653 589 OFFCURVE",
"645 586 CURVE",
"631 597 LINE"
);
},
{
closed = 1;
nodes = (
"438 433 LINE",
"482 532 OFFCURVE",
"529 620 OFFCURVE",
"627 674 CURVE SMOOTH",
"645 684 OFFCURVE",
"660 673 OFFCURVE",
"676 665 CURVE",
"678 657 OFFCURVE",
"683 645 OFFCURVE",
"680 637 CURVE",
"723 622 LINE",
"727 615 OFFCURVE",
"731 609 OFFCURVE",
"737 604 CURVE",
"770 573 OFFCURVE",
"787 472 OFFCURVE",
"772 431 CURVE",
"770 427 OFFCURVE",
"770 422 OFFCURVE",
"770 417 CURVE",
"769 403 OFFCURVE",
"764 352 OFFCURVE",
"759 341 CURVE",
"759 322 OFFCURVE",
"750 304 OFFCURVE",
"745 286 CURVE SMOOTH",
"715 178 OFFCURVE",
"623 -15 OFFCURVE",
"499 -33 CURVE",
"489 -40 OFFCURVE",
"477 -34 OFFCURVE",
"466 -33 CURVE",
"423 -31 OFFCURVE",
"372 -4 OFFCURVE",
"367 43 CURVE",
"363 71 LINE SMOOTH",
"360 89 OFFCURVE",
"358 109 OFFCURVE",
"365 127 CURVE",
"358 136 OFFCURVE",
"367 145 OFFCURVE",
"367 154 CURVE SMOOTH",
"367 218 OFFCURVE",
"390 280 OFFCURVE",
"404 342 CURVE SMOOTH",
"409 365 OFFCURVE",
"422 384 OFFCURVE",
"425 408 CURVE"
);
},
{
closed = 1;
nodes = (
"490 396 LINE",
"464 390 OFFCURVE",
"436 400 OFFCURVE",
"410 389 CURVE",
"382 388 OFFCURVE",
"359 383 OFFCURVE",
"331 377 CURVE SMOOTH",
"318 374 OFFCURVE",
"302 359 OFFCURVE",
"293 359 CURVE",
"278 348 OFFCURVE",
"252 342 OFFCURVE",
"249 322 CURVE",
"248 318 OFFCURVE",
"212 211 OFFCURVE",
"207 199 CURVE",
"194 161 OFFCURVE",
"187 102 OFFCURVE",
"173 61 CURVE",
"173 60 OFFCURVE",
"152 -26 OFFCURVE",
"152 -31 CURVE",
"141 -50 OFFCURVE",
"136 -53 OFFCURVE",
"127 -60 CURVE",
"115 -55 OFFCURVE",
"93 -46 OFFCURVE",
"89 -33 CURVE",
"86 -24 OFFCURVE",
"109 53 OFFCURVE",
"115 65 CURVE",
"118 106 OFFCURVE",
"153 260 OFFCURVE",
"169 297 CURVE SMOOTH",
"181 323 OFFCURVE",
"202 347 OFFCURVE",
"212 373 CURVE SMOOTH",
"223 398 OFFCURVE",
"233 429 OFFCURVE",
"242 455 CURVE SMOOTH",
"262 518 OFFCURVE",
"279 561 OFFCURVE",
"305 622 CURVE SMOOTH",
"309 630 OFFCURVE",
"320 666 OFFCURVE",
"321 668 CURVE",
"322 673 OFFCURVE",
"325 677 OFFCURVE",
"327 681 CURVE",
"338 682 OFFCURVE",
"358 683 OFFCURVE",
"368 681 CURVE",
"384 666 OFFCURVE",
"392 653 OFFCURVE",
"383 631 CURVE SMOOTH",
"358 569 OFFCURVE",
"339 524 OFFCURVE",
"313 462 CURVE SMOOTH",
"308 451 OFFCURVE",
"299 436 OFFCURVE",
"299 413 CURVE",
"351 436 OFFCURVE",
"389 446 OFFCURVE",
"440 451 CURVE SMOOTH",
"468 453 OFFCURVE",
"486 442 OFFCURVE",
"517 447 CURVE"
);
}
);
width = 681;
}
);
leftKerningGroup = "Iu-cy";
rightKerningGroup = "Iu-cy";
},
{
color = 9;
glyphname = "Ia-cy.ss01";
layers = (
{
layerId = "5B238DC5-4F6F-4A74-B879-7A3E5189648B";
paths = (
{
closed = 1;
nodes = (
"513 610 OFFCURVE",
"461 589 OFFCURVE",
"423 569 CURVE SMOOTH",
"368 540 OFFCURVE",
"345 506 OFFCURVE",
"324 449 CURVE SMOOTH",
"319 434 OFFCURVE",
"320 415 OFFCURVE",
"316 405 CURVE",
"301 372 OFFCURVE",
"336 320 OFFCURVE",
"369 311 CURVE SMOOTH",
"387 306 OFFCURVE",
"403 315 OFFCURVE",
"418 324 CURVE",
"432 316 OFFCURVE",
"446 308 OFFCURVE",
"460 299 CURVE",
"463 301 LINE",
"489 379 OFFCURVE",
"508 458 OFFCURVE",
"535 536 CURVE SMOOTH",
"543 559 OFFCURVE",
"545 584 OFFCURVE",
"556 607 CURVE"
);
},
{
closed = 1;
nodes = (
"116 -10 OFFCURVE",
"77 24 OFFCURVE",
"111 31 CURVE SMOOTH",
"202 49 OFFCURVE",
"306 180 OFFCURVE",
"357 253 CURVE",
"357 258 LINE",
"305 284 OFFCURVE",
"263 316 OFFCURVE",
"254 377 CURVE SMOOTH",
"252 388 OFFCURVE",
"249 396 OFFCURVE",
"249 408 CURVE",
"258 420 OFFCURVE",
"252 436 OFFCURVE",
"256 450 CURVE SMOOTH",
"263 472 OFFCURVE",
"271 493 OFFCURVE",
"278 514 CURVE SMOOTH",
"302 585 OFFCURVE",
"382 626 OFFCURVE",
"448 650 CURVE SMOOTH",
"466 657 OFFCURVE",
"495 668 OFFCURVE",
"514 666 CURVE SMOOTH",
"527 665 OFFCURVE",
"541 673 OFFCURVE",
"553 668 CURVE",
"576 683 OFFCURVE",
"651 647 OFFCURVE",
"637 619 CURVE SMOOTH",
"618 581 OFFCURVE",
"614 544 OFFCURVE",
"598 507 CURVE SMOOTH",
"571 443 OFFCURVE",
"502 209 OFFCURVE",
"496 138 CURVE",
"494 134 OFFCURVE",
"475 23 OFFCURVE",
"473 10 CURVE SMOOTH",
"471 -3 OFFCURVE",
"447 -13 OFFCURVE",
"436 -7 CURVE",
"424 -1 OFFCURVE",
"414 7 OFFCURVE",
"405 17 CURVE",
"410 39 OFFCURVE",
"412 63 OFFCURVE",
"421 84 CURVE",
"421 125 OFFCURVE",
"434 145 OFFCURVE",
"438 179 CURVE SMOOTH",
"440 200 OFFCURVE",
"451 227 OFFCURVE",
"450 245 CURVE",
"447 249 LINE",
"422 248 LINE",
"410 226 OFFCURVE",
"390 200 OFFCURVE",
"374 181 CURVE SMOOTH",
"326 124 OFFCURVE",
"210 -33 OFFCURVE",
"124 -19 CURVE"
);
}
);
width = 509;
}
);
leftKerningGroup = "Ia-cy";
rightKerningGroup = "Ia-cy";
},
{
color = 7;
glyphname = "Be-cy.ss02";
layers = (
{
background = {
components = (
{
name = "Softsign-cy";
transform = "{1, 0, 0, 1, 67, 0}";
}
);
};
layerId = "5B238DC5-4F6F-4A74-B879-7A3E5189648B";
paths = (
{
closed = 1;
nodes = (
"245 -11 OFFCURVE",
"263 -14 OFFCURVE",
"276 -12 CURVE SMOOTH",
"294 -9 OFFCURVE",
"316 -4 OFFCURVE",
"333 2 CURVE SMOOTH",
"344 6 OFFCURVE",
"355 13 OFFCURVE",
"367 15 CURVE SMOOTH",
"388 19 OFFCURVE",
"403 30 OFFCURVE",
"421 40 CURVE SMOOTH",
"441 51 OFFCURVE",
"455 60 OFFCURVE",
"472 77 CURVE SMOOTH",
"475 80 OFFCURVE",
"478 85 OFFCURVE",
"482 87 CURVE",
"515 106 OFFCURVE",
"565 199 OFFCURVE",
"568 237 CURVE SMOOTH",
"574 325 OFFCURVE",
"509 393 OFFCURVE",
"402 410 CURVE",
"394 416 OFFCURVE",
"384 412 OFFCURVE",
"375 415 CURVE SMOOTH",
"361 420 OFFCURVE",
"325 423 OFFCURVE",
"314 411 CURVE SMOOTH",
"308 404 OFFCURVE",
"307 384 OFFCURVE",
"314 377 CURVE SMOOTH",
"324 367 OFFCURVE",
"337 358 OFFCURVE",
"351 356 CURVE SMOOTH",
"417 348 OFFCURVE",
"505 320 OFFCURVE",
"505 256 CURVE SMOOTH",
"505 172 OFFCURVE",
"449 131 OFFCURVE",
"390 97 CURVE SMOOTH",
"331 62 OFFCURVE",
"244 31 OFFCURVE",
"174 53 CURVE",
"186 169 OFFCURVE",
"260 341 OFFCURVE",
"296 416 CURVE SMOOTH",
"310 446 OFFCURVE",
"358 590 OFFCURVE",
"382 607 CURVE",
"420 604 OFFCURVE",
"447 615 OFFCURVE",
"472 618 CURVE SMOOTH",
"518 624 OFFCURVE",
"563 614 OFFCURVE",
"609 614 CURVE SMOOTH",
"634 614 OFFCURVE",
"637 617 OFFCURVE",
"637 642 CURVE",
"629 667 OFFCURVE",
"577 688 OFFCURVE",
"557 673 CURVE",
"552 674 OFFCURVE",
"459 673 OFFCURVE",
"453 671 CURVE SMOOTH",
"430 663 OFFCURVE",
"398 672 OFFCURVE",
"380 661 CURVE SMOOTH",
"372 656 OFFCURVE",
"365 655 OFFCURVE",
"356 655 CURVE SMOOTH",
"345 655 OFFCURVE",
"336 651 OFFCURVE",
"333 640 CURVE",
"317 591 OFFCURVE",
"284 550 OFFCURVE",
"265 503 CURVE SMOOTH",
"248 460 OFFCURVE",
"224 419 OFFCURVE",
"207 376 CURVE SMOOTH",
"177 299 OFFCURVE",
"153 220 OFFCURVE",
"127 142 CURVE SMOOTH",
"122 127 OFFCURVE",
"121 111 OFFCURVE",
"116 96 CURVE",
"111 79 OFFCURVE",
"111 66 OFFCURVE",
"101 50 CURVE",
"104 37 OFFCURVE",
"108 14 OFFCURVE",
"117 5 CURVE SMOOTH",
"145 -23 OFFCURVE",
"198 -23 OFFCURVE",
"233 -14 CURVE SMOOTH"
);
}
);
width = 529;
}
);
leftKerningGroup = "Be-cy";
rightKerningGroup = "Be-cy";
},
{
color = 7;
glyphname = "De-cy.ss02";
layers = (
{
background = {
components = (
{
name = H;
transform = "{1, 0, 0, 1, 115, 0}";
}
);
};
layerId = "5B238DC5-4F6F-4A74-B879-7A3E5189648B";
paths = (
{
closed = 1;
nodes = (
"93 -194 CURVE",
"99 -178 OFFCURVE",
"96 -164 OFFCURVE",
"100 -149 CURVE SMOOTH",
"109 -106 OFFCURVE",
"119 -61 OFFCURVE",
"135 -20 CURVE",
"156 -17 OFFCURVE",
"176 -10 OFFCURVE",
"196 -6 CURVE SMOOTH",
"211 -3 OFFCURVE",
"229 -3 OFFCURVE",
"256 -2 CURVE",
"286 -2 OFFCURVE",
"313 0 OFFCURVE",
"338 7 CURVE SMOOTH",
"349 10 OFFCURVE",
"361 7 OFFCURVE",
"373 8 CURVE SMOOTH",
"464 16 OFFCURVE",
"434 13 OFFCURVE",
"595 13 CURVE SMOOTH",
"599 13 OFFCURVE",
"603 13 OFFCURVE",
"606 12 CURVE SMOOTH",
"630 4 OFFCURVE",
"655 10 OFFCURVE",
"679 6 CURVE",
"683 -35 OFFCURVE",
"602 -121 OFFCURVE",
"617 -162 CURVE",
"644 -186 LINE",
"658 -191 OFFCURVE",
"668 -185 OFFCURVE",
"674 -173 CURVE SMOOTH",
"687 -148 OFFCURVE",
"759 -5 OFFCURVE",
"747 21 CURVE SMOOTH",
"722 72 OFFCURVE",
"674 56 OFFCURVE",
"632 70 CURVE",
"644 115 OFFCURVE",
"661 160 OFFCURVE",
"677 202 CURVE SMOOTH",
"686 224 OFFCURVE",
"693 242 OFFCURVE",
"696 266 CURVE SMOOTH",
"697 271 OFFCURVE",
"713 316 OFFCURVE",
"717 324 CURVE",
"727 349 OFFCURVE",
"806 570 OFFCURVE",
"806 608 CURVE SMOOTH",
"807 621 OFFCURVE",
"795 644 OFFCURVE",
"787 654 CURVE",
"736 675 OFFCURVE",
"687 709 OFFCURVE",
"631 709 CURVE",
"579 713 OFFCURVE",
"549 721 OFFCURVE",
"521 713 CURVE",
"506 708 OFFCURVE",
"487 705 OFFCURVE",
"471 703 CURVE SMOOTH",
"439 699 OFFCURVE",
"413 689 OFFCURVE",
"383 681 CURVE SMOOTH",
"369 677 OFFCURVE",
"357 668 OFFCURVE",
"343 666 CURVE SMOOTH",
"313 662 OFFCURVE",
"329 594 OFFCURVE",
"375 609 CURVE",
"453 643 OFFCURVE",
"513 662 OFFCURVE",
"528 654 CURVE",
"515 620 OFFCURVE",
"509 582 OFFCURVE",
"491 550 CURVE SMOOTH",
"469 508 OFFCURVE",
"457 459 OFFCURVE",
"436 416 CURVE SMOOTH",
"401 344 OFFCURVE",
"369 295 OFFCURVE",
"333 236 CURVE SMOOTH",
"315 206 OFFCURVE",
"278 149 OFFCURVE",
"256 124 CURVE SMOOTH",
"233 99 OFFCURVE",
"210 75 OFFCURVE",
"186 50 CURVE",
"164 48 LINE",
"144 45 OFFCURVE",
"123 45 OFFCURVE",
"102 45 CURVE SMOOTH",
"84 45 OFFCURVE",
"81 44 OFFCURVE",
"77 26 CURVE SMOOTH",
"66 -19 OFFCURVE",
"42 -109 OFFCURVE",
"39 -152 CURVE SMOOTH",
"38 -170 OFFCURVE",
"45 -179 OFFCURVE",
"57 -192 CURVE SMOOTH",
"71 -207 OFFCURVE",
"74 -205 OFFCURVE"
);
},
{
closed = 1;
nodes = (
"287 64 OFFCURVE",
"398 223 OFFCURVE",
"399 225 CURVE SMOOTH",
"413 249 OFFCURVE",
"427 273 OFFCURVE",
"443 296 CURVE SMOOTH",
"474 340 OFFCURVE",
"566 550 OFFCURVE",
"590 629 CURVE SMOOTH",
"595 643 OFFCURVE",
"594 646 OFFCURVE",
"590 661 CURVE",
"599 673 OFFCURVE",
"619 662 OFFCURVE",
"633 662 CURVE SMOOTH",
"667 662 OFFCURVE",
"702 647 OFFCURVE",
"732 631 CURVE",
"736 617 OFFCURVE",
"741 604 OFFCURVE",
"735 591 CURVE SMOOTH",
"728 575 OFFCURVE",
"727 552 OFFCURVE",
"721 534 CURVE SMOOTH",
"706 483 LINE SMOOTH",
"700 464 OFFCURVE",
"690 447 OFFCURVE",
"686 428 CURVE SMOOTH",
"666 348 OFFCURVE",
"637 294 OFFCURVE",
"615 226 CURVE SMOOTH",
"606 196 OFFCURVE",
"594 166 OFFCURVE",
"585 136 CURVE SMOOTH",
"578 115 OFFCURVE",
"573 92 OFFCURVE",
"564 72 CURVE",
"543 72 OFFCURVE",
"448 73 OFFCURVE",
"439 67 CURVE",
"436 69 OFFCURVE",
"296 61 OFFCURVE",
"288 61 CURVE"
);
}
);
width = 749;
}
);
leftKerningGroup = "De-cy";
rightKerningGroup = "De-cy";
},
{
color = 7;
glyphname = "Zhe-cy.ss02";
layers = (
{
background = {
components = (
{
name = H;
transform = "{1, 0, 0, 1, -4, 0}";
}
);
};
layerId = "5B238DC5-4F6F-4A74-B879-7A3E5189648B";
paths = (
{
closed = 1;
nodes = (
"288 682 OFFCURVE",
"294 690 OFFCURVE",
"300 698 CURVE",
"320 701 OFFCURVE",
"339 707 OFFCURVE",
"354 690 CURVE",
"372 671 OFFCURVE",
"438 583 OFFCURVE",
"444 562 CURVE SMOOTH",
"448 549 OFFCURVE",
"457 539 OFFCURVE",
"463 527 CURVE SMOOTH",
"481 493 OFFCURVE",
"543 393 OFFCURVE",
"550 361 CURVE",
"573 447 OFFCURVE",
"639 645 OFFCURVE",
"652 658 CURVE",
"669 661 OFFCURVE",
"693 663 OFFCURVE",
"706 647 CURVE",
"713 624 OFFCURVE",
"696 583 OFFCURVE",
"682 564 CURVE SMOOTH",
"674 553 OFFCURVE",
"682 537 OFFCURVE",
"674 536 CURVE",
"675 525 LINE",
"668 515 OFFCURVE",
"652 501 OFFCURVE",
"658 489 CURVE",
"649 472 OFFCURVE",
"648 445 OFFCURVE",
"631 436 CURVE",
"631 422 LINE",
"635 418 LINE",
"655 418 OFFCURVE",
"678 406 OFFCURVE",
"687 376 CURVE",
"836 476 OFFCURVE",
"885 536 OFFCURVE",
"980 687 CURVE",
"998 693 LINE",
"1007 683 OFFCURVE",
"1013 690 OFFCURVE",
"1025 685 CURVE",
"1036 660 OFFCURVE",
"1026 637 OFFCURVE",
"1011 617 CURVE SMOOTH",
"938 520 OFFCURVE",
"881 436 OFFCURVE",
"697 322 CURVE",
"699 292 OFFCURVE",
"722 235 OFFCURVE",
"749 187 CURVE SMOOTH",
"779 134 OFFCURVE",
"814 83 OFFCURVE",
"864 47 CURVE SMOOTH",
"875 39 OFFCURVE",
"883 28 OFFCURVE",
"895 22 CURVE SMOOTH",
"912 13 OFFCURVE",
"931 2 OFFCURVE",
"939 -17 CURVE",
"937 -31 OFFCURVE",
"925 -41 OFFCURVE",
"914 -49 CURVE",
"902 -49 OFFCURVE",
"891 -50 OFFCURVE",
"879 -50 CURVE",
"862 -37 OFFCURVE",
"842 -26 OFFCURVE",
"826 -12 CURVE SMOOTH",
"687 107 OFFCURVE",
"668 194 OFFCURVE",
"611 354 CURVE",
"604 344 OFFCURVE",
"600 335 OFFCURVE",
"591 326 CURVE",
"578 314 OFFCURVE",
"596 309 OFFCURVE",
"588 294 CURVE SMOOTH",
"574 266 OFFCURVE",
"508 49 OFFCURVE",
"511 23 CURVE",
"505 9 OFFCURVE",
"507 -8 OFFCURVE",
"505 -23 CURVE",
"499 -30 OFFCURVE",
"492 -36 OFFCURVE",
"485 -42 CURVE",
"466 -46 OFFCURVE",
"455 -28 OFFCURVE",
"442 -17 CURVE",
"449 78 OFFCURVE",
"495 181 OFFCURVE",
"519 269 CURVE SMOOTH",
"522 280 OFFCURVE",
"506 284 OFFCURVE",
"503 299 CURVE SMOOTH",
"499 317 OFFCURVE",
"488 327 OFFCURVE",
"481 344 CURVE",
"463 328 OFFCURVE",
"446 297 OFFCURVE",
"429 280 CURVE SMOOTH",
"386 237 OFFCURVE",
"344 192 OFFCURVE",
"299 150 CURVE SMOOTH",
"276 129 OFFCURVE",
"248 111 OFFCURVE",
"227 89 CURVE SMOOTH",
"206 67 OFFCURVE",
"179 52 OFFCURVE",
"157 30 CURVE SMOOTH",
"132 5 OFFCURVE",
"92 -16 OFFCURVE",
"77 -31 CURVE",
"55 -26 OFFCURVE",
"54 -8 OFFCURVE",
"37 5 CURVE",
"37 22 OFFCURVE",
"38 31 OFFCURVE",
"56 37 CURVE SMOOTH",
"119 57 OFFCURVE",
"319 247 OFFCURVE",
"374 301 CURVE SMOOTH",
"388 315 OFFCURVE",
"419 354 OFFCURVE",
"424 373 CURVE SMOOTH",
"427 385 OFFCURVE",
"434 395 OFFCURVE",
"447 396 CURVE",
"451 403 LINE",
"435 451 OFFCURVE",
"357 584 OFFCURVE",
"324 624 CURVE SMOOTH",
"306 646 OFFCURVE",
"293 647 OFFCURVE",
"283 674 CURVE"
);
}
);
width = 945;
}
);
leftKerningGroup = "Zhe-cy";
rightKerningGroup = "Zhe-cy";
},
{
color = 7;
glyphname = "Ze-cy.ss02";
layers = (
{
background = {
components = (
{
name = B;
transform = "{1, 0, 0, 1, 1, 0}";
}
);
};
layerId = "5B238DC5-4F6F-4A74-B879-7A3E5189648B";
paths = (
{
closed = 1;
nodes = (
"322 310 OFFCURVE",
"295 337 OFFCURVE",
"305 362 CURVE",
"313 364 OFFCURVE",
"320 368 OFFCURVE",
"329 368 CURVE SMOOTH",
"461 369 OFFCURVE",
"522 494 OFFCURVE",
"506 601 CURVE",
"460 644 OFFCURVE",
"344 629 OFFCURVE",
"294 567 CURVE",
"267 569 OFFCURVE",
"239 597 OFFCURVE",
"242 623 CURVE",
"298 695 OFFCURVE",
"446 713 OFFCURVE",
"527 645 CURVE SMOOTH",
"566 611 OFFCURVE",
"579 560 OFFCURVE",
"568 507 CURVE SMOOTH",
"555 443 OFFCURVE",
"508 376 OFFCURVE",
"436 340 CURVE",
"512 315 OFFCURVE",
"553 240 OFFCURVE",
"553 163 CURVE SMOOTH",
"553 103 OFFCURVE",
"509 0 OFFCURVE",
"454 -24 CURVE SMOOTH",
"449 -26 OFFCURVE",
"445 -29 OFFCURVE",
"440 -32 CURVE SMOOTH",
"418 -45 OFFCURVE",
"374 -69 OFFCURVE",
"305 -66 CURVE",
"298 -71 OFFCURVE",
"291 -70 OFFCURVE",
"284 -65 CURVE",
"279 -67 OFFCURVE",
"251 -68 OFFCURVE",
"248 -65 CURVE",
"185 -53 OFFCURVE",
"97 23 OFFCURVE",
"96 106 CURVE",
"106 135 OFFCURVE",
"128 147 OFFCURVE",
"152 140 CURVE",
"157 129 OFFCURVE",
"148 120 OFFCURVE",
"151 110 CURVE SMOOTH",
"174 27 OFFCURVE",
"243 -12 OFFCURVE",
"313 -12 CURVE SMOOTH",
"387 -12 OFFCURVE",
"462 36 OFFCURVE",
"474 128 CURVE",
"476 131 OFFCURVE",
"478 134 OFFCURVE",
"479 138 CURVE",
"485 176 OFFCURVE",
"473 262 OFFCURVE",
"419 283 CURVE SMOOTH",
"411 287 OFFCURVE",
"400 287 OFFCURVE",
"391 289 CURVE",
"374 294 OFFCURVE",
"354 297 OFFCURVE",
"337 294 CURVE"
);
}
);
width = 539;
}
);
leftKerningGroup = "Ze-cy";
rightKerningGroup = "Ze-cy";
},
{
color = 7;
glyphname = "Ii-cy.ss02";
layers = (
{
background = {
components = (
{
name = H;
transform = "{1, 0, 0, 1, 20, 0}";
}
);
};
layerId = "5B238DC5-4F6F-4A74-B879-7A3E5189648B";
paths = (
{
closed = 1;
nodes = (
"312 659 OFFCURVE",
"351 627 OFFCURVE",
"343 597 CURVE SMOOTH",
"322 517 OFFCURVE",
"292 439 OFFCURVE",
"268 360 CURVE SMOOTH",
"250 300 OFFCURVE",
"230 239 OFFCURVE",
"213 178 CURVE SMOOTH",
"209 164 OFFCURVE",
"202 151 OFFCURVE",
"196 138 CURVE",
"202 138 LINE",
"250 189 OFFCURVE",
"294 245 OFFCURVE",
"336 301 CURVE SMOOTH",
"402 388 OFFCURVE",
"480 473 OFFCURVE",
"561 546 CURVE SMOOTH",
"590 572 OFFCURVE",
"615 601 OFFCURVE",
"644 625 CURVE SMOOTH",
"656 635 OFFCURVE",
"672 665 OFFCURVE",
"688 664 CURVE SMOOTH",
"711 663 OFFCURVE",
"741 631 OFFCURVE",
"733 608 CURVE SMOOTH",
"693 494 OFFCURVE",
"650 382 OFFCURVE",
"616 266 CURVE SMOOTH",
"601 214 OFFCURVE",
"579 165 OFFCURVE",
"569 111 CURVE SMOOTH",
"561 65 OFFCURVE",
"555 16 OFFCURVE",
"543 -29 CURVE SMOOTH",
"536 -56 OFFCURVE",
"495 -24 OFFCURVE",
"485 -9 CURVE SMOOTH",
"481 -3 OFFCURVE",
"483 2 OFFCURVE",
"484 8 CURVE SMOOTH",
"493 57 OFFCURVE",
"505 105 OFFCURVE",
"518 153 CURVE SMOOTH",
"530 201 OFFCURVE",
"543 254 OFFCURVE",
"561 299 CURVE SMOOTH",
"573 326 OFFCURVE",
"578 356 OFFCURVE",
"590 383 CURVE SMOOTH",
"608 420 OFFCURVE",
"622 481 OFFCURVE",
"635 523 CURVE",
"630 525 LINE",
"612 509 OFFCURVE",
"594 494 OFFCURVE",
"577 478 CURVE SMOOTH",
"542 445 OFFCURVE",
"512 405 OFFCURVE",
"475 376 CURVE",
"462 351 OFFCURVE",
"412 305 OFFCURVE",
"391 277 CURVE SMOOTH",
"346 217 OFFCURVE",
"296 160 OFFCURVE",
"250 100 CURVE SMOOTH",
"224 66 OFFCURVE",
"206 34 OFFCURVE",
"198 2 CURVE SMOOTH",
"194 -14 OFFCURVE",
"175 -25 OFFCURVE",
"165 -39 CURVE",
"151 -51 OFFCURVE",
"118 -42 OFFCURVE",
"106 -26 CURVE",
"101 -14 OFFCURVE",
"98 0 OFFCURVE",
"101 13 CURVE",
"224 423 LINE",
"238 474 OFFCURVE",
"256 525 OFFCURVE",
"270 576 CURVE SMOOTH",
"277 601 OFFCURVE",
"279 625 OFFCURVE",
"283 651 CURVE"
);
}
);
width = 596;
}
);
leftKerningGroup = "Ii-cy";
rightKerningGroup = "Ii-cy";
},
{
color = 7;
glyphname = "El-cy.ss02";
layers = (
{
layerId = "5B238DC5-4F6F-4A74-B879-7A3E5189648B";
paths = (
{
closed = 1;
nodes = (
"593 612 OFFCURVE",
"594 607 OFFCURVE",
"597 604 CURVE",
"591 518 OFFCURVE",
"568 430 OFFCURVE",
"545 347 CURVE SMOOTH",
"540 328 OFFCURVE",
"536 287 OFFCURVE",
"530 273 CURVE SMOOTH",
"515 237 OFFCURVE",
"509 202 OFFCURVE",
"499 164 CURVE SMOOTH",
"488 124 OFFCURVE",
"459 46 OFFCURVE",
"441 9 CURVE",
"449 -21 OFFCURVE",
"479 -31 OFFCURVE",
"502 -9 CURVE SMOOTH",
"512 1 OFFCURVE",
"512 16 OFFCURVE",
"520 27 CURVE",
"544 115 OFFCURVE",
"584 197 OFFCURVE",
"599 287 CURVE SMOOTH",
"604 314 OFFCURVE",
"624 351 OFFCURVE",
"623 378 CURVE",
"625 397 OFFCURVE",
"632 416 OFFCURVE",
"635 435 CURVE",
"646 440 OFFCURVE",
"668 568 OFFCURVE",
"666 586 CURVE",
"664 599 OFFCURVE",
"661 612 OFFCURVE",
"658 625 CURVE",
"640 639 LINE",
"636 648 OFFCURVE",
"626 650 OFFCURVE",
"621 660 CURVE SMOOTH",
"614 674 OFFCURVE",
"571 678 OFFCURVE",
"557 678 CURVE",
"548 673 OFFCURVE",
"485 666 OFFCURVE",
"471 666 CURVE",
"441 654 OFFCURVE",
"410 645 OFFCURVE",
"379 637 CURVE",
"378 637 LINE",
"375 636 LINE",
"343 624 LINE SMOOTH",
"318 615 OFFCURVE",
"291 607 OFFCURVE",
"267 596 CURVE SMOOTH",
"242 584 OFFCURVE",
"242 555 OFFCURVE",
"253 533 CURVE",
"311 516 OFFCURVE",
"357 581 OFFCURVE",
"415 581 CURVE",
"396 540 OFFCURVE",
"366 489 OFFCURVE",
"359 445 CURVE",
"358 436 OFFCURVE",
"349 435 OFFCURVE",
"345 426 CURVE SMOOTH",
"328 391 OFFCURVE",
"315 356 OFFCURVE",
"296 321 CURVE",
"299 313 LINE",
"284 303 OFFCURVE",
"285 297 OFFCURVE",
"282 279 CURVE",
"263 266 OFFCURVE",
"230 197 OFFCURVE",
"213 172 CURVE",
"196 149 OFFCURVE",
"96 17 OFFCURVE",
"74 17 CURVE SMOOTH",
"62 17 OFFCURVE",
"52 10 OFFCURVE",
"48 -1 CURVE",
"50 -25 OFFCURVE",
"83 -46 OFFCURVE",
"106 -37 CURVE SMOOTH",
"128 -28 OFFCURVE",
"164 11 OFFCURVE",
"179 30 CURVE SMOOTH",
"263 133 OFFCURVE",
"323 228 OFFCURVE",
"373 353 CURVE SMOOTH",
"405 432 OFFCURVE",
"448 505 OFFCURVE",
"475 587 CURVE SMOOTH",
"479 598 OFFCURVE",
"483 601 OFFCURVE",
"494 604 CURVE",
"527 611 OFFCURVE",
"562 615 OFFCURVE",
"596 615 CURVE"
);
}
);
width = 605;
}
);
leftKerningGroup = "El-cy";
rightKerningGroup = "El-cy";
},
{
color = 7;
glyphname = "Pe-cy.ss02";
layers = (
{
background = {
components = (
{
name = H;
transform = "{1, 0, 0, 1, 28, 0}";
}
);
};
layerId = "5B238DC5-4F6F-4A74-B879-7A3E5189648B";
paths = (
{
closed = 1;
nodes = (
"295 606 OFFCURVE",
"283 608 OFFCURVE",
"270 610 CURVE",
"243 613 OFFCURVE",
"261 650 OFFCURVE",
"271 662 CURVE SMOOTH",
"285 678 OFFCURVE",
"319 673 OFFCURVE",
"339 673 CURVE",
"345 688 OFFCURVE",
"354 692 OFFCURVE",
"368 686 CURVE SMOOTH",
"377 682 OFFCURVE",
"381 673 OFFCURVE",
"392 673 CURVE SMOOTH",
"430 673 OFFCURVE",
"519 677 OFFCURVE",
"550 668 CURVE",
"554 667 OFFCURVE",
"632 667 OFFCURVE",
"642 667 CURVE SMOOTH",
"676 667 OFFCURVE",
"716 664 OFFCURVE",
"750 656 CURVE SMOOTH",
"759 654 OFFCURVE",
"764 646 OFFCURVE",
"762 637 CURVE",
"751 596 OFFCURVE",
"708 538 OFFCURVE",
"690 491 CURVE SMOOTH",
"684 475 OFFCURVE",
"687 465 OFFCURVE",
"679 459 CURVE",
"667 435 OFFCURVE",
"659 416 OFFCURVE",
"653 390 CURVE SMOOTH",
"650 376 OFFCURVE",
"641 362 OFFCURVE",
"637 347 CURVE SMOOTH",
"623 296 OFFCURVE",
"608 245 OFFCURVE",
"590 195 CURVE SMOOTH",
"562 117 OFFCURVE",
"541 40 OFFCURVE",
"524 -41 CURVE",
"512 -37 OFFCURVE",
"478 -27 OFFCURVE",
"475 -13 CURVE SMOOTH",
"470 9 OFFCURVE",
"501 85 OFFCURVE",
"508 113 CURVE SMOOTH",
"525 181 OFFCURVE",
"540 252 OFFCURVE",
"567 317 CURVE SMOOTH",
"579 346 OFFCURVE",
"589 376 OFFCURVE",
"599 406 CURVE SMOOTH",
"616 456 OFFCURVE",
"611 448 OFFCURVE",
"626 499 CURVE SMOOTH",
"636 534 OFFCURVE",
"651 567 OFFCURVE",
"663 601 CURVE",
"661 602 LINE",
"633 604 OFFCURVE",
"605 611 OFFCURVE",
"576 610 CURVE SMOOTH",
"551 609 OFFCURVE",
"517 612 OFFCURVE",
"492 614 CURVE SMOOTH",
"482 615 OFFCURVE",
"471 614 OFFCURVE",
"461 612 CURVE SMOOTH",
"441 608 OFFCURVE",
"417 609 OFFCURVE",
"396 610 CURVE",
"387 610 OFFCURVE",
"383 608 OFFCURVE",
"378 600 CURVE",
"359 566 OFFCURVE",
"342 530 OFFCURVE",
"326 495 CURVE SMOOTH",
"304 448 OFFCURVE",
"313 454 OFFCURVE",
"294 406 CURVE SMOOTH",
"286 386 OFFCURVE",
"276 366 OFFCURVE",
"269 345 CURVE SMOOTH",
"247 279 OFFCURVE",
"223 213 OFFCURVE",
"202 146 CURVE SMOOTH",
"198 133 OFFCURVE",
"201 119 OFFCURVE",
"192 108 CURVE",
"190 88 OFFCURVE",
"157 -46 OFFCURVE",
"149 -63 CURVE SMOOTH",
"141 -81 OFFCURVE",
"87 -63 OFFCURVE",
"101 -22 CURVE SMOOTH",
"104 -13 OFFCURVE",
"106 -6 OFFCURVE",
"106 3 CURVE SMOOTH",
"106 18 OFFCURVE",
"178 269 OFFCURVE",
"186 293 CURVE SMOOTH",
"188 299 OFFCURVE",
"197 319 OFFCURVE",
"197 322 CURVE SMOOTH",
"197 345 OFFCURVE",
"214 363 OFFCURVE",
"214 376 CURVE SMOOTH",
"214 399 OFFCURVE",
"243 447 OFFCURVE",
"253 477 CURVE SMOOTH",
"267 520 OFFCURVE",
"291 559 OFFCURVE",
"307 602 CURVE"
);
}
);
width = 607;
}
);
leftKerningGroup = "Pe-cy";
rightKerningGroup = "Pe-cy";
},
{
color = 7;
glyphname = "U-cy.ss02";
layers = (
{
anchors = (
{
name = topUC;
position = "{529, 769}";
}
);
layerId = "5B238DC5-4F6F-4A74-B879-7A3E5189648B";
paths = (
{
closed = 1;
nodes = (
"414 199 OFFCURVE",
"413 209 OFFCURVE",
"418 217 CURVE SMOOTH",
"433 242 OFFCURVE",
"452 263 OFFCURVE",
"466 289 CURVE SMOOTH",
"480 313 OFFCURVE",
"494 337 OFFCURVE",
"507 362 CURVE SMOOTH",
"558 457 OFFCURVE",
"604 590 OFFCURVE",
"636 693 CURVE",
"655 699 LINE",
"672 694 OFFCURVE",
"703 671 OFFCURVE",
"696 651 CURVE SMOOTH",
"686 622 OFFCURVE",
"644 513 OFFCURVE",
"642 491 CURVE",
"625 467 OFFCURVE",
"617 433 OFFCURVE",
"606 406 CURVE SMOOTH",
"597 384 OFFCURVE",
"586 362 OFFCURVE",
"574 341 CURVE SMOOTH",
"544 289 OFFCURVE",
"515 232 OFFCURVE",
"479 184 CURVE",
"470 171 OFFCURVE",
"460 157 OFFCURVE",
"452 144 CURVE SMOOTH",
"440 124 OFFCURVE",
"420 110 OFFCURVE",
"409 88 CURVE",
"407 85 OFFCURVE",
"405 82 OFFCURVE",
"402 80 CURVE",
"364 52 OFFCURVE",
"327 23 OFFCURVE",
"291 -8 CURVE SMOOTH",
"267 -28 OFFCURVE",
"254 -25 OFFCURVE",
"246 -30 CURVE",
"228 -23 OFFCURVE",
"209 -17 OFFCURVE",
"203 4 CURVE",
"204 13 OFFCURVE",
"217 28 OFFCURVE",
"225 32 CURVE",
"239 31 OFFCURVE",
"249 40 OFFCURVE",
"259 48 CURVE",
"269 55 OFFCURVE",
"315 91 OFFCURVE",
"318 98 CURVE",
"321 104 OFFCURVE",
"342 116 OFFCURVE",
"349 123 CURVE SMOOTH",
"359 133 OFFCURVE",
"367 145 OFFCURVE",
"377 156 CURVE",
"367 161 OFFCURVE",
"353 168 OFFCURVE",
"346 176 CURVE",
"314 208 OFFCURVE",
"317 269 OFFCURVE",
"298 307 CURVE SMOOTH",
"292 319 OFFCURVE",
"295 334 OFFCURVE",
"287 346 CURVE",
"282 376 OFFCURVE",
"271 416 OFFCURVE",
"263 446 CURVE SMOOTH",
"252 490 OFFCURVE",
"250 519 OFFCURVE",
"243 563 CURVE SMOOTH",
"241 576 OFFCURVE",
"237 590 OFFCURVE",
"242 602 CURVE",
"236 614 OFFCURVE",
"240 628 OFFCURVE",
"239 641 CURVE SMOOTH",
"238 657 OFFCURVE",
"239 672 OFFCURVE",
"239 688 CURVE SMOOTH",
"239 721 OFFCURVE",
"293 690 OFFCURVE",
"304 677 CURVE SMOOTH",
"312 667 LINE",
"301 638 OFFCURVE",
"311 563 OFFCURVE",
"315 530 CURVE",
"316 524 OFFCURVE",
"317 517 OFFCURVE",
"316 511 CURVE",
"315 507 OFFCURVE",
"313 507 OFFCURVE",
"315 503 CURVE",
"321 489 OFFCURVE",
"320 477 OFFCURVE",
"323 463 CURVE SMOOTH",
"335 409 OFFCURVE",
"355 357 OFFCURVE",
"367 303 CURVE SMOOTH",
"373 275 OFFCURVE",
"379 245 OFFCURVE",
"389 218 CURVE SMOOTH",
"392 210 OFFCURVE",
"396 202 OFFCURVE",
"403 196 CURVE"
);
}
);
width = 554;
}
);
leftKerningGroup = "U-cy";
rightKerningGroup = "U-cy";
},
{
color = 7;
glyphname = "Ef-cy.ss02";
layers = (
{
background = {
components = (
{
name = H;
transform = "{1, 0, 0, 1, -67, 0}";
}
);
};
layerId = "5B238DC5-4F6F-4A74-B879-7A3E5189648B";
paths = (
{
closed = 1;
nodes = (
"525 552 LINE",
"529 575 OFFCURVE",
"546 631 OFFCURVE",
"556 658 CURVE",
"577 664 LINE",
"591 656 OFFCURVE",
"602 645 OFFCURVE",
"614 633 CURVE",
"618 609 OFFCURVE",
"607 588 OFFCURVE",
"595 539 CURVE"
);
},
{
closed = 1;
nodes = (
"450 68 OFFCURVE",
"471 139 OFFCURVE",
"450 139 CURVE SMOOTH",
"472 139 OFFCURVE",
"514 139 OFFCURVE",
"521 138 CURVE",
"562 138 OFFCURVE",
"615 154 OFFCURVE",
"640 166 CURVE SMOOTH",
"719 204 OFFCURVE",
"792 298 OFFCURVE",
"769 395 CURVE SMOOTH",
"765 410 OFFCURVE",
"761 424 OFFCURVE",
"756 439 CURVE",
"735 460 OFFCURVE",
"713 474 OFFCURVE",
"693 494 CURVE SMOOTH",
"685 502 OFFCURVE",
"622 515 OFFCURVE",
"594 517 CURVE",
"500 528 LINE",
"462 521 LINE",
"349 492 OFFCURVE",
"267 444 OFFCURVE",
"240 322 CURVE SMOOTH",
"236 302 OFFCURVE",
"241 282 OFFCURVE",
"246 262 CURVE SMOOTH",
"255 220 OFFCURVE",
"291 182 OFFCURVE",
"332 167 CURVE SMOOTH",
"360 156 OFFCURVE",
"390 143 OFFCURVE",
"422 145 CURVE",
"406 85 LINE",
"381 92 OFFCURVE",
"289 121 OFFCURVE",
"265 147 CURVE",
"244 155 OFFCURVE",
"235 170 OFFCURVE",
"223 187 CURVE SMOOTH",
"183 246 OFFCURVE",
"161 299 OFFCURVE",
"179 368 CURVE",
"182 380 OFFCURVE",
"184 393 OFFCURVE",
"188 405 CURVE SMOOTH",
"209 477 OFFCURVE",
"324 556 OFFCURVE",
"396 569 CURVE SMOOTH",
"413 572 OFFCURVE",
"429 578 OFFCURVE",
"445 582 CURVE",
"455 585 OFFCURVE",
"465 584 OFFCURVE",
"474 586 CURVE",
"498 592 OFFCURVE",
"531 583 OFFCURVE",
"552 587 CURVE",
"597 572 LINE",
"675 565 OFFCURVE",
"732 534 OFFCURVE",
"788 474 CURVE SMOOTH",
"814 446 OFFCURVE",
"815 436 OFFCURVE",
"827 401 CURVE SMOOTH",
"842 356 OFFCURVE",
"843 316 OFFCURVE",
"823 273 CURVE SMOOTH",
"785 190 OFFCURVE",
"737 130 OFFCURVE",
"638 108 CURVE SMOOTH",
"603 100 OFFCURVE",
"595 92 OFFCURVE",
"528 87 CURVE",
"449 78 LINE"
);
},
{
closed = 1;
nodes = (
"481 182 OFFCURVE",
"466 86 OFFCURVE",
"457 -37 CURVE",
"430 -52 LINE",
"423 -49 OFFCURVE",
"416 -46 OFFCURVE",
"409 -44 CURVE",
"398 -42 OFFCURVE",
"392 -36 OFFCURVE",
"387 -27 CURVE SMOOTH",
"381 -16 OFFCURVE",
"378 -3 OFFCURVE",
"387 21 CURVE SMOOTH",
"400 54 OFFCURVE",
"396 59 OFFCURVE",
"399 83 CURVE",
"469 366 LINE",
"477 378 OFFCURVE",
"525 562 OFFCURVE",
"527 565 CURVE",
"597 548 LINE",
"595 540 OFFCURVE",
"584 489 OFFCURVE",
"581 482 CURVE SMOOTH",
"565 443 OFFCURVE",
"557 400 OFFCURVE",
"542 361 CURVE SMOOTH",
"535 342 OFFCURVE",
"527 322 OFFCURVE",
"521 303 CURVE SMOOTH"
);
}
);
width = 773;
}
);
leftKerningGroup = "Ef-cy";
rightKerningGroup = "Ef-cy";
},
{
color = 7;
glyphname = "Che-cy.ss02";
layers = (
{
background = {
components = (
{
name = H;
transform = "{1, 0, 0, 1, -50, 0}";
}
);
};
layerId = "5B238DC5-4F6F-4A74-B879-7A3E5189648B";
paths = (
{
closed = 1;
nodes = (
"408 67 OFFCURVE",
"472 245 OFFCURVE",
"476 293 CURVE",
"446 266 OFFCURVE",
"298 147 OFFCURVE",
"246 167 CURVE",
"220 167 OFFCURVE",
"209 168 OFFCURVE",
"184 188 CURVE SMOOTH",
"178 193 OFFCURVE",
"175 200 OFFCURVE",
"171 207 CURVE SMOOTH",
"157 233 OFFCURVE",
"160 266 OFFCURVE",
"164 295 CURVE",
"162 311 OFFCURVE",
"221 476 OFFCURVE",
"229 482 CURVE",
"239 512 OFFCURVE",
"252 539 OFFCURVE",
"261 562 CURVE SMOOTH",
"266 575 OFFCURVE",
"274 586 OFFCURVE",
"281 598 CURVE SMOOTH",
"291 616 OFFCURVE",
"297 635 OFFCURVE",
"306 653 CURVE",
"305 665 OFFCURVE",
"311 671 OFFCURVE",
"320 677 CURVE",
"334 669 OFFCURVE",
"368 657 OFFCURVE",
"364 637 CURVE",
"354 599 OFFCURVE",
"334 557 OFFCURVE",
"316 522 CURVE SMOOTH",
"303 497 OFFCURVE",
"297 470 OFFCURVE",
"271 409 CURVE SMOOTH",
"258 378 OFFCURVE",
"250 346 OFFCURVE",
"241 315 CURVE SMOOTH",
"236 299 OFFCURVE",
"236 281 OFFCURVE",
"229 265 CURVE",
"230 260 OFFCURVE",
"234 227 OFFCURVE",
"235 224 CURVE",
"245 210 OFFCURVE",
"353 269 OFFCURVE",
"371 279 CURVE",
"408 312 OFFCURVE",
"448 329 OFFCURVE",
"478 368 CURVE SMOOTH",
"489 382 OFFCURVE",
"496 399 OFFCURVE",
"508 414 CURVE SMOOTH",
"512 419 OFFCURVE",
"512 425 OFFCURVE",
"515 430 CURVE SMOOTH",
"529 453 OFFCURVE",
"541 496 OFFCURVE",
"552 519 CURVE SMOOTH",
"590 602 OFFCURVE",
"605 624 OFFCURVE",
"610 645 CURVE SMOOTH",
"612 654 OFFCURVE",
"617 655 OFFCURVE",
"623 661 CURVE",
"633 661 OFFCURVE",
"641 651 OFFCURVE",
"652 654 CURVE",
"669 648 OFFCURVE",
"678 636 OFFCURVE",
"673 618 CURVE SMOOTH",
"659 568 OFFCURVE",
"606 455 OFFCURVE",
"586 408 CURVE",
"587 393 OFFCURVE",
"571 382 OFFCURVE",
"573 367 CURVE",
"561 348 OFFCURVE",
"479 112 OFFCURVE",
"482 106 CURVE",
"478 102 OFFCURVE",
"473 97 OFFCURVE",
"477 91 CURVE",
"469 72 OFFCURVE",
"470 46 OFFCURVE",
"459 29 CURVE",
"457 27 OFFCURVE",
"458 24 OFFCURVE",
"460 22 CURVE",
"450 2 OFFCURVE",
"461 -38 OFFCURVE",
"433 -39 CURVE SMOOTH",
"412 -40 OFFCURVE",
"399 -26 OFFCURVE",
"392 -8 CURVE"
);
}
);
width = 539;
}
);
leftKerningGroup = "Che-cy";
rightKerningGroup = "Che-cy";
},
{
color = 7;
glyphname = "Tse-cy.ss02";
layers = (
{
background = {
components = (
{
name = H;
transform = "{1, 0, 0, 1, 20, 0}";
}
);
};
layerId = "5B238DC5-4F6F-4A74-B879-7A3E5189648B";
paths = (
{
closed = 1;
nodes = (
"136 201 OFFCURVE",
"281 543 OFFCURVE",
"277 558 CURVE",
"286 566 OFFCURVE",
"322 659 OFFCURVE",
"327 676 CURVE SMOOTH",
"330 687 OFFCURVE",
"334 697 OFFCURVE",
"344 702 CURVE",
"370 693 OFFCURVE",
"400 686 OFFCURVE",
"389 651 CURVE SMOOTH",
"385 641 OFFCURVE",
"381 631 OFFCURVE",
"376 622 CURVE",
"352 576 OFFCURVE",
"333 530 OFFCURVE",
"318 481 CURVE SMOOTH",
"307 446 OFFCURVE",
"293 413 OFFCURVE",
"280 379 CURVE SMOOTH",
"239 265 OFFCURVE",
"197 148 OFFCURVE",
"197 25 CURVE SMOOTH",
"197 7 OFFCURVE",
"254 13 OFFCURVE",
"265 18 CURVE",
"285 18 OFFCURVE",
"304 24 OFFCURVE",
"323 30 CURVE SMOOTH",
"384 49 OFFCURVE",
"418 65 OFFCURVE",
"481 72 CURVE",
"485 79 OFFCURVE",
"481 88 OFFCURVE",
"484 95 CURVE SMOOTH",
"486 100 OFFCURVE",
"495 145 OFFCURVE",
"495 148 CURVE",
"509 177 OFFCURVE",
"513 210 OFFCURVE",
"523 240 CURVE SMOOTH",
"549 319 OFFCURVE",
"575 384 OFFCURVE",
"601 463 CURVE SMOOTH",
"613 499 OFFCURVE",
"628 536 OFFCURVE",
"643 571 CURVE SMOOTH",
"646 578 OFFCURVE",
"648 584 OFFCURVE",
"645 591 CURVE SMOOTH",
"641 601 OFFCURVE",
"643 605 OFFCURVE",
"653 611 CURVE",
"668 619 OFFCURVE",
"671 646 OFFCURVE",
"674 662 CURVE SMOOTH",
"678 681 OFFCURVE",
"685 678 OFFCURVE",
"698 686 CURVE",
"720 679 OFFCURVE",
"722 676 OFFCURVE",
"738 660 CURVE",
"744 631 OFFCURVE",
"699 541 OFFCURVE",
"687 508 CURVE SMOOTH",
"654 418 OFFCURVE",
"621 341 OFFCURVE",
"594 249 CURVE SMOOTH",
"581 205 OFFCURVE",
"565 162 OFFCURVE",
"557 117 CURVE SMOOTH",
"555 105 OFFCURVE",
"551 94 OFFCURVE",
"547 82 CURVE",
"548 74 LINE",
"568 63 OFFCURVE",
"613 72 OFFCURVE",
"631 57 CURVE",
"637 42 OFFCURVE",
"645 39 OFFCURVE",
"644 20 CURVE SMOOTH",
"643 -22 OFFCURVE",
"642 -20 OFFCURVE",
"635 -60 CURVE SMOOTH",
"629 -95 OFFCURVE",
"607 -125 OFFCURVE",
"603 -160 CURVE SMOOTH",
"600 -185 OFFCURVE",
"589 -194 OFFCURVE",
"564 -188 CURVE SMOOTH",
"545 -184 OFFCURVE",
"530 -162 OFFCURVE",
"537 -143 CURVE SMOOTH",
"547 -114 OFFCURVE",
"592 -3 OFFCURVE",
"577 19 CURVE",
"517 19 OFFCURVE",
"480 19 OFFCURVE",
"421 5 CURVE SMOOTH",
"397 -1 OFFCURVE",
"375 -15 OFFCURVE",
"355 -25 CURVE SMOOTH",
"347 -29 OFFCURVE",
"332 -29 OFFCURVE",
"322 -32 CURVE SMOOTH",
"295 -40 OFFCURVE",
"263 -33 OFFCURVE",
"237 -43 CURVE SMOOTH",
"229 -46 OFFCURVE",
"190 -35 OFFCURVE",
"179 -32 CURVE",
"156 -27 OFFCURVE",
"131 3 OFFCURVE",
"132 27 CURVE SMOOTH",
"133 54 OFFCURVE",
"129 91 OFFCURVE",
"138 117 CURVE"
);
}
);
width = 650;
}
);
leftKerningGroup = "Tse-cy";
rightKerningGroup = "Tse-cy";
},
{
color = 7;
glyphname = "Shcha-cy.ss02";
layers = (
{
background = {
components = (
{
name = H;
transform = "{1, 0, 0, 1, -96, 0}";
}
);
};
layerId = "5B238DC5-4F6F-4A74-B879-7A3E5189648B";
paths = (
{
closed = 1;
nodes = (
"714 -160 OFFCURVE",
"736 -166 OFFCURVE",
"741 -147 CURVE SMOOTH",
"755 -94 OFFCURVE",
"770 -41 OFFCURVE",
"786 11 CURVE SMOOTH",
"793 34 OFFCURVE",
"793 60 OFFCURVE",
"797 84 CURVE",
"788 102 OFFCURVE",
"770 110 OFFCURVE",
"752 115 CURVE",
"739 112 OFFCURVE",
"726 122 OFFCURVE",
"714 112 CURVE",
"707 112 OFFCURVE",
"699 110 OFFCURVE",
"692 113 CURVE",
"695 128 OFFCURVE",
"699 187 OFFCURVE",
"706 197 CURVE",
"706 215 OFFCURVE",
"716 230 OFFCURVE",
"719 247 CURVE SMOOTH",
"725 281 OFFCURVE",
"742 311 OFFCURVE",
"751 344 CURVE SMOOTH",
"768 402 OFFCURVE",
"792 458 OFFCURVE",
"813 514 CURVE SMOOTH",
"820 532 OFFCURVE",
"848 600 OFFCURVE",
"850 612 CURVE",
"856 641 OFFCURVE",
"809 665 OFFCURVE",
"782 642 CURVE",
"785 622 OFFCURVE",
"761 576 OFFCURVE",
"755 553 CURVE SMOOTH",
"748 525 OFFCURVE",
"729 485 OFFCURVE",
"724 465 CURVE SMOOTH",
"717 435 OFFCURVE",
"701 407 OFFCURVE",
"695 377 CURVE SMOOTH",
"693 366 OFFCURVE",
"690 357 OFFCURVE",
"685 347 CURVE SMOOTH",
"673 322 OFFCURVE",
"629 176 OFFCURVE",
"631 156 CURVE SMOOTH",
"632 148 OFFCURVE",
"627 140 OFFCURVE",
"630 132 CURVE",
"634 124 OFFCURVE",
"643 121 OFFCURVE",
"646 113 CURVE",
"651 110 LINE",
"657 106 OFFCURVE",
"616 102 OFFCURVE",
"611 101 CURVE SMOOTH",
"585 96 OFFCURVE",
"559 94 OFFCURVE",
"533 89 CURVE SMOOTH",
"495 82 OFFCURVE",
"451 71 OFFCURVE",
"321 64 CURVE SMOOTH",
"305 63 OFFCURVE",
"289 69 OFFCURVE",
"273 70 CURVE SMOOTH",
"260 71 OFFCURVE",
"236 83 OFFCURVE",
"225 90 CURVE",
"207 116 OFFCURVE",
"200 145 OFFCURVE",
"208 176 CURVE SMOOTH",
"219 217 OFFCURVE",
"234 261 OFFCURVE",
"240 302 CURVE SMOOTH",
"244 330 OFFCURVE",
"254 361 OFFCURVE",
"264 386 CURVE SMOOTH",
"309 501 OFFCURVE",
"389 655 OFFCURVE",
"379 633 CURVE SMOOTH",
"388 651 OFFCURVE",
"389 668 OFFCURVE",
"378 685 CURVE",
"364 692 OFFCURVE",
"354 704 OFFCURVE",
"338 700 CURVE",
"326 689 OFFCURVE",
"327 690 OFFCURVE",
"323 676 CURVE SMOOTH",
"309 626 OFFCURVE",
"271 581 OFFCURVE",
"253 532 CURVE SMOOTH",
"239 494 OFFCURVE",
"215 441 OFFCURVE",
"203 402 CURVE SMOOTH",
"195 375 OFFCURVE",
"183 358 OFFCURVE",
"180 330 CURVE SMOOTH",
"179 321 OFFCURVE",
"176 313 OFFCURVE",
"173 305 CURVE",
"162 300 OFFCURVE",
"172 290 OFFCURVE",
"169 282 CURVE SMOOTH",
"152 236 OFFCURVE",
"125 139 OFFCURVE",
"156 95 CURVE SMOOTH",
"174 69 OFFCURVE",
"196 42 OFFCURVE",
"227 31 CURVE SMOOTH",
"271 15 OFFCURVE",
"311 11 OFFCURVE",
"358 11 CURVE",
"418 14 OFFCURVE",
"442 15 OFFCURVE",
"541 34 CURVE",
"560 30 OFFCURVE",
"708 71 OFFCURVE",
"723 56 CURVE",
"724 43 OFFCURVE",
"718 39 OFFCURVE",
"718 32 CURVE SMOOTH",
"718 18 OFFCURVE",
"712 5 OFFCURVE",
"709 -9 CURVE SMOOTH",
"698 -62 OFFCURVE",
"681 -87 OFFCURVE",
"684 -145 CURVE",
"698 -160 LINE"
);
},
{
closed = 1;
nodes = (
"425 92 OFFCURVE",
"435 93 OFFCURVE",
"441 99 CURVE",
"448 105 OFFCURVE",
"453 115 OFFCURVE",
"455 124 CURVE SMOOTH",
"466 175 OFFCURVE",
"474 226 OFFCURVE",
"489 276 CURVE SMOOTH",
"510 345 OFFCURVE",
"534 412 OFFCURVE",
"561 479 CURVE SMOOTH",
"570 501 OFFCURVE",
"613 605 OFFCURVE",
"615 622 CURVE SMOOTH",
"616 630 OFFCURVE",
"611 640 OFFCURVE",
"608 648 CURVE",
"589 658 OFFCURVE",
"563 679 OFFCURVE",
"552 648 CURVE SMOOTH",
"545 628 OFFCURVE",
"483 456 OFFCURVE",
"483 450 CURVE",
"477 440 OFFCURVE",
"437 322 OFFCURVE",
"436 311 CURVE",
"425 296 OFFCURVE",
"381 133 OFFCURVE",
"386 120 CURVE SMOOTH",
"390 110 OFFCURVE",
"409 101 OFFCURVE",
"418 96 CURVE SMOOTH"
);
}
);
width = 819;
}
);
leftKerningGroup = "Shcha-cy";
rightKerningGroup = "Shcha-cy";
},
{
color = 7;
glyphname = "Softsign-cy.ss02";
layers = (
{
layerId = "5B238DC5-4F6F-4A74-B879-7A3E5189648B";
paths = (
{
closed = 1;
nodes = (
"471 278 CURVE SMOOTH",
"471 358 OFFCURVE",
"405 419 OFFCURVE",
"294 444 CURVE",
"285 428 OFFCURVE",
"232 270 OFFCURVE",
"232 259 CURVE SMOOTH",
"232 247 OFFCURVE",
"225 238 OFFCURVE",
"222 227 CURVE SMOOTH",
"213 192 OFFCURVE",
"205 155 OFFCURVE",
"198 119 CURVE SMOOTH",
"194 97 OFFCURVE",
"194 76 OFFCURVE",
"194 54 CURVE",
"210 50 OFFCURVE",
"233 53 OFFCURVE",
"278 72 CURVE",
"397 91 OFFCURVE",
"471 190 OFFCURVE"
);
},
{
closed = 1;
nodes = (
"319 504 OFFCURVE",
"327 505 OFFCURVE",
"332 504 CURVE SMOOTH",
"337 503 OFFCURVE",
"342 497 OFFCURVE",
"346 495 CURVE",
"410 459 OFFCURVE",
"450 443 OFFCURVE",
"496 379 CURVE SMOOTH",
"510 359 OFFCURVE",
"525 323 OFFCURVE",
"530 299 CURVE SMOOTH",
"532 290 OFFCURVE",
"529 283 OFFCURVE",
"532 274 CURVE SMOOTH",
"537 259 OFFCURVE",
"531 236 OFFCURVE",
"526 222 CURVE SMOOTH",
"514 186 OFFCURVE",
"505 163 OFFCURVE",
"480 134 CURVE SMOOTH",
"407 49 OFFCURVE",
"349 31 OFFCURVE",
"247 -4 CURVE SMOOTH",
"229 -10 OFFCURVE",
"209 -11 OFFCURVE",
"190 -10 CURVE SMOOTH",
"176 -9 OFFCURVE",
"166 0 OFFCURVE",
"155 7 CURVE SMOOTH",
"139 17 OFFCURVE",
"129 28 OFFCURVE",
"127 48 CURVE SMOOTH",
"120 110 OFFCURVE",
"143 190 OFFCURVE",
"161 250 CURVE SMOOTH",
"166 267 OFFCURVE",
"170 285 OFFCURVE",
"175 302 CURVE SMOOTH",
"189 345 OFFCURVE",
"208 387 OFFCURVE",
"216 432 CURVE SMOOTH",
"221 455 OFFCURVE",
"289 632 OFFCURVE",
"300 647 CURVE",
"301 664 OFFCURVE",
"308 680 OFFCURVE",
"311 697 CURVE SMOOTH",
"320 741 OFFCURVE",
"391 708 OFFCURVE",
"378 671 CURVE SMOOTH",
"366 639 OFFCURVE",
"356 602 OFFCURVE",
"338 573 CURVE",
"333 549 OFFCURVE",
"322 527 OFFCURVE",
"314 504 CURVE"
);
}
);
width = 480;
}
);
leftKerningGroup = "Softsign-cy";
rightKerningGroup = "Soft-cy";
},
{
color = 7;
glyphname = "Iu-cy.ss02";
layers = (
{
background = {
components = (
{
name = O;
transform = "{1, 0, 0, 1, 241, 0}";
}
);
};
layerId = "5B238DC5-4F6F-4A74-B879-7A3E5189648B";
paths = (
{
closed = 1;
nodes = (
"542 -49 OFFCURVE",
"633 7 OFFCURVE",
"660 50 CURVE SMOOTH",
"701 116 OFFCURVE",
"727 149 OFFCURVE",
"759 223 CURVE SMOOTH",
"774 258 OFFCURVE",
"800 345 OFFCURVE",
"800 382 CURVE SMOOTH",
"800 386 OFFCURVE",
"800 390 OFFCURVE",
"801 393 CURVE SMOOTH",
"808 413 OFFCURVE",
"808 469 OFFCURVE",
"800 489 CURVE",
"801 512 OFFCURVE",
"794 534 OFFCURVE",
"788 556 CURVE SMOOTH",
"774 608 OFFCURVE",
"744 634 OFFCURVE",
"693 648 CURVE",
"682 646 OFFCURVE",
"674 657 OFFCURVE",
"662 652 CURVE SMOOTH",
"642 644 OFFCURVE",
"605 629 OFFCURVE",
"589 616 CURVE",
"583 612 OFFCURVE",
"560 578 OFFCURVE",
"556 570 CURVE SMOOTH",
"553 564 OFFCURVE",
"558 556 OFFCURVE",
"551 552 CURVE",
"526 512 OFFCURVE",
"501 471 OFFCURVE",
"482 428 CURVE SMOOTH",
"479 421 OFFCURVE",
"475 414 OFFCURVE",
"471 407 CURVE",
"438 404 OFFCURVE",
"373 366 OFFCURVE",
"333 344 CURVE",
"321 341 OFFCURVE",
"282 319 OFFCURVE",
"277 325 CURVE",
"279 342 OFFCURVE",
"366 576 OFFCURVE",
"382 602 CURVE SMOOTH",
"390 615 OFFCURVE",
"392 634 OFFCURVE",
"390 649 CURVE SMOOTH",
"388 664 OFFCURVE",
"358 672 OFFCURVE",
"345 671 CURVE SMOOTH",
"334 670 OFFCURVE",
"330 668 OFFCURVE",
"326 657 CURVE",
"315 622 OFFCURVE",
"236 420 OFFCURVE",
"235 402 CURVE",
"231 397 OFFCURVE",
"191 280 OFFCURVE",
"183 263 CURVE",
"170 251 OFFCURVE",
"148 238 OFFCURVE",
"142 203 CURVE SMOOTH",
"134 159 OFFCURVE",
"124 7 OFFCURVE",
"123 6 CURVE",
"126 -27 OFFCURVE",
"139 -34 OFFCURVE",
"165 -36 CURVE",
"197 -14 OFFCURVE",
"198 43 OFFCURVE",
"200 78 CURVE",
"210 91 OFFCURVE",
"203 107 OFFCURVE",
"212 120 CURVE",
"213 135 OFFCURVE",
"238 222 OFFCURVE",
"247 229 CURVE SMOOTH",
"269 246 OFFCURVE",
"294 261 OFFCURVE",
"319 271 CURVE SMOOTH",
"354 285 OFFCURVE",
"425 344 OFFCURVE",
"446 342 CURVE",
"434 303 OFFCURVE",
"404 219 OFFCURVE",
"407 181 CURVE",
"396 162 OFFCURVE",
"402 84 OFFCURVE",
"392 69 CURVE",
"387 27 OFFCURVE",
"393 -27 OFFCURVE",
"438 -44 CURVE SMOOTH",
"456 -51 OFFCURVE",
"472 -49 OFFCURVE",
"491 -49 CURVE SMOOTH"
);
},
{
closed = 1;
nodes = (
"465 16 OFFCURVE",
"461 54 OFFCURVE",
"465 59 CURVE",
"464 86 OFFCURVE",
"473 112 OFFCURVE",
"472 139 CURVE SMOOTH",
"471 169 OFFCURVE",
"487 232 OFFCURVE",
"499 260 CURVE",
"499 302 OFFCURVE",
"572 458 OFFCURVE",
"598 492 CURVE SMOOTH",
"618 518 OFFCURVE",
"640 552 OFFCURVE",
"652 582 CURVE",
"665 590 OFFCURVE",
"677 594 OFFCURVE",
"686 594 CURVE SMOOTH",
"744 594 OFFCURVE",
"743 466 OFFCURVE",
"741 422 CURVE",
"741 412 OFFCURVE",
"737 404 OFFCURVE",
"736 394 CURVE SMOOTH",
"735 384 OFFCURVE",
"736 375 OFFCURVE",
"731 366 CURVE",
"724 314 OFFCURVE",
"696 236 OFFCURVE",
"668 191 CURVE SMOOTH",
"663 183 OFFCURVE",
"632 132 OFFCURVE",
"631 128 CURVE SMOOTH",
"628 117 OFFCURVE",
"603 106 OFFCURVE",
"602 87 CURVE",
"591 78 OFFCURVE",
"583 65 OFFCURVE",
"572 56 CURVE SMOOTH",
"546 35 OFFCURVE",
"503 3 OFFCURVE",
"468 10 CURVE"
);
}
);
width = 715;
}
);
leftKerningGroup = "Iu-cy";
rightKerningGroup = "Iu-cy";
},
{
color = 7;
glyphname = "Ia-cy.ss02";
layers = (
{
layerId = "5B238DC5-4F6F-4A74-B879-7A3E5189648B";
paths = (
{
closed = 1;
nodes = (
"564 614 OFFCURVE",
"548 622 OFFCURVE",
"534 615 CURVE",
"529 619 OFFCURVE",
"453 606 OFFCURVE",
"439 606 CURVE",
"425 597 OFFCURVE",
"409 596 OFFCURVE",
"394 589 CURVE SMOOTH",
"367 577 OFFCURVE",
"345 560 OFFCURVE",
"330 534 CURVE SMOOTH",
"304 490 OFFCURVE",
"294 462 OFFCURVE",
"296 410 CURVE SMOOTH",
"297 394 OFFCURVE",
"304 377 OFFCURVE",
"313 363 CURVE SMOOTH",
"352 302 OFFCURVE",
"396 302 OFFCURVE",
"451 344 CURVE SMOOTH",
"465 355 OFFCURVE",
"469 340 OFFCURVE",
"479 345 CURVE",
"506 426 OFFCURVE",
"536 539 OFFCURVE",
"578 611 CURVE"
);
},
{
closed = 1;
nodes = (
"441 255 OFFCURVE",
"408 240 OFFCURVE",
"398 233 CURVE SMOOTH",
"388 226 OFFCURVE",
"380 216 OFFCURVE",
"368 211 CURVE SMOOTH",
"363 209 OFFCURVE",
"358 205 OFFCURVE",
"354 201 CURVE SMOOTH",
"335 181 OFFCURVE",
"312 166 OFFCURVE",
"293 146 CURVE SMOOTH",
"241 94 OFFCURVE",
"184 36 OFFCURVE",
"155 -32 CURVE SMOOTH",
"152 -39 OFFCURVE",
"153 -46 OFFCURVE",
"151 -53 CURVE",
"146 -55 OFFCURVE",
"142 -58 OFFCURVE",
"137 -60 CURVE",
"117 -57 OFFCURVE",
"95 -47 OFFCURVE",
"89 -25 CURVE SMOOTH",
"81 6 OFFCURVE",
"128 62 OFFCURVE",
"149 83 CURVE SMOOTH",
"167 101 OFFCURVE",
"180 125 OFFCURVE",
"198 143 CURVE SMOOTH",
"237 183 OFFCURVE",
"290 241 OFFCURVE",
"338 269 CURVE",
"341 274 LINE",
"332 285 OFFCURVE",
"310 290 OFFCURVE",
"299 301 CURVE SMOOTH",
"289 311 OFFCURVE",
"278 320 OFFCURVE",
"269 331 CURVE SMOOTH",
"219 390 OFFCURVE",
"223 473 OFFCURVE",
"254 541 CURVE SMOOTH",
"264 562 OFFCURVE",
"282 579 OFFCURVE",
"293 600 CURVE",
"326 628 OFFCURVE",
"349 644 OFFCURVE",
"392 655 CURVE SMOOTH",
"407 659 OFFCURVE",
"425 660 OFFCURVE",
"439 665 CURVE SMOOTH",
"447 668 OFFCURVE",
"455 667 OFFCURVE",
"463 669 CURVE SMOOTH",
"482 674 OFFCURVE",
"501 670 OFFCURVE",
"520 675 CURVE",
"543 667 OFFCURVE",
"573 676 OFFCURVE",
"593 666 CURVE",
"612 681 OFFCURVE",
"610 679 OFFCURVE",
"630 668 CURVE SMOOTH",
"639 663 OFFCURVE",
"635 677 OFFCURVE",
"657 652 CURVE",
"659 644 OFFCURVE",
"660 635 OFFCURVE",
"662 627 CURVE",
"603 513 OFFCURVE",
"566 411 OFFCURVE",
"529 289 CURVE SMOOTH",
"514 238 OFFCURVE",
"508 185 OFFCURVE",
"493 135 CURVE",
"495 121 OFFCURVE",
"470 -12 OFFCURVE",
"463 -17 CURVE SMOOTH",
"460 -19 OFFCURVE",
"458 -20 OFFCURVE",
"456 -17 CURVE",
"433 -17 OFFCURVE",
"409 -15 OFFCURVE",
"402 11 CURVE",
"413 44 OFFCURVE",
"418 81 OFFCURVE",
"424 115 CURVE SMOOTH",
"426 126 OFFCURVE",
"426 140 OFFCURVE",
"429 151 CURVE SMOOTH",
"430 155 OFFCURVE",
"433 158 OFFCURVE",
"434 162 CURVE",
"444 193 OFFCURVE",
"449 231 OFFCURVE",
"455 263 CURVE"
);
}
);
width = 532;
}
);
leftKerningGroup = "Ia-cy";
rightKerningGroup = "Ia-cy";
},
{
color = 9;
glyphname = "be-cy.ss01";
layers = (
{
layerId = "5B238DC5-4F6F-4A74-B879-7A3E5189648B";
paths = (
{
closed = 1;
nodes = (
"253 340 OFFCURVE",
"234 311 OFFCURVE",
"224 301 CURVE SMOOTH",
"190 267 OFFCURVE",
"157 174 OFFCURVE",
"151 126 CURVE SMOOTH",
"148 101 OFFCURVE",
"148 98 OFFCURVE",
"154 73 CURVE",
"174 55 LINE",
"212 102 OFFCURVE",
"215 123 OFFCURVE",
"244 169 CURVE",
"246 179 OFFCURVE",
"250 192 OFFCURVE",
"254 201 CURVE SMOOTH",
"269 235 OFFCURVE",
"285 323 OFFCURVE",
"255 353 CURVE"
);
},
{
closed = 1;
nodes = (
"422 560 OFFCURVE",
"420 537 OFFCURVE",
"411 531 CURVE",
"405 532 OFFCURVE",
"398 531 OFFCURVE",
"392 534 CURVE SMOOTH",
"372 544 OFFCURVE",
"308 552 OFFCURVE",
"288 542 CURVE SMOOTH",
"278 537 OFFCURVE",
"259 538 OFFCURVE",
"252 531 CURVE",
"263 509 OFFCURVE",
"289 475 OFFCURVE",
"301 453 CURVE",
"303 448 OFFCURVE",
"300 442 OFFCURVE",
"305 438 CURVE",
"312 419 OFFCURVE",
"320 399 OFFCURVE",
"320 378 CURVE",
"326 364 OFFCURVE",
"336 315 OFFCURVE",
"330 302 CURVE",
"336 283 OFFCURVE",
"327 273 OFFCURVE",
"324 256 CURVE",
"323 248 LINE",
"323 221 OFFCURVE",
"320 210 OFFCURVE",
"309 185 CURVE",
"288 122 LINE",
"282 123 LINE",
"272 95 OFFCURVE",
"217 -13 OFFCURVE",
"179 2 CURVE",
"161 0 OFFCURVE",
"146 8 OFFCURVE",
"131 17 CURVE SMOOTH",
"28 78 OFFCURVE",
"141 342 OFFCURVE",
"224 391 CURVE",
"239 393 OFFCURVE",
"248 393 OFFCURVE",
"263 390 CURVE",
"270 413 OFFCURVE",
"231 483 OFFCURVE",
"217 502 CURVE SMOOTH",
"208 514 OFFCURVE",
"196 525 OFFCURVE",
"188 537 CURVE",
"182 547 OFFCURVE",
"183 562 OFFCURVE",
"196 566 CURVE",
"215 573 OFFCURVE",
"232 582 OFFCURVE",
"251 589 CURVE SMOOTH",
"262 593 OFFCURVE",
"320 605 OFFCURVE",
"332 606 CURVE",
"348 608 OFFCURVE",
"364 606 OFFCURVE",
"380 605 CURVE SMOOTH",
"409 603 OFFCURVE",
"410 591 OFFCURVE",
"425 570 CURVE"
);
}
);
width = 270;
}
);
},
{
color = 9;
glyphname = "ve-cy.ss01";
layers = (
{
layerId = "5B238DC5-4F6F-4A74-B879-7A3E5189648B";
paths = (
{
closed = 1;
nodes = (
"189 11 LINE",
"219 19 OFFCURVE",
"241 16 OFFCURVE",
"264 43 CURVE SMOOTH",
"269 49 OFFCURVE",
"277 53 OFFCURVE",
"281 60 CURVE",
"291 80 OFFCURVE",
"303 93 OFFCURVE",
"303 115 CURVE SMOOTH",
"303 121 OFFCURVE",
"306 120 OFFCURVE",
"307 125 CURVE",
"310 141 OFFCURVE",
"313 167 OFFCURVE",
"311 183 CURVE SMOOTH",
"309 199 OFFCURVE",
"309 214 OFFCURVE",
"307 231 CURVE SMOOTH",
"306 239 OFFCURVE",
"307 247 OFFCURVE",
"307 254 CURVE",
"306 281 OFFCURVE",
"286 295 OFFCURVE",
"263 302 CURVE",
"352 375 OFFCURVE",
"378 396 OFFCURVE",
"428 501 CURVE",
"430 518 OFFCURVE",
"441 533 OFFCURVE",
"439 550 CURVE",
"446 562 OFFCURVE",
"444 579 OFFCURVE",
"444 592 CURVE SMOOTH",
"444 608 OFFCURVE",
"418 630 OFFCURVE",
"405 638 CURVE",
"379 637 OFFCURVE",
"367 637 OFFCURVE",
"345 623 CURVE SMOOTH",
"311 602 OFFCURVE",
"265 548 OFFCURVE",
"248 513 CURVE",
"242 502 OFFCURVE",
"238 492 OFFCURVE",
"230 482 CURVE",
"216 463 OFFCURVE",
"202 430 OFFCURVE",
"195 407 CURVE SMOOTH",
"187 381 OFFCURVE",
"176 351 OFFCURVE",
"163 327 CURVE",
"160 326 OFFCURVE",
"156 323 OFFCURVE",
"152 322 CURVE",
"145 325 LINE",
"129 317 OFFCURVE",
"128 305 OFFCURVE",
"126 290 CURVE",
"132 284 OFFCURVE",
"139 279 OFFCURVE",
"145 273 CURVE",
"149 251 OFFCURVE",
"118 156 OFFCURVE",
"130 140 CURVE",
"129 133 LINE",
"121 125 OFFCURVE",
"135 115 OFFCURVE",
"126 108 CURVE",
"133 100 OFFCURVE",
"130 91 OFFCURVE",
"131 82 CURVE SMOOTH",
"133 62 OFFCURVE",
"153 44 OFFCURVE",
"157 25 CURVE",
"178 19 OFFCURVE",
"170 23 OFFCURVE",
"187 9 CURVE"
);
},
{
closed = 1;
nodes = (
"173 102 OFFCURVE",
"189 242 OFFCURVE",
"202 268 CURVE",
"212 284 OFFCURVE",
"217 289 OFFCURVE",
"228 294 CURVE",
"242 280 OFFCURVE",
"245 261 OFFCURVE",
"251 246 CURVE",
"248 240 OFFCURVE",
"252 233 OFFCURVE",
"252 227 CURVE SMOOTH",
"252 167 OFFCURVE",
"258 118 OFFCURVE",
"211 72 CURVE",
"198 72 LINE"
);
},
{
closed = 1;
nodes = (
"254 430 OFFCURVE",
"290 495 OFFCURVE",
"335 545 CURVE SMOOTH",
"350 562 OFFCURVE",
"364 578 OFFCURVE",
"378 596 CURVE",
"385 599 LINE",
"389 569 OFFCURVE",
"358 472 OFFCURVE",
"334 453 CURVE",
"331 446 OFFCURVE",
"301 404 OFFCURVE",
"295 401 CURVE",
"245 360 LINE",
"234 366 LINE"
);
}
);
width = 288;
}
);
},
{
color = 9;
glyphname = "ge-cy.ss01";
layers = (
{
background = {
components = (
{
name = m;
transform = "{1, 0, 0, 1, 13, 0}";
}
);
};
layerId = "5B238DC5-4F6F-4A74-B879-7A3E5189648B";
paths = (
{
closed = 1;
nodes = (
"188 378 OFFCURVE",
"224 398 OFFCURVE",
"250 392 CURVE",
"255 398 OFFCURVE",
"284 390 OFFCURVE",
"290 397 CURVE",
"302 393 OFFCURVE",
"355 396 OFFCURVE",
"372 394 CURVE",
"390 383 OFFCURVE",
"391 381 OFFCURVE",
"404 362 CURVE",
"402 347 OFFCURVE",
"394 340 OFFCURVE",
"380 339 CURVE SMOOTH",
"367 339 OFFCURVE",
"358 340 OFFCURVE",
"345 339 CURVE SMOOTH",
"314 338 OFFCURVE",
"256 336 OFFCURVE",
"226 331 CURVE",
"224 316 OFFCURVE",
"224 301 OFFCURVE",
"218 286 CURVE SMOOTH",
"211 264 OFFCURVE",
"199 203 OFFCURVE",
"189 186 CURVE",
"182 176 OFFCURVE",
"183 164 OFFCURVE",
"179 154 CURVE",
"168 124 OFFCURVE",
"155 23 OFFCURVE",
"143 6 CURVE",
"127 1 OFFCURVE",
"114 3 OFFCURVE",
"102 14 CURVE",
"95 19 OFFCURVE",
"85 24 OFFCURVE",
"83 32 CURVE",
"82 34 OFFCURVE",
"94 81 OFFCURVE",
"96 84 CURVE",
"118 130 OFFCURVE",
"129 176 OFFCURVE",
"137 224 CURVE",
"138 229 LINE SMOOTH",
"144 265 OFFCURVE",
"160 342 OFFCURVE",
"161 343 CURVE",
"164 350 OFFCURVE",
"167 356 OFFCURVE",
"168 363 CURVE"
);
}
);
width = 280;
}
);
leftKerningGroup = "ge-cy";
rightKerningGroup = "ge-cy";
},
{
color = 9;
glyphname = "de-cy.ss01";
layers = (
{
background = {
paths = (
{
closed = 1;
nodes = (
"197 13 OFFCURVE",
"217 23 OFFCURVE",
"245 42 CURVE SMOOTH",
"282 67 OFFCURVE",
"308 82 OFFCURVE",
"341 130 CURVE SMOOTH",
"393 206 OFFCURVE",
"397 254 OFFCURVE",
"393 294 CURVE SMOOTH",
"389 330 OFFCURVE",
"376 346 OFFCURVE",
"346 359 CURVE SMOOTH",
"319 371 OFFCURVE",
"321 377 OFFCURVE",
"292 370 CURVE SMOOTH",
"262 363 OFFCURVE",
"240 352 OFFCURVE",
"207 324 CURVE SMOOTH",
"183 303 OFFCURVE",
"148 258 OFFCURVE",
"136 238 CURVE SMOOTH",
"117 206 OFFCURVE",
"100 162 OFFCURVE",
"103 152 CURVE SMOOTH",
"105 146 OFFCURVE",
"104 141 OFFCURVE",
"99 141 CURVE SMOOTH",
"93 141 OFFCURVE",
"91 136 OFFCURVE",
"98 129 CURVE SMOOTH",
"98 129 OFFCURVE",
"100 117 OFFCURVE",
"96 106 CURVE SMOOTH",
"88 84 OFFCURVE",
"101 59 OFFCURVE",
"128 32 CURVE SMOOTH",
"141 19 OFFCURVE",
"149 13 OFFCURVE",
"167 13 CURVE SMOOTH"
);
},
{
closed = 1;
nodes = (
"179 24 OFFCURVE",
"130 66 OFFCURVE",
"161 139 CURVE SMOOTH",
"189 205 OFFCURVE",
"220 255 OFFCURVE",
"260 291 CURVE SMOOTH",
"286 314 OFFCURVE",
"310 315 OFFCURVE",
"326 306 CURVE SMOOTH",
"337 300 OFFCURVE",
"336 252 OFFCURVE",
"329 231 CURVE SMOOTH",
"312 181 OFFCURVE",
"295 155 OFFCURVE",
"263 119 CURVE SMOOTH"
);
}
);
};
layerId = "5B238DC5-4F6F-4A74-B879-7A3E5189648B";
paths = (
{
closed = 1;
nodes = (
"169 8 CURVE",
"199 9 OFFCURVE",
"224 15 OFFCURVE",
"246 34 CURVE SMOOTH",
"263 48 OFFCURVE",
"284 66 OFFCURVE",
"295 84 CURVE SMOOTH",
"350 175 OFFCURVE",
"380 258 OFFCURVE",
"396 363 CURVE SMOOTH",
"398 376 OFFCURVE",
"399 388 OFFCURVE",
"396 401 CURVE",
"395 406 OFFCURVE",
"384 486 OFFCURVE",
"384 480 CURVE",
"376 496 OFFCURVE",
"368 514 OFFCURVE",
"360 531 CURVE SMOOTH",
"339 575 OFFCURVE",
"302 603 OFFCURVE",
"256 613 CURVE SMOOTH",
"252 614 OFFCURVE",
"248 614 OFFCURVE",
"244 617 CURVE",
"239 619 OFFCURVE",
"206 624 OFFCURVE",
"196 618 CURVE",
"181 623 OFFCURVE",
"178 611 OFFCURVE",
"164 616 CURVE",
"143 601 OFFCURVE",
"128 598 OFFCURVE",
"123 591 CURVE SMOOTH",
"118 586 OFFCURVE",
"122 578 OFFCURVE",
"137 557 CURVE",
"146 550 OFFCURVE",
"156 551 OFFCURVE",
"173 553 CURVE",
"186 564 OFFCURVE",
"203 564 OFFCURVE",
"218 566 CURVE SMOOTH",
"257 571 OFFCURVE",
"319 532 OFFCURVE",
"314 494 CURVE",
"324 482 OFFCURVE",
"322 456 OFFCURVE",
"330 447 CURVE",
"330 447 OFFCURVE",
"336 421 OFFCURVE",
"332 411 CURVE",
"332 410 OFFCURVE",
"337 375 OFFCURVE",
"337 367 CURVE",
"301 377 OFFCURVE",
"301 374 OFFCURVE",
"262 363 CURVE SMOOTH",
"225 353 OFFCURVE",
"219 340 OFFCURVE",
"190 320 CURVE",
"182 316 OFFCURVE",
"183 307 OFFCURVE",
"175 300 CURVE",
"165 294 OFFCURVE",
"159 282 OFFCURVE",
"150 274 CURVE SMOOTH",
"136 261 OFFCURVE",
"113 214 OFFCURVE",
"107 195 CURVE SMOOTH",
"99 171 OFFCURVE",
"98 146 OFFCURVE",
"94 116 CURVE",
"101 111 OFFCURVE",
"100 83 OFFCURVE",
"102 76 CURVE SMOOTH",
"111 52 OFFCURVE",
"112 52 OFFCURVE"
);
},
{
closed = 1;
nodes = (
"167 62 OFFCURVE",
"171 58 OFFCURVE",
"154 72 CURVE",
"148 92 OFFCURVE",
"147 107 OFFCURVE",
"154 120 CURVE",
"156 148 OFFCURVE",
"172 171 OFFCURVE",
"176 199 CURVE",
"212 268 OFFCURVE",
"252 302 OFFCURVE",
"320 325 CURVE",
"329 306 OFFCURVE",
"318 264 OFFCURVE",
"305 239 CURVE",
"297 227 OFFCURVE",
"293 212 OFFCURVE",
"288 198 CURVE SMOOTH",
"272 159 OFFCURVE",
"229 93 OFFCURVE",
"204 74 CURVE",
"199 62 OFFCURVE",
"187 63 OFFCURVE",
"179 57 CURVE"
);
}
);
width = 318;
}
);
},
{
color = 9;
glyphname = "zhe-cy.ss01";
layers = (
{
background = {
paths = (
{
closed = 1;
nodes = (
"75 -8 OFFCURVE",
"87 -7 OFFCURVE",
"94 2 CURVE",
"111 27 OFFCURVE",
"133 48 OFFCURVE",
"155 68 CURVE",
"207 120 OFFCURVE",
"221 127 OFFCURVE",
"252 158 CURVE",
"266 161 OFFCURVE",
"273 163 OFFCURVE",
"281 163 CURVE",
"274 131 OFFCURVE",
"258 103 OFFCURVE",
"245 76 CURVE",
"245 60 OFFCURVE",
"247 43 OFFCURVE",
"272 26 CURVE",
"299 27 LINE",
"311 39 OFFCURVE",
"314 43 OFFCURVE",
"312 63 CURVE",
"308 63 OFFCURVE",
"327 104 OFFCURVE",
"335 129 CURVE",
"343 147 OFFCURVE",
"347 153 OFFCURVE",
"355 162 CURVE",
"366 129 OFFCURVE",
"372 119 OFFCURVE",
"391 95 CURVE",
"401 68 OFFCURVE",
"464 4 OFFCURVE",
"498 -1 CURVE",
"510 3 OFFCURVE",
"529 3 OFFCURVE",
"518 21 CURVE",
"509 31 OFFCURVE",
"462 69 OFFCURVE",
"441 106 CURVE",
"427 129 OFFCURVE",
"423 133 OFFCURVE",
"423 151 CURVE",
"428 155 OFFCURVE",
"470 189 OFFCURVE",
"497 211 CURVE",
"496 211 OFFCURVE",
"602 303 OFFCURVE",
"603 303 CURVE",
"607 307 OFFCURVE",
"609 312 OFFCURVE",
"608 319 CURVE",
"605 333 OFFCURVE",
"589 350 OFFCURVE",
"574 360 CURVE",
"559 357 OFFCURVE",
"559 356 OFFCURVE",
"547 345 CURVE",
"525 322 OFFCURVE",
"467 266 OFFCURVE",
"440 246 CURVE",
"425 234 OFFCURVE",
"393 212 OFFCURVE",
"367 195 CURVE",
"357 197 LINE",
"357 195 OFFCURVE",
"388 330 OFFCURVE",
"389 333 CURVE",
"395 357 OFFCURVE",
"372 378 OFFCURVE",
"352 391 CURVE",
"343 398 OFFCURVE",
"333 394 OFFCURVE",
"331 385 CURVE",
"329 381 OFFCURVE",
"327 374 OFFCURVE",
"328 368 CURVE SMOOTH",
"330 356 OFFCURVE",
"327 345 OFFCURVE",
"325 335 CURVE SMOOTH",
"319 307 OFFCURVE",
"307 257 OFFCURVE",
"298 213 CURVE",
"274 252 OFFCURVE",
"263 264 OFFCURVE",
"233 312 CURVE",
"225 333 OFFCURVE",
"211 355 OFFCURVE",
"196 369 CURVE",
"177 378 OFFCURVE",
"155 378 OFFCURVE",
"149 360 CURVE",
"163 336 OFFCURVE",
"175 313 OFFCURVE",
"189 292 CURVE",
"208 269 OFFCURVE",
"220 241 OFFCURVE",
"234 220 CURVE",
"221 207 OFFCURVE",
"189 183 OFFCURVE",
"178 172 CURVE",
"175 171 OFFCURVE",
"133 137 OFFCURVE",
"128 132 CURVE SMOOTH",
"104 108 OFFCURVE",
"52 62 OFFCURVE",
"45 57 CURVE",
"35 52 OFFCURVE",
"30 43 OFFCURVE",
"30 33 CURVE",
"39 19 OFFCURVE",
"49 4 OFFCURVE",
"52 -1 CURVE"
);
}
);
};
layerId = "5B238DC5-4F6F-4A74-B879-7A3E5189648B";
paths = (
{
closed = 1;
nodes = (
"329 130 OFFCURVE",
"315 87 OFFCURVE",
"310 54 CURVE SMOOTH",
"307 34 OFFCURVE",
"294 23 OFFCURVE",
"276 16 CURVE",
"264 24 OFFCURVE",
"254 32 OFFCURVE",
"244 41 CURVE SMOOTH",
"228 56 OFFCURVE",
"284 168 OFFCURVE",
"275 183 CURVE",
"256 164 OFFCURVE",
"164 75 OFFCURVE",
"148 66 CURVE",
"134 46 OFFCURVE",
"100 11 OFFCURVE",
"81 -4 CURVE",
"77 -3 OFFCURVE",
"72 -3 OFFCURVE",
"68 -3 CURVE",
"62 9 OFFCURVE",
"47 15 OFFCURVE",
"41 26 CURVE SMOOTH",
"29 48 OFFCURVE",
"59 57 OFFCURVE",
"67 77 CURVE",
"88 86 OFFCURVE",
"215 195 OFFCURVE",
"235 220 CURVE",
"230 224 LINE",
"218 254 OFFCURVE",
"179 299 OFFCURVE",
"163 327 CURVE SMOOTH",
"155 341 OFFCURVE",
"152 355 OFFCURVE",
"145 368 CURVE",
"148 373 OFFCURVE",
"151 378 OFFCURVE",
"153 384 CURVE",
"179 385 OFFCURVE",
"192 375 OFFCURVE",
"212 359 CURVE SMOOTH",
"222 351 OFFCURVE",
"271 250 OFFCURVE",
"297 243 CURVE",
"310 279 OFFCURVE",
"326 350 OFFCURVE",
"330 388 CURVE",
"335 394 OFFCURVE",
"340 399 OFFCURVE",
"345 404 CURVE",
"363 399 OFFCURVE",
"373 387 OFFCURVE",
"389 378 CURVE",
"389 325 OFFCURVE",
"367 264 OFFCURVE",
"356 214 CURVE",
"357 209 LINE",
"402 230 OFFCURVE",
"461 285 OFFCURVE",
"502 315 CURVE",
"515 335 OFFCURVE",
"538 350 OFFCURVE",
"552 370 CURVE",
"569 370 LINE",
"575 365 OFFCURVE",
"588 355 OFFCURVE",
"597 341 CURVE",
"596 331 OFFCURVE",
"594 324 OFFCURVE",
"587 317 CURVE SMOOTH",
"554 284 OFFCURVE",
"518 255 OFFCURVE",
"473 221 CURVE SMOOTH",
"450 204 OFFCURVE",
"426 191 OFFCURVE",
"406 171 CURVE",
"442 146 OFFCURVE",
"501 94 OFFCURVE",
"527 59 CURVE SMOOTH",
"554 23 OFFCURVE",
"499 -1 OFFCURVE",
"478 20 CURVE SMOOTH",
"463 35 OFFCURVE",
"451 52 OFFCURVE",
"436 67 CURVE SMOOTH",
"408 95 OFFCURVE",
"376 132 OFFCURVE",
"346 157 CURVE",
"344 159 OFFCURVE",
"342 160 OFFCURVE",
"340 161 CURVE"
);
}
);
width = 511;
}
);
leftKerningGroup = "zhe-cy";
rightKerningGroup = "zhe-cy";
},
{
color = 9;
glyphname = "ze-cy.ss01";
layers = (
{
background = {
components = (
{
name = j;
transform = "{1, 0, 0, 1, 51, -137}";
}
);
};
layerId = "5B238DC5-4F6F-4A74-B879-7A3E5189648B";
paths = (
{
closed = 1;
nodes = (
"187 39 OFFCURVE",
"183 71 OFFCURVE",
"183 74 CURVE",
"174 86 OFFCURVE",
"170 101 OFFCURVE",
"159 113 CURVE",
"158 139 LINE",
"162 142 OFFCURVE",
"164 146 OFFCURVE",
"169 148 CURVE",
"228 170 OFFCURVE",
"284 215 OFFCURVE",
"302 277 CURVE SMOOTH",
"306 291 OFFCURVE",
"308 306 OFFCURVE",
"304 321 CURVE",
"299 325 OFFCURVE",
"293 326 OFFCURVE",
"287 324 CURVE",
"211 302 OFFCURVE",
"208 256 OFFCURVE",
"164 212 CURVE",
"149 225 OFFCURVE",
"139 207 OFFCURVE",
"122 247 CURVE",
"134 260 OFFCURVE",
"135 279 OFFCURVE",
"145 291 CURVE SMOOTH",
"166 316 OFFCURVE",
"180 337 OFFCURVE",
"209 356 CURVE SMOOTH",
"254 385 OFFCURVE",
"314 398 OFFCURVE",
"351 351 CURVE SMOOTH",
"386 307 OFFCURVE",
"367 238 OFFCURVE",
"329 189 CURVE SMOOTH",
"302 154 OFFCURVE",
"268 137 OFFCURVE",
"234 111 CURVE",
"243 75 OFFCURVE",
"256 38 OFFCURVE",
"253 0 CURVE SMOOTH",
"246 -94 OFFCURVE",
"208 -235 OFFCURVE",
"132 -294 CURVE SMOOTH",
"110 -311 OFFCURVE",
"82 -317 OFFCURVE",
"60 -319 CURVE",
"49 -313 OFFCURVE",
"35 -315 OFFCURVE",
"24 -310 CURVE SMOOTH",
"5 -301 OFFCURVE",
"-23 -282 OFFCURVE",
"-30 -262 CURVE SMOOTH",
"-31 -259 OFFCURVE",
"-31 -256 OFFCURVE",
"-32 -254 CURVE SMOOTH",
"-34 -250 OFFCURVE",
"-39 -247 OFFCURVE",
"-40 -243 CURVE",
"-45 -231 OFFCURVE",
"-41 -218 OFFCURVE",
"-47 -206 CURVE",
"-42 -197 OFFCURVE",
"-39 -187 OFFCURVE",
"-34 -178 CURVE",
"-16 -175 LINE",
"13 -174 OFFCURVE",
"-14 -265 OFFCURVE",
"51 -268 CURVE SMOOTH",
"100 -270 OFFCURVE",
"131 -211 OFFCURVE",
"146 -162 CURVE SMOOTH",
"154 -136 OFFCURVE",
"174 -108 OFFCURVE",
"174 -79 CURVE SMOOTH",
"174 -67 OFFCURVE",
"183 -51 OFFCURVE",
"184 -37 CURVE SMOOTH",
"186 -13 OFFCURVE",
"196 15 OFFCURVE",
"187 39 CURVE"
);
}
);
width = 309;
}
);
leftKerningGroup = "ze-cy";
rightKerningGroup = "ze-cy";
},
{
color = 9;
glyphname = "ii-cy.ss01";
layers = (
{
layerId = "5B238DC5-4F6F-4A74-B879-7A3E5189648B";
paths = (
{
closed = 1;
nodes = (
"390 348 OFFCURVE",
"400 340 OFFCURVE",
"409 331 CURVE",
"424 280 OFFCURVE",
"325 143 OFFCURVE",
"387 71 CURVE",
"429 89 OFFCURVE",
"435 105 OFFCURVE",
"470 126 CURVE",
"483 118 OFFCURVE",
"490 88 OFFCURVE",
"490 73 CURVE",
"485 69 OFFCURVE",
"480 66 OFFCURVE",
"477 61 CURVE",
"464 35 OFFCURVE",
"409 2 OFFCURVE",
"380 12 CURVE SMOOTH",
"336 28 OFFCURVE",
"312 80 OFFCURVE",
"306 123 CURVE",
"298 125 OFFCURVE",
"220 20 OFFCURVE",
"169 25 CURVE",
"158 32 OFFCURVE",
"146 41 OFFCURVE",
"136 50 CURVE",
"131 55 OFFCURVE",
"127 60 OFFCURVE",
"125 67 CURVE",
"103 127 OFFCURVE",
"115 161 OFFCURVE",
"134 220 CURVE",
"137 228 OFFCURVE",
"175 361 OFFCURVE",
"187 371 CURVE",
"191 371 OFFCURVE",
"196 372 OFFCURVE",
"200 372 CURVE SMOOTH",
"207 372 OFFCURVE",
"211 371 OFFCURVE",
"215 365 CURVE SMOOTH",
"220 357 OFFCURVE",
"231 355 OFFCURVE",
"235 348 CURVE SMOOTH",
"249 323 OFFCURVE",
"157 163 OFFCURVE",
"179 95 CURVE",
"188 95 OFFCURVE",
"208 118 OFFCURVE",
"218 125 CURVE",
"237 137 OFFCURVE",
"286 193 OFFCURVE",
"299 213 CURVE SMOOTH",
"310 230 OFFCURVE",
"348 312 OFFCURVE",
"346 332 CURVE SMOOTH",
"345 345 OFFCURVE",
"349 351 OFFCURVE",
"360 358 CURVE",
"367 358 OFFCURVE",
"375 358 OFFCURVE",
"382 357 CURVE"
);
}
);
width = 444;
}
);
leftKerningGroup = "ii-cy";
rightKerningGroup = "ii-cy";
},
{
color = 9;
glyphname = "el-cy.ss01";
layers = (
{
background = {
paths = (
{
closed = 1;
nodes = (
"260 58 OFFCURVE",
"261 68 OFFCURVE",
"264 81 CURVE",
"270 106 OFFCURVE",
"276 130 OFFCURVE",
"280 155 CURVE",
"281 161 OFFCURVE",
"282 165 OFFCURVE",
"283 170 CURVE",
"296 204 OFFCURVE",
"302 241 OFFCURVE",
"308 278 CURVE",
"309 290 OFFCURVE",
"310 301 OFFCURVE",
"306 314 CURVE",
"301 316 OFFCURVE",
"297 319 OFFCURVE",
"292 321 CURVE",
"282 319 OFFCURVE",
"272 317 OFFCURVE",
"261 315 CURVE",
"257 311 OFFCURVE",
"253 305 OFFCURVE",
"252 298 CURVE",
"249 283 OFFCURVE",
"244 269 OFFCURVE",
"238 256 CURVE",
"237 253 OFFCURVE",
"236 250 OFFCURVE",
"235 247 CURVE",
"229 220 OFFCURVE",
"220 194 OFFCURVE",
"204 171 CURVE",
"201 165 OFFCURVE",
"197 160 OFFCURVE",
"195 154 CURVE",
"188 130 OFFCURVE",
"172 112 OFFCURVE",
"161 91 CURVE",
"158 87 OFFCURVE",
"153 84 OFFCURVE",
"149 79 CURVE",
"143 74 OFFCURVE",
"139 66 OFFCURVE",
"133 62 CURVE",
"124 58 OFFCURVE",
"125 50 OFFCURVE",
"120 46 CURVE",
"111 38 OFFCURVE",
"101 30 OFFCURVE",
"92 23 CURVE",
"88 19 OFFCURVE",
"84 19 OFFCURVE",
"78 19 CURVE",
"67 19 OFFCURVE",
"57 19 OFFCURVE",
"51 19 CURVE",
"39 22 OFFCURVE",
"36 29 OFFCURVE",
"31 35 CURVE",
"26 39 OFFCURVE",
"22 44 OFFCURVE",
"17 48 CURVE",
"17 58 OFFCURVE",
"23 60 OFFCURVE",
"26 66 CURVE",
"30 71 OFFCURVE",
"36 71 OFFCURVE",
"42 72 CURVE",
"46 72 OFFCURVE",
"50 74 OFFCURVE",
"53 77 CURVE",
"75 94 OFFCURVE",
"98 110 OFFCURVE",
"114 134 CURVE",
"132 161 OFFCURVE",
"148 190 OFFCURVE",
"162 219 CURVE",
"171 239 OFFCURVE",
"181 259 OFFCURVE",
"187 280 CURVE",
"189 285 OFFCURVE",
"192 292 OFFCURVE",
"195 298 CURVE",
"183 301 OFFCURVE",
"173 304 OFFCURVE",
"164 307 CURVE",
"158 316 OFFCURVE",
"153 323 OFFCURVE",
"148 331 CURVE",
"148 335 OFFCURVE",
"150 340 OFFCURVE",
"150 343 CURVE",
"150 353 OFFCURVE",
"155 357 OFFCURVE",
"164 359 CURVE",
"183 363 OFFCURVE",
"201 368 OFFCURVE",
"220 372 CURVE",
"224 373 OFFCURVE",
"229 374 OFFCURVE",
"232 374 CURVE",
"240 375 OFFCURVE",
"250 372 OFFCURVE",
"256 376 CURVE",
"261 378 OFFCURVE",
"269 375 OFFCURVE",
"275 379 CURVE",
"280 381 OFFCURVE",
"289 378 OFFCURVE",
"298 377 CURVE",
"317 374 OFFCURVE",
"317 374 OFFCURVE",
"328 370 CURVE",
"340 365 OFFCURVE",
"348 356 OFFCURVE",
"355 346 CURVE",
"366 332 OFFCURVE",
"368 317 OFFCURVE",
"376 302 CURVE",
"377 299 OFFCURVE",
"373 294 OFFCURVE",
"374 290 CURVE",
"377 282 OFFCURVE",
"371 274 OFFCURVE",
"376 265 CURVE",
"372 251 OFFCURVE",
"368 235 OFFCURVE",
"366 220 CURVE",
"358 187 OFFCURVE",
"348 155 OFFCURVE",
"341 122 CURVE",
"338 101 OFFCURVE",
"330 81 OFFCURVE",
"328 59 CURVE",
"326 41 OFFCURVE",
"310 36 OFFCURVE",
"297 29 CURVE",
"294 28 OFFCURVE",
"289 29 OFFCURVE",
"287 30 CURVE",
"282 31 OFFCURVE",
"278 33 OFFCURVE",
"273 35 CURVE",
"270 37 OFFCURVE",
"268 39 OFFCURVE",
"264 42 CURVE"
);
}
);
};
layerId = "5B238DC5-4F6F-4A74-B879-7A3E5189648B";
paths = (
{
closed = 1;
nodes = (
"152 308 OFFCURVE",
"152 308 OFFCURVE",
"130 329 CURVE",
"129 347 OFFCURVE",
"132 354 OFFCURVE",
"152 360 CURVE",
"160 362 OFFCURVE",
"168 365 OFFCURVE",
"176 365 CURVE",
"190 366 OFFCURVE",
"205 366 OFFCURVE",
"221 365 CURVE",
"231 364 OFFCURVE",
"242 361 OFFCURVE",
"253 358 CURVE",
"265 354 OFFCURVE",
"277 347 OFFCURVE",
"289 343 CURVE",
"298 341 OFFCURVE",
"306 335 OFFCURVE",
"315 329 CURVE",
"339 314 OFFCURVE",
"353 291 OFFCURVE",
"353 265 CURVE",
"353 245 OFFCURVE",
"350 225 OFFCURVE",
"344 207 CURVE",
"337 181 OFFCURVE",
"330 156 OFFCURVE",
"322 131 CURVE",
"317 114 OFFCURVE",
"311 98 OFFCURVE",
"308 81 CURVE",
"305 66 OFFCURVE",
"304 50 OFFCURVE",
"302 33 CURVE",
"297 31 OFFCURVE",
"292 30 OFFCURVE",
"286 28 CURVE",
"271 33 OFFCURVE",
"253 36 OFFCURVE",
"246 57 CURVE",
"246 60 OFFCURVE",
"247 63 OFFCURVE",
"247 68 CURVE",
"247 71 OFFCURVE",
"247 75 OFFCURVE",
"247 80 CURVE",
"249 104 OFFCURVE",
"255 127 OFFCURVE",
"263 150 CURVE",
"273 176 OFFCURVE",
"279 202 OFFCURVE",
"286 228 CURVE",
"290 240 OFFCURVE",
"292 253 OFFCURVE",
"293 265 CURVE",
"294 273 OFFCURVE",
"292 281 OFFCURVE",
"288 290 CURVE",
"275 301 OFFCURVE",
"260 306 OFFCURVE",
"243 309 CURVE",
"241 303 OFFCURVE",
"239 299 OFFCURVE",
"236 294 CURVE",
"235 291 OFFCURVE",
"235 285 OFFCURVE",
"233 284 CURVE",
"225 278 OFFCURVE",
"224 269 OFFCURVE",
"223 260 CURVE",
"222 253 OFFCURVE",
"219 246 OFFCURVE",
"215 240 CURVE",
"210 234 OFFCURVE",
"209 225 OFFCURVE",
"208 216 CURVE",
"205 196 OFFCURVE",
"199 178 OFFCURVE",
"188 156 CURVE",
"181 146 OFFCURVE",
"176 137 OFFCURVE",
"171 126 CURVE",
"169 120 OFFCURVE",
"165 116 OFFCURVE",
"162 110 CURVE",
"155 96 OFFCURVE",
"147 82 OFFCURVE",
"137 71 CURVE",
"120 53 OFFCURVE",
"104 33 OFFCURVE",
"82 19 CURVE",
"73 24 OFFCURVE",
"63 24 OFFCURVE",
"52 26 CURVE",
"43 35 OFFCURVE",
"37 45 OFFCURVE",
"34 58 CURVE",
"32 66 OFFCURVE",
"38 72 OFFCURVE",
"42 78 CURVE",
"46 78 OFFCURVE",
"51 77 OFFCURVE",
"57 77 CURVE",
"79 94 OFFCURVE",
"97 115 OFFCURVE",
"114 138 CURVE",
"133 163 OFFCURVE",
"147 188 OFFCURVE",
"157 218 CURVE",
"161 230 OFFCURVE",
"161 243 OFFCURVE",
"166 254 CURVE",
"174 270 OFFCURVE",
"177 287 OFFCURVE",
"183 303 CURVE"
);
}
);
width = 307;
}
);
leftKerningGroup = "el-cy";
},
{
color = 9;
glyphname = "em-cy.ss01";
layers = (
{
background = {
components = (
{
name = a;
transform = "{1, 0, 0, 1, 180, 0}";
}
);
};
layerId = "5B238DC5-4F6F-4A74-B879-7A3E5189648B";
paths = (
{
closed = 1;
nodes = (
"314 296 LINE",
"285 251 OFFCURVE",
"249 214 OFFCURVE",
"217 171 CURVE SMOOTH",
"196 143 OFFCURVE",
"179 100 OFFCURVE",
"152 76 CURVE SMOOTH",
"142 67 OFFCURVE",
"135 54 OFFCURVE",
"123 46 CURVE",
"113 11 OFFCURVE",
"36 48 OFFCURVE",
"62 79 CURVE",
"65 86 LINE",
"103 101 OFFCURVE",
"144 169 OFFCURVE",
"174 201 CURVE SMOOTH",
"192 220 OFFCURVE",
"200 241 OFFCURVE",
"216 261 CURVE SMOOTH",
"246 298 OFFCURVE",
"277 350 OFFCURVE",
"309 382 CURVE",
"318 377 OFFCURVE",
"328 372 OFFCURVE",
"340 372 CURVE",
"346 364 OFFCURVE",
"352 357 OFFCURVE",
"360 350 CURVE SMOOTH",
"404 312 OFFCURVE",
"375 203 OFFCURVE",
"368 152 CURVE",
"369 149 LINE",
"398 174 OFFCURVE",
"419 211 OFFCURVE",
"444 240 CURVE SMOOTH",
"548 361 OFFCURVE",
"515 315 OFFCURVE",
"583 381 CURVE",
"613 381 LINE",
"623 374 OFFCURVE",
"626 372 OFFCURVE",
"638 369 CURVE",
"639 362 OFFCURVE",
"645 345 OFFCURVE",
"643 339 CURVE SMOOTH",
"640 330 OFFCURVE",
"642 320 OFFCURVE",
"636 311 CURVE SMOOTH",
"620 286 OFFCURVE",
"607 201 OFFCURVE",
"605 180 CURVE",
"600 155 OFFCURVE",
"593 150 OFFCURVE",
"591 141 CURVE",
"588 131 OFFCURVE",
"592 120 OFFCURVE",
"587 109 CURVE",
"586 107 OFFCURVE",
"585 107 OFFCURVE",
"585 107 CURVE",
"585 94 OFFCURVE",
"587 79 OFFCURVE",
"581 68 CURVE",
"584 58 OFFCURVE",
"580 47 OFFCURVE",
"584 37 CURVE",
"579 31 OFFCURVE",
"574 25 OFFCURVE",
"570 20 CURVE",
"555 17 OFFCURVE",
"540 18 OFFCURVE",
"527 27 CURVE",
"522 38 OFFCURVE",
"511 53 OFFCURVE",
"516 64 CURVE",
"523 80 OFFCURVE",
"520 115 OFFCURVE",
"529 135 CURVE",
"530 137 OFFCURVE",
"531 139 OFFCURVE",
"531 142 CURVE",
"532 155 OFFCURVE",
"540 180 OFFCURVE",
"543 192 CURVE SMOOTH",
"544 196 OFFCURVE",
"552 250 OFFCURVE",
"552 265 CURVE SMOOTH",
"552 272 OFFCURVE",
"560 275 OFFCURVE",
"555 283 CURVE",
"522 252 OFFCURVE",
"461 182 OFFCURVE",
"438 144 CURVE SMOOTH",
"435 139 OFFCURVE",
"431 135 OFFCURVE",
"428 131 CURVE SMOOTH",
"422 123 OFFCURVE",
"413 118 OFFCURVE",
"409 107 CURVE",
"386 84 OFFCURVE",
"377 65 OFFCURVE",
"352 44 CURVE",
"335 40 OFFCURVE",
"322 50 OFFCURVE",
"307 55 CURVE",
"297 76 LINE",
"303 121 OFFCURVE",
"322 213 OFFCURVE",
"319 250 CURVE",
"318 256 OFFCURVE",
"317 259 OFFCURVE",
"321 265 CURVE",
"322 272 LINE",
"315 278 OFFCURVE",
"324 285 OFFCURVE",
"320 292 CURVE"
);
}
);
width = 582;
}
);
leftKerningGroup = "em-cy";
},
{
color = 9;
glyphname = "en-cy.ss01";
layers = (
{
background = {
components = (
{
name = n;
transform = "{1, 0, 0, 1, -5, 0}";
}
);
};
layerId = "5B238DC5-4F6F-4A74-B879-7A3E5189648B";
paths = (
{
closed = 1;
nodes = (
"332 14 OFFCURVE",
"321 18 OFFCURVE",
"308 21 CURVE",
"282 59 OFFCURVE",
"329 136 OFFCURVE",
"333 177 CURVE",
"331 182 OFFCURVE",
"328 178 OFFCURVE",
"328 176 CURVE",
"318 165 OFFCURVE",
"298 162 OFFCURVE",
"284 160 CURVE SMOOTH",
"258 156 OFFCURVE",
"233 151 OFFCURVE",
"209 144 CURVE",
"196 154 LINE",
"177 154 OFFCURVE",
"170 69 OFFCURVE",
"161 51 CURVE",
"139 48 OFFCURVE",
"137 49 OFFCURVE",
"115 56 CURVE",
"104 71 OFFCURVE",
"105 83 OFFCURVE",
"109 99 CURVE SMOOTH",
"116 129 OFFCURVE",
"118 143 OFFCURVE",
"130 172 CURVE SMOOTH",
"136 187 OFFCURVE",
"144 200 OFFCURVE",
"144 217 CURVE",
"154 230 OFFCURVE",
"156 247 OFFCURVE",
"162 263 CURVE SMOOTH",
"194 344 OFFCURVE",
"204 363 OFFCURVE",
"206 386 CURVE SMOOTH",
"209 419 OFFCURVE",
"276 386 OFFCURVE",
"262 351 CURVE SMOOTH",
"253 329 OFFCURVE",
"224 245 OFFCURVE",
"214 224 CURVE",
"212 219 OFFCURVE",
"207 217 OFFCURVE",
"207 210 CURVE",
"216 203 OFFCURVE",
"245 207 OFFCURVE",
"254 212 CURVE",
"313 212 LINE",
"323 206 OFFCURVE",
"331 196 OFFCURVE",
"336 185 CURVE",
"349 222 OFFCURVE",
"386 312 OFFCURVE",
"391 345 CURVE",
"393 357 OFFCURVE",
"402 366 OFFCURVE",
"412 372 CURVE",
"431 363 OFFCURVE",
"452 362 OFFCURVE",
"457 337 CURVE",
"456 325 OFFCURVE",
"451 314 OFFCURVE",
"447 303 CURVE SMOOTH",
"426 245 OFFCURVE",
"387 165 OFFCURVE",
"377 103 CURVE SMOOTH",
"376 97 OFFCURVE",
"359 34 OFFCURVE",
"358 33 CURVE",
"358 23 OFFCURVE",
"352 16 OFFCURVE",
"344 11 CURVE"
);
}
);
width = 401;
}
);
leftKerningGroup = "en-cy";
rightKerningGroup = "en-cy";
},
{
color = 9;
glyphname = "pe-cy.ss01";
layers = (
{
background = {
components = (
{
name = n.ss02;
transform = "{1, 0, 0, 1, 7, 0}";
}
);
};
layerId = "5B238DC5-4F6F-4A74-B879-7A3E5189648B";
paths = (
{
closed = 1;
nodes = (
"119 51 OFFCURVE",
"118 58 OFFCURVE",
"107 72 CURVE",
"118 121 OFFCURVE",
"130 172 OFFCURVE",
"136 180 CURVE SMOOTH",
"142 188 OFFCURVE",
"142 214 OFFCURVE",
"151 236 CURVE",
"150 250 OFFCURVE",
"157 263 OFFCURVE",
"162 276 CURVE SMOOTH",
"171 300 OFFCURVE",
"170 327 OFFCURVE",
"176 352 CURVE",
"191 362 OFFCURVE",
"194 362 OFFCURVE",
"212 364 CURVE",
"216 377 LINE",
"237 392 OFFCURVE",
"278 390 OFFCURVE",
"301 381 CURVE SMOOTH",
"306 379 OFFCURVE",
"307 380 OFFCURVE",
"312 379 CURVE",
"332 377 OFFCURVE",
"368 358 OFFCURVE",
"383 344 CURVE SMOOTH",
"451 280 OFFCURVE",
"403 177 OFFCURVE",
"390 129 CURVE SMOOTH",
"383 103 OFFCURVE",
"386 91 OFFCURVE",
"401 72 CURVE",
"399 65 OFFCURVE",
"390 48 OFFCURVE",
"379 48 CURVE SMOOTH",
"369 48 OFFCURVE",
"365 40 OFFCURVE",
"356 37 CURVE",
"330 42 OFFCURVE",
"310 69 OFFCURVE",
"319 96 CURVE SMOOTH",
"326 118 OFFCURVE",
"332 140 OFFCURVE",
"335 162 CURVE SMOOTH",
"338 186 OFFCURVE",
"387 277 OFFCURVE",
"348 302 CURVE SMOOTH",
"323 318 OFFCURVE",
"297 318 OFFCURVE",
"269 324 CURVE",
"266 325 OFFCURVE",
"247 322 OFFCURVE",
"236 324 CURVE",
"232 309 OFFCURVE",
"228 295 OFFCURVE",
"225 280 CURVE",
"220 264 OFFCURVE",
"212 241 OFFCURVE",
"207 221 CURVE SMOOTH",
"195 171 OFFCURVE",
"195 172 OFFCURVE",
"180 123 CURVE SMOOTH",
"176 110 OFFCURVE",
"175 98 OFFCURVE",
"168 86 CURVE",
"165 80 OFFCURVE",
"166 79 OFFCURVE",
"166 72 CURVE SMOOTH",
"166 63 OFFCURVE",
"161 55 OFFCURVE",
"154 50 CURVE SMOOTH",
"148 46 OFFCURVE",
"140 44 OFFCURVE",
"133 40 CURVE"
);
}
);
width = 415;
}
);
leftKerningGroup = "pe-cy";
},
{
color = 9;
glyphname = "ef-cy.ss01";
layers = (
{
background = {
components = (
{
name = k;
transform = "{1, 0, 0, 1, 104, -174}";
}
);
};
layerId = "5B238DC5-4F6F-4A74-B879-7A3E5189648B";
paths = (
{
closed = 1;
nodes = (
"328 286 OFFCURVE",
"321 275 OFFCURVE",
"316 278 CURVE SMOOTH",
"309 282 OFFCURVE",
"309 292 OFFCURVE",
"298 284 CURVE",
"294 289 OFFCURVE",
"291 290 OFFCURVE",
"283 290 CURVE SMOOTH",
"270 290 OFFCURVE",
"241 274 OFFCURVE",
"229 268 CURVE",
"207 256 OFFCURVE",
"189 223 OFFCURVE",
"181 200 CURVE SMOOTH",
"173 177 OFFCURVE",
"181 176 OFFCURVE",
"181 155 CURVE",
"196 135 OFFCURVE",
"237 107 OFFCURVE",
"263 111 CURVE",
"273 117 OFFCURVE",
"275 127 OFFCURVE",
"278 137 CURVE SMOOTH",
"289 174 OFFCURVE",
"328 247 OFFCURVE",
"334 278 CURVE"
);
},
{
closed = 1;
nodes = (
"374 231 OFFCURVE",
"353 170 OFFCURVE",
"327 106 CURVE SMOOTH",
"381 104 OFFCURVE",
"511 161 OFFCURVE",
"508 229 CURVE SMOOTH",
"506 268 OFFCURVE",
"449 293 OFFCURVE",
"403 283 CURVE"
);
},
{
closed = 1;
nodes = (
"299 27 OFFCURVE",
"290 15 OFFCURVE",
"290 -2 CURVE",
"275 -29 OFFCURVE",
"269 -60 OFFCURVE",
"258 -88 CURVE",
"256 -95 OFFCURVE",
"257 -99 OFFCURVE",
"255 -106 CURVE",
"259 -101 OFFCURVE",
"248 -165 OFFCURVE",
"222 -181 CURVE",
"201 -177 OFFCURVE",
"188 -170 OFFCURVE",
"183 -147 CURVE",
"210 -71 OFFCURVE",
"219 -26 OFFCURVE",
"243 50 CURVE",
"216 69 OFFCURVE",
"174 75 OFFCURVE",
"153 103 CURVE SMOOTH",
"139 121 LINE SMOOTH",
"111 157 OFFCURVE",
"114 193 OFFCURVE",
"128 233 CURVE SMOOTH",
"137 258 OFFCURVE",
"143 275 OFFCURVE",
"163 294 CURVE SMOOTH",
"220 348 OFFCURVE",
"284 363 OFFCURVE",
"359 337 CURVE",
"370 349 OFFCURVE",
"374 365 OFFCURVE",
"378 380 CURVE SMOOTH",
"385 407 OFFCURVE",
"403 438 OFFCURVE",
"412 467 CURVE SMOOTH",
"415 477 OFFCURVE",
"411 478 OFFCURVE",
"419 485 CURVE",
"426 488 OFFCURVE",
"429 491 OFFCURVE",
"437 493 CURVE",
"464 479 OFFCURVE",
"462 468 OFFCURVE",
"465 451 CURVE",
"465 423 OFFCURVE",
"445 386 OFFCURVE",
"434 350 CURVE",
"450 343 OFFCURVE",
"465 342 OFFCURVE",
"479 336 CURVE SMOOTH",
"509 323 OFFCURVE",
"565 267 OFFCURVE",
"561 232 CURVE",
"581 200 OFFCURVE",
"547 145 OFFCURVE",
"523 124 CURVE",
"506 118 OFFCURVE",
"495 103 OFFCURVE",
"480 95 CURVE",
"437 74 LINE SMOOTH",
"413 62 OFFCURVE",
"377 47 OFFCURVE",
"351 47 CURVE SMOOTH",
"336 47 OFFCURVE",
"319 45 OFFCURVE",
"305 40 CURVE"
);
}
);
width = 517;
}
);
},
{
color = 9;
glyphname = "che-cy.ss01";
layers = (
{
background = {
paths = (
{
closed = 1;
nodes = (
"102 -3 OFFCURVE",
"115 4 OFFCURVE",
"117 33 CURVE SMOOTH",
"118 51 OFFCURVE",
"123 68 OFFCURVE",
"125 86 CURVE",
"125 108 OFFCURVE",
"140 139 OFFCURVE",
"142 152 CURVE",
"148 155 LINE",
"160 150 OFFCURVE",
"202 148 OFFCURVE",
"213 153 CURVE",
"210 151 OFFCURVE",
"277 166 OFFCURVE",
"288 161 CURVE",
"282 127 OFFCURVE",
"279 114 OFFCURVE",
"272 94 CURVE",
"267 78 OFFCURVE",
"266 67 OFFCURVE",
"267 59 CURVE",
"275 52 OFFCURVE",
"279 51 OFFCURVE",
"306 41 CURVE",
"309 42 OFFCURVE",
"319 48 OFFCURVE",
"322 59 CURVE SMOOTH",
"329 83 OFFCURVE",
"345 156 OFFCURVE",
"347 162 CURVE",
"348 167 OFFCURVE",
"355 172 OFFCURVE",
"359 172 CURVE",
"369 173 OFFCURVE",
"373 181 OFFCURVE",
"389 184 CURVE",
"390 200 OFFCURVE",
"388 215 OFFCURVE",
"367 215 CURVE",
"367 218 LINE",
"362 205 OFFCURVE",
"418 338 OFFCURVE",
"414 321 CURVE",
"425 352 OFFCURVE",
"387 371 OFFCURVE",
"359 355 CURVE",
"355 346 OFFCURVE",
"349 326 OFFCURVE",
"348 324 CURVE",
"326 287 OFFCURVE",
"318 253 OFFCURVE",
"303 213 CURVE",
"301 215 OFFCURVE",
"234 213 OFFCURVE",
"225 211 CURVE",
"212 211 OFFCURVE",
"179 200 OFFCURVE",
"166 208 CURVE",
"166 216 LINE",
"218 343 LINE",
"220 347 OFFCURVE",
"220 354 OFFCURVE",
"221 362 CURVE",
"220 378 OFFCURVE",
"203 391 OFFCURVE",
"181 390 CURVE",
"173 390 OFFCURVE",
"168 387 OFFCURVE",
"165 379 CURVE",
"164 377 OFFCURVE",
"144 315 OFFCURVE",
"139 304 CURVE",
"144 319 OFFCURVE",
"112 231 OFFCURVE",
"119 247 CURVE",
"105 219 OFFCURVE",
"96 187 OFFCURVE",
"85 157 CURVE SMOOTH",
"79 141 OFFCURVE",
"76 124 OFFCURVE",
"71 106 CURVE",
"55 29 LINE",
"62 22 OFFCURVE",
"67 17 OFFCURVE",
"74 13 CURVE SMOOTH"
);
}
);
};
layerId = "5B238DC5-4F6F-4A74-B879-7A3E5189648B";
paths = (
{
closed = 1;
nodes = (
"418 322 CURVE",
"416 351 OFFCURVE",
"381 383 OFFCURVE",
"356 350 CURVE",
"350 343 OFFCURVE",
"346 325 OFFCURVE",
"341 316 CURVE",
"324 290 OFFCURVE",
"191 186 OFFCURVE",
"164 183 CURVE",
"163 215 OFFCURVE",
"179 256 OFFCURVE",
"189 286 CURVE SMOOTH",
"197 309 OFFCURVE",
"215 326 OFFCURVE",
"222 347 CURVE",
"212 377 OFFCURVE",
"197 398 OFFCURVE",
"173 386 CURVE",
"147 327 OFFCURVE",
"67 197 OFFCURVE",
"126 139 CURVE",
"136 128 OFFCURVE",
"143 126 OFFCURVE",
"158 126 CURVE SMOOTH",
"176 126 LINE",
"224 154 OFFCURVE",
"263 180 OFFCURVE",
"300 221 CURVE",
"303 218 LINE",
"282 175 OFFCURVE",
"242 62 OFFCURVE",
"302 36 CURVE",
"322 13 OFFCURVE",
"364 39 OFFCURVE",
"371 61 CURVE",
"372 66 OFFCURVE",
"371 72 OFFCURVE",
"371 76 CURVE",
"372 86 OFFCURVE",
"380 116 OFFCURVE",
"355 104 CURVE SMOOTH",
"349 101 OFFCURVE",
"342 96 OFFCURVE",
"334 91 CURVE",
"321 149 OFFCURVE",
"390 279 OFFCURVE"
);
}
);
width = 366;
}
);
leftKerningGroup = "che-cy";
rightKerningGroup = "che-cy";
},
{
color = 9;
glyphname = "tse-cy.ss01";
layers = (
{
background = {
components = (
{
name = "en-cy";
transform = "{1, 0, 0, 1, -16, 0}";
}
);
};
layerId = "5B238DC5-4F6F-4A74-B879-7A3E5189648B";
paths = (
{
closed = 1;
nodes = (
"164 78 OFFCURVE",
"244 97 OFFCURVE",
"261 106 CURVE",
"268 141 OFFCURVE",
"298 194 OFFCURVE",
"298 222 CURVE SMOOTH",
"298 232 OFFCURVE",
"328 289 OFFCURVE",
"331 306 CURVE SMOOTH",
"334 324 OFFCURVE",
"339 339 OFFCURVE",
"345 357 CURVE",
"350 360 OFFCURVE",
"358 362 OFFCURVE",
"362 366 CURVE",
"402 364 OFFCURVE",
"410 345 OFFCURVE",
"410 322 CURVE",
"387 273 OFFCURVE",
"356 200 OFFCURVE",
"334 116 CURVE",
"363 113 OFFCURVE",
"362 127 OFFCURVE",
"390 131 CURVE",
"397 125 OFFCURVE",
"405 118 OFFCURVE",
"411 110 CURVE SMOOTH",
"443 68 OFFCURVE",
"391 20 OFFCURVE",
"395 -2 CURVE SMOOTH",
"396 -7 OFFCURVE",
"369 -76 OFFCURVE",
"361 -84 CURVE SMOOTH",
"349 -95 OFFCURVE",
"324 -99 OFFCURVE",
"310 -87 CURVE",
"304 -69 OFFCURVE",
"310 -58 OFFCURVE",
"318 -42 CURVE SMOOTH",
"326 -26 OFFCURVE",
"357 43 OFFCURVE",
"355 54 CURVE",
"319 52 OFFCURVE",
"247 37 OFFCURVE",
"212 28 CURVE SMOOTH",
"201 25 OFFCURVE",
"188 27 OFFCURVE",
"177 25 CURVE SMOOTH",
"145 19 OFFCURVE",
"128 20 OFFCURVE",
"98 35 CURVE",
"80 63 OFFCURVE",
"78 77 OFFCURVE",
"88 110 CURVE SMOOTH",
"111 187 OFFCURVE",
"156 287 OFFCURVE",
"176 362 CURVE SMOOTH",
"179 373 OFFCURVE",
"189 379 OFFCURVE",
"200 374 CURVE SMOOTH",
"217 366 OFFCURVE",
"234 355 OFFCURVE",
"236 334 CURVE",
"231 323 OFFCURVE",
"214 266 OFFCURVE",
"207 252 CURVE",
"182 196 OFFCURVE",
"152 146 OFFCURVE",
"146 81 CURVE"
);
}
);
width = 382;
}
);
},
{
color = 9;
glyphname = "sha-cy.ss01";
layers = (
{
background = {
components = (
{
name = "en-cy";
transform = "{1, 0, 0, 1, -7, 0}";
}
);
};
layerId = "5B238DC5-4F6F-4A74-B879-7A3E5189648B";
paths = (
{
closed = 1;
nodes = (
"525 323 OFFCURVE",
"533 326 OFFCURVE",
"539 330 CURVE",
"554 323 OFFCURVE",
"566 313 OFFCURVE",
"575 299 CURVE",
"577 274 LINE",
"566 255 OFFCURVE",
"558 236 OFFCURVE",
"552 214 CURVE SMOOTH",
"541 175 OFFCURVE",
"516 106 OFFCURVE",
"496 66 CURVE SMOOTH",
"494 62 OFFCURVE",
"493 58 OFFCURVE",
"490 54 CURVE SMOOTH",
"487 50 OFFCURVE",
"483 44 OFFCURVE",
"477 43 CURVE",
"464 40 OFFCURVE",
"452 50 OFFCURVE",
"442 57 CURVE",
"438 58 OFFCURVE",
"424 51 OFFCURVE",
"420 49 CURVE",
"399 52 OFFCURVE",
"399 47 OFFCURVE",
"383 47 CURVE SMOOTH",
"328 47 OFFCURVE",
"201 17 OFFCURVE",
"163 29 CURVE SMOOTH",
"140 36 OFFCURVE",
"118 54 OFFCURVE",
"114 77 CURVE",
"113 86 OFFCURVE",
"107 93 OFFCURVE",
"109 102 CURVE",
"123 154 OFFCURVE",
"139 208 OFFCURVE",
"166 256 CURVE",
"170 266 LINE",
"177 290 OFFCURVE",
"186 311 OFFCURVE",
"199 334 CURVE SMOOTH",
"205 345 OFFCURVE",
"213 372 OFFCURVE",
"218 378 CURVE SMOOTH",
"242 407 OFFCURVE",
"269 349 OFFCURVE",
"274 331 CURVE",
"235 277 OFFCURVE",
"185 155 OFFCURVE",
"168 88 CURVE",
"178 77 OFFCURVE",
"207 80 OFFCURVE",
"220 85 CURVE",
"243 86 OFFCURVE",
"276 95 OFFCURVE",
"298 93 CURVE",
"303 103 OFFCURVE",
"297 115 OFFCURVE",
"303 125 CURVE SMOOTH",
"315 144 OFFCURVE",
"320 160 OFFCURVE",
"326 181 CURVE SMOOTH",
"331 199 OFFCURVE",
"363 307 OFFCURVE",
"371 317 CURVE",
"376 321 OFFCURVE",
"382 323 OFFCURVE",
"388 325 CURVE",
"411 314 OFFCURVE",
"403 315 OFFCURVE",
"418 294 CURVE",
"418 284 OFFCURVE",
"420 272 OFFCURVE",
"418 262 CURVE",
"412 258 OFFCURVE",
"387 181 OFFCURVE",
"386 172 CURVE",
"374 153 OFFCURVE",
"371 128 OFFCURVE",
"359 109 CURVE",
"357 100 LINE",
"382 103 OFFCURVE",
"407 111 OFFCURVE",
"432 110 CURVE",
"445 120 OFFCURVE",
"454 131 OFFCURVE",
"454 148 CURVE",
"460 157 OFFCURVE",
"498 256 OFFCURVE",
"498 265 CURVE",
"510 281 OFFCURVE",
"513 301 OFFCURVE",
"518 320 CURVE"
);
}
);
width = 537;
}
);
},
{
color = 9;
glyphname = "shcha-cy.ss01";
layers = (
{
background = {
paths = (
{
closed = 1;
nodes = (
"520 323 OFFCURVE",
"528 326 OFFCURVE",
"534 330 CURVE",
"549 323 OFFCURVE",
"561 313 OFFCURVE",
"570 299 CURVE",
"572 274 LINE",
"561 255 OFFCURVE",
"553 236 OFFCURVE",
"547 214 CURVE SMOOTH",
"536 175 OFFCURVE",
"508 100 OFFCURVE",
"488 60 CURVE SMOOTH",
"486 56 OFFCURVE",
"485 52 OFFCURVE",
"482 48 CURVE SMOOTH",
"479 44 OFFCURVE",
"475 38 OFFCURVE",
"469 37 CURVE",
"456 34 OFFCURVE",
"444 44 OFFCURVE",
"434 51 CURVE",
"430 52 OFFCURVE",
"416 45 OFFCURVE",
"412 43 CURVE",
"391 46 OFFCURVE",
"391 41 OFFCURVE",
"375 41 CURVE SMOOTH",
"320 41 OFFCURVE",
"193 11 OFFCURVE",
"155 23 CURVE SMOOTH",
"132 30 OFFCURVE",
"113 54 OFFCURVE",
"109 77 CURVE",
"108 86 OFFCURVE",
"102 93 OFFCURVE",
"104 102 CURVE",
"118 154 OFFCURVE",
"134 208 OFFCURVE",
"161 256 CURVE",
"165 266 LINE",
"172 290 OFFCURVE",
"181 311 OFFCURVE",
"194 334 CURVE SMOOTH",
"200 345 OFFCURVE",
"208 372 OFFCURVE",
"213 378 CURVE SMOOTH",
"237 407 OFFCURVE",
"264 349 OFFCURVE",
"269 331 CURVE",
"230 277 OFFCURVE",
"180 155 OFFCURVE",
"163 88 CURVE",
"173 77 OFFCURVE",
"202 80 OFFCURVE",
"215 85 CURVE",
"238 86 OFFCURVE",
"263 95 OFFCURVE",
"285 93 CURVE",
"290 103 OFFCURVE",
"284 115 OFFCURVE",
"290 125 CURVE SMOOTH",
"302 144 OFFCURVE",
"307 160 OFFCURVE",
"313 181 CURVE SMOOTH",
"318 199 OFFCURVE",
"346 283 OFFCURVE",
"354 293 CURVE",
"359 296 OFFCURVE",
"365 298 OFFCURVE",
"371 300 CURVE",
"394 289 OFFCURVE",
"394 290 OFFCURVE",
"409 269 CURVE",
"409 259 OFFCURVE",
"411 247 OFFCURVE",
"408 237 CURVE",
"402 233 OFFCURVE",
"382 181 OFFCURVE",
"381 172 CURVE",
"369 153 OFFCURVE",
"366 128 OFFCURVE",
"354 109 CURVE",
"352 100 LINE",
"377 103 OFFCURVE",
"402 111 OFFCURVE",
"427 110 CURVE",
"440 120 OFFCURVE",
"449 131 OFFCURVE",
"449 148 CURVE",
"455 157 OFFCURVE",
"493 256 OFFCURVE",
"493 265 CURVE",
"505 281 OFFCURVE",
"508 301 OFFCURVE",
"513 320 CURVE"
);
}
);
};
layerId = "5B238DC5-4F6F-4A74-B879-7A3E5189648B";
paths = (
{
closed = 1;
nodes = (
"634 56 OFFCURVE",
"625 25 OFFCURVE",
"584 -48 CURVE",
"583 -61 OFFCURVE",
"572 -69 OFFCURVE",
"563 -78 CURVE",
"556 -81 OFFCURVE",
"548 -80 OFFCURVE",
"540 -80 CURVE",
"486 -34 OFFCURVE",
"543 -9 OFFCURVE",
"549 33 CURVE",
"558 42 OFFCURVE",
"562 54 OFFCURVE",
"567 65 CURVE",
"575 85 LINE",
"565 88 OFFCURVE",
"551 78 OFFCURVE",
"542 81 CURVE",
"537 81 OFFCURVE",
"503 73 OFFCURVE",
"500 72 CURVE",
"487 65 OFFCURVE",
"473 63 OFFCURVE",
"459 60 CURVE SMOOTH",
"439 55 OFFCURVE",
"419 47 OFFCURVE",
"400 40 CURVE",
"396 38 OFFCURVE",
"390 36 OFFCURVE",
"386 36 CURVE SMOOTH",
"355 36 OFFCURVE",
"322 16 OFFCURVE",
"290 12 CURVE",
"285 11 LINE",
"235 -1 OFFCURVE",
"177 -11 OFFCURVE",
"135 29 CURVE SMOOTH",
"122 42 OFFCURVE",
"113 58 OFFCURVE",
"108 76 CURVE SMOOTH",
"92 129 OFFCURVE",
"139 242 OFFCURVE",
"164 291 CURVE SMOOTH",
"172 307 OFFCURVE",
"184 346 OFFCURVE",
"202 350 CURVE",
"228 345 LINE",
"234 339 OFFCURVE",
"240 334 OFFCURVE",
"245 328 CURVE",
"251 308 OFFCURVE",
"245 292 OFFCURVE",
"233 276 CURVE SMOOTH",
"213 250 OFFCURVE",
"124 59 OFFCURVE",
"191 59 CURVE SMOOTH",
"208 59 OFFCURVE",
"229 57 OFFCURVE",
"245 64 CURVE",
"267 64 OFFCURVE",
"288 72 OFFCURVE",
"309 78 CURVE",
"294 95 OFFCURVE",
"296 112 OFFCURVE",
"302 132 CURVE SMOOTH",
"311 163 OFFCURVE",
"368 301 OFFCURVE",
"364 321 CURVE",
"368 326 OFFCURVE",
"367 331 OFFCURVE",
"373 335 CURVE",
"377 338 OFFCURVE",
"383 343 OFFCURVE",
"387 345 CURVE",
"401 351 OFFCURVE",
"412 339 OFFCURVE",
"423 333 CURVE",
"434 328 OFFCURVE",
"433 319 OFFCURVE",
"437 309 CURVE",
"427 283 OFFCURVE",
"409 237 OFFCURVE",
"400 211 CURVE SMOOTH",
"392 188 OFFCURVE",
"374 140 OFFCURVE",
"365 117 CURVE SMOOTH",
"362 110 OFFCURVE",
"361 102 OFFCURVE",
"364 95 CURVE",
"387 95 OFFCURVE",
"447 116 OFFCURVE",
"468 126 CURVE",
"472 137 OFFCURVE",
"473 149 OFFCURVE",
"477 160 CURVE SMOOTH",
"484 180 OFFCURVE",
"492 198 OFFCURVE",
"499 218 CURVE SMOOTH",
"509 248 OFFCURVE",
"516 290 OFFCURVE",
"528 316 CURVE SMOOTH",
"532 325 OFFCURVE",
"536 328 OFFCURVE",
"544 334 CURVE",
"565 334 LINE",
"579 327 OFFCURVE",
"581 312 OFFCURVE",
"592 303 CURVE",
"597 275 OFFCURVE",
"555 171 OFFCURVE",
"541 143 CURVE",
"547 138 OFFCURVE",
"572 150 OFFCURVE",
"581 152 CURVE",
"613 145 OFFCURVE",
"638 125 OFFCURVE",
"634 89 CURVE"
);
}
);
width = 593;
}
);
},
{
color = 9;
glyphname = "softsign-cy.ss01";
layers = (
{
layerId = "5B238DC5-4F6F-4A74-B879-7A3E5189648B";
paths = (
{
closed = 1;
nodes = (
"245 223 OFFCURVE",
"230 236 OFFCURVE",
"236 256 CURVE SMOOTH",
"241 274 OFFCURVE",
"261 282 OFFCURVE",
"276 281 CURVE",
"282 276 LINE",
"292 271 OFFCURVE",
"304 261 OFFCURVE",
"312 254 CURVE",
"317 239 OFFCURVE",
"330 226 OFFCURVE",
"330 190 CURVE SMOOTH",
"330 115 OFFCURVE",
"287 72 OFFCURVE",
"223 38 CURVE SMOOTH",
"214 33 OFFCURVE",
"203 32 OFFCURVE",
"195 26 CURVE",
"193 27 OFFCURVE",
"163 21 OFFCURVE",
"160 19 CURVE",
"144 24 OFFCURVE",
"123 23 OFFCURVE",
"110 36 CURVE SMOOTH",
"93 53 OFFCURVE",
"82 78 OFFCURVE",
"88 102 CURVE SMOOTH",
"92 116 OFFCURVE",
"89 131 OFFCURVE",
"96 144 CURVE",
"97 158 OFFCURVE",
"104 171 OFFCURVE",
"109 184 CURVE SMOOTH",
"118 207 OFFCURVE",
"124 229 OFFCURVE",
"135 251 CURVE SMOOTH",
"155 292 OFFCURVE",
"180 330 OFFCURVE",
"199 371 CURVE SMOOTH",
"209 392 OFFCURVE",
"236 382 OFFCURVE",
"250 376 CURVE",
"254 364 OFFCURVE",
"266 359 OFFCURVE",
"263 344 CURVE",
"234 304 OFFCURVE",
"212 263 OFFCURVE",
"190 220 CURVE SMOOTH",
"180 200 OFFCURVE",
"177 176 OFFCURVE",
"168 156 CURVE SMOOTH",
"158 134 OFFCURVE",
"157 111 OFFCURVE",
"150 88 CURVE SMOOTH",
"148 81 OFFCURVE",
"150 75 OFFCURVE",
"157 72 CURVE",
"175 78 OFFCURVE",
"195 82 OFFCURVE",
"210 94 CURVE SMOOTH",
"250 126 OFFCURVE",
"264 140 OFFCURVE",
"271 195 CURVE SMOOTH",
"272 203 OFFCURVE",
"269 210 OFFCURVE",
"264 216 CURVE"
);
}
);
width = 269;
}
);
rightKerningGroup = "soft-cy";
},
{
color = 9;
glyphname = "iu-cy.ss01";
layers = (
{
background = {
components = (
{
name = o;
transform = "{1, 0, 0, 1, 142, -12}";
}
);
};
layerId = "5B238DC5-4F6F-4A74-B879-7A3E5189648B";
paths = (
{
closed = 1;
nodes = (
"460 305 OFFCURVE",
"454 312 OFFCURVE",
"437 306 CURVE SMOOTH",
"371 285 OFFCURVE",
"301 155 OFFCURVE",
"294 90 CURVE SMOOTH",
"293 81 OFFCURVE",
"297 72 OFFCURVE",
"302 64 CURVE SMOOTH",
"306 58 OFFCURVE",
"314 57 OFFCURVE",
"320 55 CURVE",
"374 40 OFFCURVE",
"513 213 OFFCURVE",
"475 300 CURVE"
);
},
{
closed = 1;
nodes = (
"244 156 LINE",
"180 156 LINE",
"166 114 OFFCURVE",
"154 31 OFFCURVE",
"154 3 CURVE SMOOTH",
"154 -6 OFFCURVE",
"145 -10 OFFCURVE",
"138 -9 CURVE",
"127 -8 OFFCURVE",
"118 -2 OFFCURVE",
"107 -2 CURVE",
"97 4 OFFCURVE",
"97 10 OFFCURVE",
"92 19 CURVE",
"104 48 OFFCURVE",
"108 93 OFFCURVE",
"116 127 CURVE SMOOTH",
"131 189 OFFCURVE",
"148 250 OFFCURVE",
"177 307 CURVE SMOOTH",
"182 317 OFFCURVE",
"189 326 OFFCURVE",
"190 338 CURVE",
"203 350 OFFCURVE",
"209 404 OFFCURVE",
"238 383 CURVE SMOOTH",
"250 374 OFFCURVE",
"262 364 OFFCURVE",
"268 350 CURVE",
"255 323 OFFCURVE",
"208 242 OFFCURVE",
"206 211 CURVE",
"211 208 LINE",
"270 208 LINE",
"310 279 OFFCURVE",
"371 371 OFFCURVE",
"461 371 CURVE SMOOTH",
"480 371 OFFCURVE",
"493 357 OFFCURVE",
"509 349 CURVE SMOOTH",
"548 329 OFFCURVE",
"532 301 OFFCURVE",
"546 273 CURVE",
"546 262 LINE",
"539 250 OFFCURVE",
"543 235 OFFCURVE",
"539 222 CURVE SMOOTH",
"511 122 OFFCURVE",
"444 55 OFFCURVE",
"350 12 CURVE SMOOTH",
"339 7 OFFCURVE",
"326 4 OFFCURVE",
"314 3 CURVE",
"275 -2 OFFCURVE",
"231 62 OFFCURVE",
"243 99 CURVE SMOOTH",
"250 120 OFFCURVE",
"231 109 OFFCURVE",
"250 137 CURVE"
);
}
);
width = 503;
}
);
},
{
color = 9;
glyphname = "ia-cy.ss01";
layers = (
{
background = {
paths = (
{
closed = 1;
nodes = (
"285 340 OFFCURVE",
"261 344 OFFCURVE",
"246 337 CURVE SMOOTH",
"210 320 OFFCURVE",
"175 263 OFFCURVE",
"218 233 CURVE SMOOTH",
"238 219 OFFCURVE",
"261 211 OFFCURVE",
"279 196 CURVE",
"291 223 OFFCURVE",
"289 248 OFFCURVE",
"300 272 CURVE SMOOTH",
"304 281 OFFCURVE",
"303 329 OFFCURVE",
"301 340 CURVE"
);
},
{
closed = 1;
nodes = (
"246 21 LINE",
"243 65 OFFCURVE",
"257 103 OFFCURVE",
"267 145 CURVE",
"263 157 OFFCURVE",
"211 122 OFFCURVE",
"203 116 CURVE",
"190 107 OFFCURVE",
"92 43 OFFCURVE",
"86 43 CURVE",
"62 44 OFFCURVE",
"54 66 OFFCURVE",
"50 87 CURVE",
"59 100 OFFCURVE",
"70 108 OFFCURVE",
"85 112 CURVE SMOOTH",
"110 119 OFFCURVE",
"159 163 OFFCURVE",
"185 178 CURVE",
"188 187 LINE",
"169 212 OFFCURVE",
"149 222 OFFCURVE",
"139 254 CURVE",
"135 269 OFFCURVE",
"134 281 OFFCURVE",
"139 296 CURVE SMOOTH",
"159 351 OFFCURVE",
"149 351 OFFCURVE",
"204 382 CURVE",
"207 384 OFFCURVE",
"209 386 OFFCURVE",
"212 386 CURVE",
"235 388 OFFCURVE",
"263 395 OFFCURVE",
"286 393 CURVE SMOOTH",
"303 392 OFFCURVE",
"319 392 OFFCURVE",
"336 392 CURVE",
"358 381 OFFCURVE",
"371 369 OFFCURVE",
"371 342 CURVE SMOOTH",
"371 290 OFFCURVE",
"326 113 OFFCURVE",
"308 66 CURVE",
"310 54 OFFCURVE",
"303 41 OFFCURVE",
"302 29 CURVE SMOOTH",
"300 9 OFFCURVE",
"293 7 OFFCURVE",
"278 0 CURVE"
);
}
);
};
layerId = "5B238DC5-4F6F-4A74-B879-7A3E5189648B";
paths = (
{
closed = 1;
nodes = (
"296 346 OFFCURVE",
"261 350 OFFCURVE",
"246 343 CURVE SMOOTH",
"210 326 OFFCURVE",
"169 267 OFFCURVE",
"212 237 CURVE SMOOTH",
"232 223 OFFCURVE",
"261 211 OFFCURVE",
"279 196 CURVE",
"291 223 OFFCURVE",
"292 248 OFFCURVE",
"303 272 CURVE SMOOTH",
"307 281 OFFCURVE",
"314 335 OFFCURVE",
"312 346 CURVE"
);
},
{
closed = 1;
nodes = (
"246 21 LINE",
"243 65 OFFCURVE",
"258 108 OFFCURVE",
"268 150 CURVE",
"264 162 OFFCURVE",
"211 122 OFFCURVE",
"203 116 CURVE",
"190 107 OFFCURVE",
"92 43 OFFCURVE",
"86 43 CURVE",
"62 44 OFFCURVE",
"54 66 OFFCURVE",
"50 87 CURVE",
"59 100 OFFCURVE",
"70 108 OFFCURVE",
"85 112 CURVE SMOOTH",
"110 119 OFFCURVE",
"177 163 OFFCURVE",
"210 186 CURVE",
"179 199 LINE",
"160 212 OFFCURVE",
"149 222 OFFCURVE",
"139 254 CURVE",
"135 269 OFFCURVE",
"134 281 OFFCURVE",
"139 296 CURVE SMOOTH",
"159 351 OFFCURVE",
"149 351 OFFCURVE",
"204 382 CURVE",
"207 384 OFFCURVE",
"209 386 OFFCURVE",
"212 386 CURVE",
"235 388 OFFCURVE",
"263 395 OFFCURVE",
"286 393 CURVE SMOOTH",
"303 392 OFFCURVE",
"319 392 OFFCURVE",
"336 392 CURVE",
"358 381 OFFCURVE",
"371 369 OFFCURVE",
"371 342 CURVE SMOOTH",
"371 290 OFFCURVE",
"326 113 OFFCURVE",
"308 66 CURVE",
"310 54 OFFCURVE",
"303 41 OFFCURVE",
"302 29 CURVE SMOOTH",
"300 9 OFFCURVE",
"293 7 OFFCURVE",
"278 0 CURVE"
);
}
);
width = 311;
}
);
},
{
color = 7;
glyphname = "be-cy.ss02";
layers = (
{
background = {
components = (
{
name = o;
transform = "{1, 0, 0, 1, -21, -20}";
}
);
};
layerId = "5B238DC5-4F6F-4A74-B879-7A3E5189648B";
paths = (
{
closed = 1;
nodes = (
"198 260 OFFCURVE",
"153 161 OFFCURVE",
"142 109 CURVE SMOOTH",
"128 44 OFFCURVE",
"200 58 OFFCURVE",
"212 84 CURVE",
"258 130 OFFCURVE",
"298 201 OFFCURVE",
"275 288 CURVE"
);
},
{
closed = 1;
nodes = (
"478 512 OFFCURVE",
"471 500 OFFCURVE",
"459 504 CURVE SMOOTH",
"424 516 OFFCURVE",
"449 531 OFFCURVE",
"418 537 CURVE SMOOTH",
"390 542 OFFCURVE",
"353 524 OFFCURVE",
"325 521 CURVE SMOOTH",
"298 518 OFFCURVE",
"278 507 OFFCURVE",
"255 494 CURVE",
"254 486 OFFCURVE",
"260 482 OFFCURVE",
"265 477 CURVE SMOOTH",
"293 449 OFFCURVE",
"317 416 OFFCURVE",
"327 377 CURVE SMOOTH",
"329 369 OFFCURVE",
"331 361 OFFCURVE",
"335 353 CURVE",
"343 335 OFFCURVE",
"331 330 OFFCURVE",
"334 320 CURVE SMOOTH",
"369 204 OFFCURVE",
"342 123 OFFCURVE",
"246 43 CURVE SMOOTH",
"211 14 OFFCURVE",
"188 6 OFFCURVE",
"173 2 CURVE SMOOTH",
"163 -1 OFFCURVE",
"153 5 OFFCURVE",
"143 3 CURVE",
"104 17 OFFCURVE",
"94 33 OFFCURVE",
"74 67 CURVE",
"65 124 OFFCURVE",
"94 152 OFFCURVE",
"110 196 CURVE",
"119 203 OFFCURVE",
"119 216 OFFCURVE",
"127 225 CURVE SMOOTH",
"135 234 OFFCURVE",
"141 243 OFFCURVE",
"147 253 CURVE SMOOTH",
"169 290 OFFCURVE",
"207 317 OFFCURVE",
"245 334 CURVE",
"275 325 LINE",
"267 390 OFFCURVE",
"242 420 OFFCURVE",
"191 476 CURVE SMOOTH",
"183 485 OFFCURVE",
"180 500 OFFCURVE",
"176 510 CURVE",
"188 546 OFFCURVE",
"262 572 OFFCURVE",
"296 580 CURVE",
"298 579 OFFCURVE",
"375 595 OFFCURVE",
"384 597 CURVE",
"395 600 OFFCURVE",
"398 600 OFFCURVE",
"409 596 CURVE SMOOTH",
"414 594 OFFCURVE",
"417 598 OFFCURVE",
"422 598 CURVE SMOOTH",
"438 598 OFFCURVE",
"466 587 OFFCURVE",
"476 575 CURVE SMOOTH",
"506 539 OFFCURVE",
"499 566 OFFCURVE",
"488 517 CURVE"
);
}
);
width = 291;
}
);
},
{
color = 7;
glyphname = "ve-cy.ss02";
layers = (
{
layerId = "5B238DC5-4F6F-4A74-B879-7A3E5189648B";
paths = (
{
closed = 1;
nodes = (
"252 346 OFFCURVE",
"314 398 OFFCURVE",
"337 424 CURVE SMOOTH",
"350 439 OFFCURVE",
"361 455 OFFCURVE",
"374 470 CURVE SMOOTH",
"395 493 OFFCURVE",
"418 535 OFFCURVE",
"418 566 CURVE SMOOTH",
"418 574 OFFCURVE",
"409 581 OFFCURVE",
"402 578 CURVE",
"391 574 OFFCURVE",
"380 568 OFFCURVE",
"372 560 CURVE SMOOTH",
"354 543 OFFCURVE",
"331 527 OFFCURVE",
"314 508 CURVE",
"313 507 OFFCURVE",
"312 504 OFFCURVE",
"311 502 CURVE SMOOTH",
"299 479 OFFCURVE",
"284 458 OFFCURVE",
"270 436 CURVE SMOOTH",
"250 404 OFFCURVE",
"239 368 OFFCURVE",
"220 336 CURVE"
);
},
{
closed = 1;
nodes = (
"250 274 OFFCURVE",
"255 275 OFFCURVE",
"259 276 CURVE",
"272 275 OFFCURVE",
"285 271 OFFCURVE",
"298 268 CURVE",
"305 256 OFFCURVE",
"317 241 OFFCURVE",
"321 228 CURVE",
"328 198 LINE",
"325 191 OFFCURVE",
"330 165 OFFCURVE",
"324 148 CURVE SMOOTH",
"316 123 OFFCURVE",
"312 95 OFFCURVE",
"297 73 CURVE SMOOTH",
"287 58 OFFCURVE",
"265 28 OFFCURVE",
"250 19 CURVE SMOOTH",
"241 14 OFFCURVE",
"230 13 OFFCURVE",
"220 8 CURVE SMOOTH",
"202 -1 OFFCURVE",
"182 19 OFFCURVE",
"166 19 CURVE SMOOTH",
"148 19 OFFCURVE",
"117 70 OFFCURVE",
"121 96 CURVE SMOOTH",
"122 103 OFFCURVE",
"117 107 OFFCURVE",
"117 114 CURVE",
"116 153 OFFCURVE",
"120 224 OFFCURVE",
"136 259 CURVE",
"125 266 OFFCURVE",
"120 277 OFFCURVE",
"114 288 CURVE",
"117 294 OFFCURVE",
"119 301 OFFCURVE",
"121 307 CURVE",
"130 308 OFFCURVE",
"139 309 OFFCURVE",
"148 312 CURVE",
"181 415 OFFCURVE",
"240 537 OFFCURVE",
"335 597 CURVE SMOOTH",
"351 607 OFFCURVE",
"377 625 OFFCURVE",
"397 621 CURVE",
"401 622 OFFCURVE",
"406 619 OFFCURVE",
"409 622 CURVE",
"412 621 OFFCURVE",
"414 620 OFFCURVE",
"417 618 CURVE",
"424 608 OFFCURVE",
"455 593 OFFCURVE",
"472 565 CURVE SMOOTH",
"485 544 OFFCURVE",
"465 510 OFFCURVE",
"457 488 CURVE SMOOTH",
"450 469 OFFCURVE",
"435 455 OFFCURVE",
"427 437 CURVE",
"424 429 OFFCURVE",
"415 426 OFFCURVE",
"413 417 CURVE",
"401 412 OFFCURVE",
"399 399 OFFCURVE",
"390 392 CURVE",
"381 384 OFFCURVE",
"374 378 OFFCURVE",
"366 369 CURVE",
"353 353 OFFCURVE",
"332 344 OFFCURVE",
"318 328 CURVE",
"297 317 OFFCURVE",
"276 296 OFFCURVE",
"254 289 CURVE SMOOTH",
"241 285 OFFCURVE",
"225 278 OFFCURVE",
"212 272 CURVE SMOOTH",
"189 262 OFFCURVE",
"182 167 OFFCURVE",
"179 142 CURVE SMOOTH",
"177 126 OFFCURVE",
"182 85 OFFCURVE",
"189 70 CURVE SMOOTH",
"192 64 OFFCURVE",
"203 57 OFFCURVE",
"209 62 CURVE SMOOTH",
"215 67 OFFCURVE",
"240 98 OFFCURVE",
"244 106 CURVE SMOOTH",
"252 122 OFFCURVE",
"261 143 OFFCURVE",
"266 161 CURVE SMOOTH",
"282 219 OFFCURVE",
"243 244 OFFCURVE",
"246 274 CURVE"
);
}
);
width = 305;
}
);
},
{
color = 7;
glyphname = "ge-cy.ss02";
layers = (
{
background = {
paths = (
{
closed = 1;
nodes = (
"-57 -3 OFFCURVE",
"-44 4 OFFCURVE",
"-42 33 CURVE SMOOTH",
"-41 51 OFFCURVE",
"-36 68 OFFCURVE",
"-34 86 CURVE",
"-34 108 OFFCURVE",
"-19 139 OFFCURVE",
"-17 152 CURVE",
"-11 155 LINE",
"1 150 OFFCURVE",
"43 148 OFFCURVE",
"54 153 CURVE",
"51 151 OFFCURVE",
"118 166 OFFCURVE",
"129 161 CURVE",
"123 127 OFFCURVE",
"120 114 OFFCURVE",
"113 94 CURVE",
"108 78 OFFCURVE",
"107 67 OFFCURVE",
"108 59 CURVE",
"116 52 OFFCURVE",
"120 51 OFFCURVE",
"147 41 CURVE",
"150 42 OFFCURVE",
"160 48 OFFCURVE",
"163 59 CURVE SMOOTH",
"170 83 OFFCURVE",
"186 156 OFFCURVE",
"188 162 CURVE",
"189 167 OFFCURVE",
"196 172 OFFCURVE",
"200 172 CURVE",
"210 173 OFFCURVE",
"214 181 OFFCURVE",
"230 184 CURVE",
"231 200 OFFCURVE",
"229 215 OFFCURVE",
"208 215 CURVE",
"208 218 LINE",
"203 205 OFFCURVE",
"259 338 OFFCURVE",
"255 321 CURVE",
"266 352 OFFCURVE",
"228 371 OFFCURVE",
"200 355 CURVE",
"196 346 OFFCURVE",
"190 326 OFFCURVE",
"189 324 CURVE",
"167 287 OFFCURVE",
"159 253 OFFCURVE",
"144 213 CURVE",
"142 215 OFFCURVE",
"75 213 OFFCURVE",
"66 211 CURVE",
"53 211 OFFCURVE",
"20 200 OFFCURVE",
"7 208 CURVE",
"7 216 LINE",
"59 343 LINE",
"61 347 OFFCURVE",
"61 354 OFFCURVE",
"62 362 CURVE",
"61 378 OFFCURVE",
"44 391 OFFCURVE",
"22 390 CURVE",
"14 390 OFFCURVE",
"9 387 OFFCURVE",
"6 379 CURVE",
"5 377 OFFCURVE",
"-15 315 OFFCURVE",
"-20 304 CURVE",
"-15 319 OFFCURVE",
"-47 231 OFFCURVE",
"-40 247 CURVE",
"-54 219 OFFCURVE",
"-63 187 OFFCURVE",
"-74 157 CURVE SMOOTH",
"-80 141 OFFCURVE",
"-83 124 OFFCURVE",
"-88 106 CURVE",
"-104 29 LINE",
"-97 22 OFFCURVE",
"-92 17 OFFCURVE",
"-85 13 CURVE SMOOTH"
);
}
);
};
layerId = "5B238DC5-4F6F-4A74-B879-7A3E5189648B";
paths = (
{
closed = 1;
nodes = (
"197 361 OFFCURVE",
"205 362 OFFCURVE",
"214 359 CURVE",
"220 360 LINE",
"249 376 OFFCURVE",
"329 387 OFFCURVE",
"359 371 CURVE SMOOTH",
"376 362 OFFCURVE",
"383 352 OFFCURVE",
"378 332 CURVE",
"365 322 LINE",
"357 326 OFFCURVE",
"348 322 OFFCURVE",
"339 323 CURVE",
"316 328 OFFCURVE",
"258 324 OFFCURVE",
"239 309 CURVE",
"237 299 OFFCURVE",
"203 198 OFFCURVE",
"201 192 CURVE",
"179 141 OFFCURVE",
"172 94 OFFCURVE",
"159 41 CURVE",
"148 38 OFFCURVE",
"139 39 OFFCURVE",
"128 43 CURVE SMOOTH",
"84 59 OFFCURVE",
"125 108 OFFCURVE",
"120 144 CURVE",
"129 184 OFFCURVE",
"159 248 OFFCURVE",
"161 286 CURVE SMOOTH",
"162 304 OFFCURVE",
"145 315 OFFCURVE",
"163 333 CURVE SMOOTH",
"172 342 OFFCURVE",
"180 350 OFFCURVE",
"188 359 CURVE"
);
}
);
width = 262;
}
);
leftKerningGroup = "ge-cy";
rightKerningGroup = "ge-cy";
},
{
color = 7;
glyphname = "de-cy.ss02";
layers = (
{
background = {
components = (
{
name = o;
transform = "{1, 0, 0, 1, -5, 0}";
}
);
};
layerId = "5B238DC5-4F6F-4A74-B879-7A3E5189648B";
paths = (
{
closed = 1;
nodes = (
"336 333 LINE",
"340 353 OFFCURVE",
"355 415 OFFCURVE",
"351 432 CURVE",
"350 440 OFFCURVE",
"342 447 OFFCURVE",
"349 454 CURVE",
"344 460 OFFCURVE",
"336 488 OFFCURVE",
"333 498 CURVE SMOOTH",
"315 557 OFFCURVE",
"252 571 OFFCURVE",
"196 556 CURVE",
"188 553 OFFCURVE",
"180 553 OFFCURVE",
"172 551 CURVE",
"154 558 OFFCURVE",
"148 575 OFFCURVE",
"145 585 CURVE",
"142 624 OFFCURVE",
"200 618 OFFCURVE",
"216 628 CURVE",
"234 623 OFFCURVE",
"254 626 OFFCURVE",
"272 618 CURVE SMOOTH",
"299 606 OFFCURVE",
"322 607 OFFCURVE",
"341 579 CURVE SMOOTH",
"352 562 OFFCURVE",
"370 550 OFFCURVE",
"379 533 CURVE SMOOTH",
"386 519 OFFCURVE",
"403 490 OFFCURVE",
"402 476 CURVE",
"439 394 OFFCURVE",
"392 305 OFFCURVE",
"369 227 CURVE",
"367 217 OFFCURVE",
"355 209 OFFCURVE",
"357 198 CURVE",
"322 128 OFFCURVE",
"295 55 OFFCURVE",
"219 20 CURVE",
"209 14 OFFCURVE",
"180 2 OFFCURVE",
"169 6 CURVE SMOOTH",
"163 8 OFFCURVE",
"157 7 OFFCURVE",
"151 8 CURVE",
"79 54 OFFCURVE",
"89 132 OFFCURVE",
"118 205 CURVE SMOOTH",
"127 228 OFFCURVE",
"135 252 OFFCURVE",
"153 270 CURVE",
"167 301 OFFCURVE",
"219 345 OFFCURVE",
"251 359 CURVE SMOOTH",
"263 365 OFFCURVE",
"277 369 OFFCURVE",
"289 376 CURVE",
"324 376 OFFCURVE",
"336 369 OFFCURVE",
"342 329 CURVE",
"334 326 OFFCURVE",
"319 318 OFFCURVE",
"309 314 CURVE SMOOTH",
"227 285 OFFCURVE",
"192 231 OFFCURVE",
"157 156 CURVE SMOOTH",
"148 137 OFFCURVE",
"148 116 OFFCURVE",
"144 96 CURVE",
"143 86 OFFCURVE",
"146 75 OFFCURVE",
"153 67 CURVE SMOOTH",
"165 51 OFFCURVE",
"208 68 OFFCURVE",
"217 79 CURVE",
"222 83 OFFCURVE",
"227 87 OFFCURVE",
"232 92 CURVE SMOOTH",
"281 141 OFFCURVE",
"325 263 OFFCURVE",
"332 330 CURVE"
);
}
);
width = 327;
}
);
},
{
color = 7;
glyphname = "ze-cy.ss02";
layers = (
{
background = {
components = (
{
name = c;
transform = "{1, 0, 0, 1, -18, 0}";
}
);
};
layerId = "5B238DC5-4F6F-4A74-B879-7A3E5189648B";
paths = (
{
closed = 1;
nodes = (
"298 199 OFFCURVE",
"316 214 OFFCURVE",
"342 249 CURVE",
"342 259 OFFCURVE",
"348 267 OFFCURVE",
"349 278 CURVE SMOOTH",
"349 319 OFFCURVE",
"348 329 OFFCURVE",
"332 360 CURVE SMOOTH",
"306 377 OFFCURVE",
"281 396 OFFCURVE",
"241 389 CURVE SMOOTH",
"226 386 OFFCURVE",
"200 375 OFFCURVE",
"191 362 CURVE",
"184 351 OFFCURVE",
"173 343 OFFCURVE",
"165 333 CURVE SMOOTH",
"157 324 OFFCURVE",
"160 308 OFFCURVE",
"151 297 CURVE",
"165 269 OFFCURVE",
"180 277 OFFCURVE",
"192 269 CURVE",
"220 295 OFFCURVE",
"235 344 OFFCURVE",
"271 342 CURVE SMOOTH",
"289 341 OFFCURVE",
"293 325 OFFCURVE",
"295 310 CURVE SMOOTH",
"297 295 OFFCURVE",
"282 268 OFFCURVE",
"273 256 CURVE SMOOTH",
"252 231 OFFCURVE",
"220 222 OFFCURVE",
"196 206 CURVE",
"197 198 OFFCURVE",
"199 190 OFFCURVE",
"200 182 CURVE",
"211 173 OFFCURVE",
"216 159 OFFCURVE",
"225 148 CURVE",
"238 106 OFFCURVE",
"233 49 OFFCURVE",
"178 51 CURVE SMOOTH",
"143 52 OFFCURVE",
"147 115 OFFCURVE",
"128 130 CURVE",
"113 130 OFFCURVE",
"96 125 OFFCURVE",
"81 126 CURVE",
"78 118 OFFCURVE",
"76 110 OFFCURVE",
"74 102 CURVE",
"80 92 OFFCURVE",
"79 81 OFFCURVE",
"83 70 CURVE",
"86 67 OFFCURVE",
"90 63 OFFCURVE",
"92 59 CURVE",
"109 32 OFFCURVE",
"128 23 OFFCURVE",
"156 9 CURVE SMOOTH",
"172 0 OFFCURVE",
"203 -2 OFFCURVE",
"220 3 CURVE SMOOTH",
"311 27 OFFCURVE",
"331 138 OFFCURVE",
"254 192 CURVE"
);
}
);
width = 281;
}
);
leftKerningGroup = "ze-cy";
rightKerningGroup = "ze-cy";
},
{
color = 7;
glyphname = "ii-cy.ss02";
layers = (
{
background = {
components = (
{
name = "en-cy";
transform = "{1, 0, 0, 1, -10, 0}";
}
);
};
layerId = "5B238DC5-4F6F-4A74-B879-7A3E5189648B";
paths = (
{
closed = 1;
nodes = (
"366 0 OFFCURVE",
"390 14 OFFCURVE",
"377 28 CURVE SMOOTH",
"354 52 OFFCURVE",
"344 84 OFFCURVE",
"349 116 CURVE SMOOTH",
"361 194 OFFCURVE",
"405 265 OFFCURVE",
"430 339 CURVE",
"431 356 OFFCURVE",
"405 364 OFFCURVE",
"391 362 CURVE SMOOTH",
"360 358 OFFCURVE",
"258 99 OFFCURVE",
"170 99 CURVE SMOOTH",
"160 99 OFFCURVE",
"161 106 OFFCURVE",
"161 107 CURVE",
"160 118 OFFCURVE",
"166 140 OFFCURVE",
"169 151 CURVE",
"180 186 OFFCURVE",
"222 299 OFFCURVE",
"244 326 CURVE SMOOTH",
"253 337 OFFCURVE",
"255 337 OFFCURVE",
"249 350 CURVE SMOOTH",
"244 361 OFFCURVE",
"235 383 OFFCURVE",
"221 383 CURVE SMOOTH",
"169 383 OFFCURVE",
"98 134 OFFCURVE",
"114 84 CURVE SMOOTH",
"119 68 OFFCURVE",
"138 35 OFFCURVE",
"157 34 CURVE SMOOTH",
"183 33 OFFCURVE",
"235 69 OFFCURVE",
"252 86 CURVE SMOOTH",
"288 122 OFFCURVE",
"296 142 OFFCURVE",
"296 91 CURVE SMOOTH",
"296 72 OFFCURVE",
"301 39 OFFCURVE",
"313 23 CURVE SMOOTH",
"320 14 OFFCURVE",
"340 -8 OFFCURVE",
"354 -1 CURVE"
);
}
);
width = 355;
}
);
leftKerningGroup = "ii-cy";
rightKerningGroup = "ii-cy";
},
{
color = 7;
glyphname = "el-cy.ss02";
layers = (
{
background = {
paths = (
{
closed = 1;
nodes = (
"97 -3 OFFCURVE",
"110 4 OFFCURVE",
"112 33 CURVE SMOOTH",
"113 51 OFFCURVE",
"118 68 OFFCURVE",
"120 86 CURVE",
"120 108 OFFCURVE",
"135 139 OFFCURVE",
"137 152 CURVE",
"143 155 LINE",
"155 150 OFFCURVE",
"197 148 OFFCURVE",
"208 153 CURVE",
"205 151 OFFCURVE",
"272 166 OFFCURVE",
"283 161 CURVE",
"277 127 OFFCURVE",
"274 114 OFFCURVE",
"267 94 CURVE",
"262 78 OFFCURVE",
"261 67 OFFCURVE",
"262 59 CURVE",
"270 52 OFFCURVE",
"274 51 OFFCURVE",
"301 41 CURVE",
"304 42 OFFCURVE",
"314 48 OFFCURVE",
"317 59 CURVE SMOOTH",
"324 83 OFFCURVE",
"340 156 OFFCURVE",
"342 162 CURVE",
"343 167 OFFCURVE",
"350 172 OFFCURVE",
"354 172 CURVE",
"364 173 OFFCURVE",
"368 181 OFFCURVE",
"384 184 CURVE",
"385 200 OFFCURVE",
"383 215 OFFCURVE",
"362 215 CURVE",
"362 218 LINE",
"357 205 OFFCURVE",
"413 338 OFFCURVE",
"409 321 CURVE",
"420 352 OFFCURVE",
"382 371 OFFCURVE",
"354 355 CURVE",
"350 346 OFFCURVE",
"344 326 OFFCURVE",
"343 324 CURVE",
"321 287 OFFCURVE",
"313 253 OFFCURVE",
"298 213 CURVE",
"296 215 OFFCURVE",
"229 213 OFFCURVE",
"220 211 CURVE",
"207 211 OFFCURVE",
"174 200 OFFCURVE",
"161 208 CURVE",
"161 216 LINE",
"213 343 LINE",
"215 347 OFFCURVE",
"215 354 OFFCURVE",
"216 362 CURVE",
"215 378 OFFCURVE",
"198 391 OFFCURVE",
"176 390 CURVE",
"168 390 OFFCURVE",
"163 387 OFFCURVE",
"160 379 CURVE",
"159 377 OFFCURVE",
"139 315 OFFCURVE",
"134 304 CURVE",
"139 319 OFFCURVE",
"107 231 OFFCURVE",
"114 247 CURVE",
"100 219 OFFCURVE",
"91 187 OFFCURVE",
"80 157 CURVE SMOOTH",
"74 141 OFFCURVE",
"71 124 OFFCURVE",
"66 106 CURVE",
"50 29 LINE",
"57 22 OFFCURVE",
"62 17 OFFCURVE",
"69 13 CURVE SMOOTH"
);
}
);
};
layerId = "5B238DC5-4F6F-4A74-B879-7A3E5189648B";
paths = (
{
closed = 1;
nodes = (
"39 52 LINE",
"38 58 OFFCURVE",
"37 65 OFFCURVE",
"35 71 CURVE",
"39 75 OFFCURVE",
"42 79 OFFCURVE",
"46 82 CURVE",
"68 82 LINE",
"75 85 OFFCURVE",
"78 93 OFFCURVE",
"86 93 CURVE",
"144 129 OFFCURVE",
"206 272 OFFCURVE",
"236 336 CURVE",
"235 341 LINE",
"225 338 OFFCURVE",
"214 337 OFFCURVE",
"204 333 CURVE",
"198 329 LINE",
"183 317 OFFCURVE",
"154 324 OFFCURVE",
"145 341 CURVE",
"142 346 OFFCURVE",
"140 350 OFFCURVE",
"136 355 CURVE",
"141 367 OFFCURVE",
"154 380 OFFCURVE",
"167 383 CURVE SMOOTH",
"220 395 OFFCURVE",
"275 402 OFFCURVE",
"327 382 CURVE",
"333 380 OFFCURVE",
"338 380 OFFCURVE",
"344 376 CURVE",
"352 370 OFFCURVE",
"360 364 OFFCURVE",
"367 357 CURVE",
"376 349 OFFCURVE",
"381 340 OFFCURVE",
"383 328 CURVE",
"386 314 OFFCURVE",
"387 299 OFFCURVE",
"384 285 CURVE SMOOTH",
"377 251 OFFCURVE",
"360 199 OFFCURVE",
"350 166 CURVE SMOOTH",
"334 114 OFFCURVE",
"323 76 OFFCURVE",
"312 37 CURVE",
"294 31 OFFCURVE",
"278 39 OFFCURVE",
"266 53 CURVE",
"260 72 OFFCURVE",
"260 87 OFFCURVE",
"269 105 CURVE SMOOTH",
"278 124 OFFCURVE",
"279 158 OFFCURVE",
"292 176 CURVE",
"293 178 OFFCURVE",
"294 180 OFFCURVE",
"294 183 CURVE SMOOTH",
"294 199 OFFCURVE",
"323 287 OFFCURVE",
"328 314 CURVE",
"330 322 OFFCURVE",
"327 328 OFFCURVE",
"327 336 CURVE",
"316 341 OFFCURVE",
"291 348 OFFCURVE",
"285 332 CURVE",
"282 323 LINE SMOOTH",
"271 290 OFFCURVE",
"251 265 OFFCURVE",
"236 212 CURVE SMOOTH",
"232 197 OFFCURVE",
"223 186 OFFCURVE",
"218 171 CURVE",
"218 169 OFFCURVE",
"216 167 OFFCURVE",
"215 165 CURVE",
"206 153 OFFCURVE",
"199 140 OFFCURVE",
"191 127 CURVE SMOOTH",
"168 90 OFFCURVE",
"128 57 OFFCURVE",
"93 31 CURVE SMOOTH",
"82 23 OFFCURVE",
"58 30 OFFCURVE",
"46 34 CURVE"
);
}
);
width = 322;
}
);
leftKerningGroup = "el-cy";
},
{
color = 7;
glyphname = "em-cy.ss02";
layers = (
{
background = {
components = (
{
name = "en-cy";
transform = "{1, 0, 0, 1, 158, 0}";
}
);
};
layerId = "5B238DC5-4F6F-4A74-B879-7A3E5189648B";
paths = (
{
closed = 1;
nodes = (
"499 26 LINE",
"507 32 OFFCURVE",
"516 37 OFFCURVE",
"524 43 CURVE",
"525 45 LINE",
"524 62 OFFCURVE",
"518 79 OFFCURVE",
"522 97 CURVE SMOOTH",
"524 105 OFFCURVE",
"529 114 OFFCURVE",
"530 124 CURVE SMOOTH",
"531 132 OFFCURVE",
"532 134 OFFCURVE",
"535 141 CURVE SMOOTH",
"552 180 OFFCURVE",
"581 277 OFFCURVE",
"577 318 CURVE SMOOTH",
"576 329 OFFCURVE",
"572 336 OFFCURVE",
"565 342 CURVE",
"555 353 OFFCURVE",
"534 366 OFFCURVE",
"521 359 CURVE SMOOTH",
"466 327 OFFCURVE",
"425 272 OFFCURVE",
"384 224 CURVE SMOOTH",
"365 201 OFFCURVE",
"344 180 OFFCURVE",
"322 159 CURVE",
"324 160 LINE",
"319 164 OFFCURVE",
"334 195 OFFCURVE",
"337 202 CURVE",
"346 227 OFFCURVE",
"369 290 OFFCURVE",
"362 315 CURVE SMOOTH",
"359 326 OFFCURVE",
"352 333 OFFCURVE",
"347 342 CURVE",
"346 343 LINE",
"334 348 OFFCURVE",
"323 353 OFFCURVE",
"310 357 CURVE",
"308 357 LINE",
"235 334 OFFCURVE",
"134 208 OFFCURVE",
"107 138 CURVE SMOOTH",
"102 125 OFFCURVE",
"93 115 OFFCURVE",
"89 102 CURVE",
"90 102 LINE",
"80 94 OFFCURVE",
"76 83 OFFCURVE",
"73 72 CURVE",
"73 70 LINE",
"78 58 OFFCURVE",
"88 50 OFFCURVE",
"98 41 CURVE SMOOTH",
"110 30 OFFCURVE",
"115 42 OFFCURVE",
"117 39 CURVE",
"120 38 LINE",
"139 52 OFFCURVE",
"146 89 OFFCURVE",
"157 109 CURVE SMOOTH",
"199 185 OFFCURVE",
"229 227 OFFCURVE",
"293 286 CURVE",
"293 285 LINE",
"296 287 OFFCURVE",
"297 287 OFFCURVE",
"300 285 CURVE",
"299 287 LINE",
"300 247 OFFCURVE",
"244 151 OFFCURVE",
"248 99 CURVE",
"248 98 LINE",
"258 82 OFFCURVE",
"267 73 OFFCURVE",
"283 67 CURVE",
"295 62 OFFCURVE",
"308 65 OFFCURVE",
"319 77 CURVE",
"347 105 OFFCURVE",
"380 132 OFFCURVE",
"404 165 CURVE SMOOTH",
"418 185 OFFCURVE",
"433 204 OFFCURVE",
"449 221 CURVE",
"456 227 OFFCURVE",
"462 231 OFFCURVE",
"468 239 CURVE",
"478 256 OFFCURVE",
"495 272 OFFCURVE",
"519 287 CURVE",
"516 289 LINE",
"516 257 OFFCURVE",
"483 193 OFFCURVE",
"478 156 CURVE",
"478 157 LINE",
"469 142 OFFCURVE",
"466 114 OFFCURVE",
"462 96 CURVE",
"462 95 LINE",
"469 79 OFFCURVE",
"457 51 OFFCURVE",
"473 38 CURVE",
"476 36 OFFCURVE",
"493 29 OFFCURVE",
"497 26 CURVE"
);
}
);
width = 521;
}
);
leftKerningGroup = "em-cy";
},
{
color = 7;
glyphname = "en-cy.ss02";
layers = (
{
background = {
paths = (
{
closed = 1;
nodes = (
"148 -3 OFFCURVE",
"161 4 OFFCURVE",
"163 33 CURVE SMOOTH",
"164 51 OFFCURVE",
"169 68 OFFCURVE",
"171 86 CURVE",
"171 108 OFFCURVE",
"186 139 OFFCURVE",
"188 152 CURVE",
"194 155 LINE",
"206 150 OFFCURVE",
"248 148 OFFCURVE",
"259 153 CURVE",
"256 151 OFFCURVE",
"323 166 OFFCURVE",
"334 161 CURVE",
"328 127 OFFCURVE",
"325 114 OFFCURVE",
"318 94 CURVE",
"313 78 OFFCURVE",
"312 67 OFFCURVE",
"313 59 CURVE",
"321 52 OFFCURVE",
"325 51 OFFCURVE",
"352 41 CURVE",
"355 42 OFFCURVE",
"365 48 OFFCURVE",
"368 59 CURVE SMOOTH",
"375 83 OFFCURVE",
"391 156 OFFCURVE",
"393 162 CURVE",
"394 167 OFFCURVE",
"401 172 OFFCURVE",
"405 172 CURVE",
"415 173 OFFCURVE",
"419 181 OFFCURVE",
"435 184 CURVE",
"436 200 OFFCURVE",
"434 215 OFFCURVE",
"413 215 CURVE",
"413 218 LINE",
"408 205 OFFCURVE",
"464 338 OFFCURVE",
"460 321 CURVE",
"471 352 OFFCURVE",
"433 371 OFFCURVE",
"405 355 CURVE",
"401 346 OFFCURVE",
"395 326 OFFCURVE",
"394 324 CURVE",
"372 287 OFFCURVE",
"364 253 OFFCURVE",
"349 213 CURVE",
"347 215 OFFCURVE",
"280 213 OFFCURVE",
"271 211 CURVE",
"258 211 OFFCURVE",
"225 200 OFFCURVE",
"212 208 CURVE",
"212 216 LINE",
"264 343 LINE",
"266 347 OFFCURVE",
"266 354 OFFCURVE",
"267 362 CURVE",
"266 378 OFFCURVE",
"249 391 OFFCURVE",
"227 390 CURVE",
"219 390 OFFCURVE",
"214 387 OFFCURVE",
"211 379 CURVE",
"210 377 OFFCURVE",
"190 315 OFFCURVE",
"185 304 CURVE",
"190 319 OFFCURVE",
"158 231 OFFCURVE",
"165 247 CURVE",
"151 219 OFFCURVE",
"142 187 OFFCURVE",
"131 157 CURVE SMOOTH",
"125 141 OFFCURVE",
"122 124 OFFCURVE",
"117 106 CURVE",
"101 29 LINE",
"108 22 OFFCURVE",
"113 17 OFFCURVE",
"120 13 CURVE SMOOTH"
);
}
);
};
layerId = "5B238DC5-4F6F-4A74-B879-7A3E5189648B";
paths = (
{
closed = 1;
nodes = (
"255 325 OFFCURVE",
"220 261 OFFCURVE",
"211 232 CURVE",
"229 230 OFFCURVE",
"258 235 OFFCURVE",
"283 232 CURVE SMOOTH",
"312 229 OFFCURVE",
"332 233 OFFCURVE",
"360 237 CURVE",
"374 276 OFFCURVE",
"385 348 OFFCURVE",
"424 373 CURVE",
"435 375 OFFCURVE",
"438 374 OFFCURVE",
"447 367 CURVE SMOOTH",
"473 346 OFFCURVE",
"480 348 OFFCURVE",
"458 316 CURVE SMOOTH",
"448 301 OFFCURVE",
"447 279 OFFCURVE",
"437 266 CURVE",
"432 259 OFFCURVE",
"381 114 OFFCURVE",
"380 103 CURVE SMOOTH",
"378 85 OFFCURVE",
"373 67 OFFCURVE",
"373 49 CURVE",
"372 21 OFFCURVE",
"330 39 OFFCURVE",
"317 48 CURVE SMOOTH",
"311 52 OFFCURVE",
"308 63 OFFCURVE",
"307 70 CURVE",
"315 103 OFFCURVE",
"327 132 OFFCURVE",
"337 164 CURVE",
"339 169 OFFCURVE",
"340 175 OFFCURVE",
"337 180 CURVE",
"293 186 OFFCURVE",
"247 180 OFFCURVE",
"203 177 CURVE",
"192 166 OFFCURVE",
"178 105 OFFCURVE",
"172 86 CURVE",
"173 72 OFFCURVE",
"162 33 OFFCURVE",
"152 23 CURVE",
"138 26 OFFCURVE",
"102 30 OFFCURVE",
"102 49 CURVE SMOOTH",
"102 59 OFFCURVE",
"103 68 OFFCURVE",
"111 75 CURVE",
"113 80 LINE",
"113 87 OFFCURVE",
"108 91 OFFCURVE",
"111 99 CURVE SMOOTH",
"116 113 OFFCURVE",
"120 121 OFFCURVE",
"120 137 CURVE SMOOTH",
"120 140 OFFCURVE",
"120 143 OFFCURVE",
"121 146 CURVE SMOOTH",
"131 175 OFFCURVE",
"136 207 OFFCURVE",
"149 235 CURVE SMOOTH",
"165 269 OFFCURVE",
"194 334 OFFCURVE",
"212 382 CURVE SMOOTH",
"227 422 OFFCURVE",
"264 383 OFFCURVE",
"276 364 CURVE"
);
}
);
width = 414;
}
);
leftKerningGroup = "en-cy";
rightKerningGroup = "en-cy";
},
{
color = 7;
glyphname = "pe-cy.ss02";
layers = (
{
background = {
components = (
{
name = "en-cy";
transform = "{1, 0, 0, 1, 191, 0}";
}
);
};
layerId = "5B238DC5-4F6F-4A74-B879-7A3E5189648B";
paths = (
{
closed = 1;
nodes = (
"312 296 OFFCURVE",
"276 302 OFFCURVE",
"244 294 CURVE SMOOTH",
"240 293 OFFCURVE",
"236 289 OFFCURVE",
"235 285 CURVE",
"227 252 OFFCURVE",
"213 222 OFFCURVE",
"205 189 CURVE SMOOTH",
"195 148 OFFCURVE",
"169 108 OFFCURVE",
"165 64 CURVE",
"155 49 OFFCURVE",
"159 16 OFFCURVE",
"142 11 CURVE",
"137 10 OFFCURVE",
"132 10 OFFCURVE",
"130 8 CURVE",
"114 12 OFFCURVE",
"108 28 OFFCURVE",
"96 39 CURVE",
"97 66 OFFCURVE",
"117 136 OFFCURVE",
"131 160 CURVE",
"135 193 OFFCURVE",
"151 223 OFFCURVE",
"160 256 CURVE SMOOTH",
"166 280 OFFCURVE",
"174 304 OFFCURVE",
"180 328 CURVE",
"182 335 OFFCURVE",
"180 340 OFFCURVE",
"183 346 CURVE SMOOTH",
"188 354 OFFCURVE",
"195 360 OFFCURVE",
"202 365 CURVE",
"218 360 OFFCURVE",
"222 358 OFFCURVE",
"237 363 CURVE",
"238 363 OFFCURVE",
"295 360 OFFCURVE",
"303 361 CURVE",
"320 361 OFFCURVE",
"336 352 OFFCURVE",
"353 351 CURVE",
"383 337 OFFCURVE",
"412 317 OFFCURVE",
"406 277 CURVE SMOOTH",
"403 256 OFFCURVE",
"406 235 OFFCURVE",
"395 215 CURVE",
"393 184 OFFCURVE",
"370 155 OFFCURVE",
"363 119 CURVE SMOOTH",
"361 109 OFFCURVE",
"355 102 OFFCURVE",
"354 92 CURVE SMOOTH",
"353 82 OFFCURVE",
"353 73 OFFCURVE",
"348 64 CURVE",
"352 54 OFFCURVE",
"338 30 OFFCURVE",
"320 41 CURVE SMOOTH",
"310 47 LINE",
"288 63 OFFCURVE",
"301 111 OFFCURVE",
"305 135 CURVE",
"310 140 OFFCURVE",
"351 266 OFFCURVE",
"351 277 CURVE",
"350 283 OFFCURVE",
"348 289 OFFCURVE",
"346 294 CURVE"
);
}
);
width = 373;
}
);
leftKerningGroup = "pe-cy";
},
{
color = 7;
glyphname = "ef-cy.ss02";
layers = (
{
background = {
paths = (
{
closed = 1;
nodes = (
"276 -224 OFFCURVE",
"291 -205 OFFCURVE",
"291 -171 CURVE SMOOTH",
"291 -164 OFFCURVE",
"291 -144 OFFCURVE",
"297 -142 CURVE SMOOTH",
"302 -140 OFFCURVE",
"308 -123 OFFCURVE",
"308 -107 CURVE SMOOTH",
"308 -95 OFFCURVE",
"318 -70 OFFCURVE",
"318 -59 CURVE SMOOTH",
"318 -47 OFFCURVE",
"324 -28 OFFCURVE",
"324 -28 CURVE SMOOTH",
"318 -22 OFFCURVE",
"324 -17 OFFCURVE",
"324 -17 CURVE SMOOTH",
"333 -17 OFFCURVE",
"350 40 OFFCURVE",
"350 52 CURVE SMOOTH",
"350 56 OFFCURVE",
"354 62 OFFCURVE",
"357 65 CURVE",
"365 58 OFFCURVE",
"371 57 OFFCURVE",
"387 57 CURVE SMOOTH",
"419 57 OFFCURVE",
"477 78 OFFCURVE",
"477 83 CURVE SMOOTH",
"477 89 OFFCURVE",
"482 89 OFFCURVE",
"482 89 CURVE SMOOTH",
"498 83 OFFCURVE",
"552 114 OFFCURVE",
"567 136 CURVE SMOOTH",
"574 146 OFFCURVE",
"577 157 OFFCURVE",
"583 157 CURVE SMOOTH",
"599 157 OFFCURVE",
"614 210 OFFCURVE",
"614 235 CURVE SMOOTH",
"614 311 OFFCURVE",
"557 356 OFFCURVE",
"445 311 CURVE SMOOTH",
"440 309 OFFCURVE",
"461 328 OFFCURVE",
"461 358 CURVE SMOOTH",
"461 387 OFFCURVE",
"461 393 OFFCURVE",
"450 411 CURVE SMOOTH",
"440 427 OFFCURVE",
"427 430 OFFCURVE",
"414 417 CURVE SMOOTH",
"403 406 OFFCURVE",
"403 405 OFFCURVE",
"403 400 CURVE SMOOTH",
"403 387 OFFCURVE",
"398 358 OFFCURVE",
"382 321 CURVE SMOOTH",
"348 243 OFFCURVE",
"293 68 OFFCURVE",
"285 30 CURVE SMOOTH",
"284 25 OFFCURVE",
"278 4 OFFCURVE",
"278 -6 CURVE SMOOTH",
"278 -15 OFFCURVE",
"266 -22 OFFCURVE",
"266 -28 CURVE SMOOTH",
"266 -43 OFFCURVE",
"261 -65 OFFCURVE",
"255 -75 CURVE SMOOTH",
"251 -81 OFFCURVE",
"250 -102 OFFCURVE",
"250 -107 CURVE SMOOTH",
"250 -118 OFFCURVE",
"245 -142 OFFCURVE",
"239 -165 CURVE SMOOTH",
"230 -200 OFFCURVE",
"234 -209 OFFCURVE",
"239 -216 CURVE SMOOTH",
"247 -227 OFFCURVE",
"255 -224 OFFCURVE",
"260 -224 CURVE SMOOTH"
);
},
{
closed = 1;
nodes = (
"363 110 OFFCURVE",
"389 191 OFFCURVE",
"421 225 CURVE SMOOTH",
"462 269 OFFCURVE",
"526 292 OFFCURVE",
"543 265 CURVE SMOOTH",
"566 229 OFFCURVE",
"540 186 OFFCURVE",
"505 156 CURVE SMOOTH",
"479 134 OFFCURVE",
"397 110 OFFCURVE",
"381 110 CURVE SMOOTH"
);
}
);
};
layerId = "5B238DC5-4F6F-4A74-B879-7A3E5189648B";
paths = (
{
closed = 1;
nodes = (
"295 116 OFFCURVE",
"280 98 OFFCURVE",
"263 86 CURVE SMOOTH",
"243 72 OFFCURVE",
"235 69 OFFCURVE",
"210 58 CURVE SMOOTH",
"192 50 OFFCURVE",
"170 55 OFFCURVE",
"152 62 CURVE SMOOTH",
"132 70 OFFCURVE",
"120 79 OFFCURVE",
"110 99 CURVE SMOOTH",
"87 145 OFFCURVE",
"128 261 OFFCURVE",
"159 299 CURVE",
"172 305 OFFCURVE",
"175 319 OFFCURVE",
"186 327 CURVE SMOOTH",
"223 354 OFFCURVE",
"299 409 OFFCURVE",
"343 368 CURVE SMOOTH",
"360 352 OFFCURVE",
"370 337 OFFCURVE",
"379 298 CURVE",
"433 433 LINE",
"447 468 OFFCURVE",
"465 505 OFFCURVE",
"481 538 CURVE SMOOTH",
"495 566 OFFCURVE",
"512 559 OFFCURVE",
"532 541 CURVE SMOOTH",
"550 525 OFFCURVE",
"551 512 OFFCURVE",
"536 495 CURVE SMOOTH",
"530 488 OFFCURVE",
"509 452 OFFCURVE",
"512 444 CURVE",
"514 435 OFFCURVE",
"507 441 OFFCURVE",
"506 435 CURVE",
"495 423 OFFCURVE",
"384 185 OFFCURVE",
"384 173 CURVE",
"385 171 LINE",
"389 183 OFFCURVE",
"450 264 OFFCURVE",
"455 269 CURVE",
"477 298 OFFCURVE",
"510 325 OFFCURVE",
"536 355 CURVE",
"549 355 OFFCURVE",
"554 363 OFFCURVE",
"567 358 CURVE",
"587 347 OFFCURVE",
"601 338 OFFCURVE",
"609 316 CURVE",
"612 305 OFFCURVE",
"628 282 OFFCURVE",
"628 275 CURVE",
"627 267 OFFCURVE",
"640 239 OFFCURVE",
"628 223 CURVE",
"633 206 OFFCURVE",
"628 189 OFFCURVE",
"622 174 CURVE SMOOTH",
"602 124 OFFCURVE",
"570 86 OFFCURVE",
"519 69 CURVE SMOOTH",
"510 66 OFFCURVE",
"500 62 OFFCURVE",
"491 57 CURVE",
"477 48 OFFCURVE",
"465 55 OFFCURVE",
"448 53 CURVE",
"414 77 LINE",
"406 87 OFFCURVE",
"401 94 OFFCURVE",
"386 109 CURVE",
"377 102 OFFCURVE",
"375 90 OFFCURVE",
"368 78 CURVE SMOOTH",
"363 69 OFFCURVE",
"364 53 OFFCURVE",
"355 43 CURVE",
"356 30 OFFCURVE",
"346 16 OFFCURVE",
"343 3 CURVE SMOOTH",
"340 -8 OFFCURVE",
"341 -21 OFFCURVE",
"332 -30 CURVE",
"307 -88 OFFCURVE",
"300 -109 OFFCURVE",
"292 -184 CURVE",
"290 -193 OFFCURVE",
"286 -206 OFFCURVE",
"279 -211 CURVE SMOOTH",
"258 -226 OFFCURVE",
"245 -216 OFFCURVE",
"228 -207 CURVE",
"221 -190 OFFCURVE",
"221 -182 OFFCURVE",
"229 -165 CURVE",
"232 -157 OFFCURVE",
"231 -149 OFFCURVE",
"233 -141 CURVE",
"238 -117 OFFCURVE",
"246 -92 OFFCURVE",
"251 -69 CURVE SMOOTH",
"263 -13 OFFCURVE",
"287 36 OFFCURVE",
"301 94 CURVE",
"304 102 OFFCURVE",
"316 131 OFFCURVE",
"315 137 CURVE"
);
},
{
closed = 1;
nodes = (
"186 105 OFFCURVE",
"207 106 OFFCURVE",
"228 116 CURVE",
"258 137 OFFCURVE",
"287 181 OFFCURVE",
"311 205 CURVE SMOOTH",
"338 232 OFFCURVE",
"333 244 OFFCURVE",
"336 265 CURVE",
"347 277 OFFCURVE",
"336 292 OFFCURVE",
"330 307 CURVE",
"326 314 OFFCURVE",
"334 315 OFFCURVE",
"322 328 CURVE",
"303 325 OFFCURVE",
"287 314 OFFCURVE",
"270 307 CURVE",
"262 304 OFFCURVE",
"257 297 OFFCURVE",
"251 292 CURVE SMOOTH",
"197 247 OFFCURVE",
"145 163 OFFCURVE",
"165 115 CURVE"
);
},
{
closed = 1;
nodes = (
"517 106 OFFCURVE",
"571 168 OFFCURVE",
"577 230 CURVE",
"576 236 OFFCURVE",
"575 241 OFFCURVE",
"573 246 CURVE",
"565 258 OFFCURVE",
"563 274 OFFCURVE",
"553 284 CURVE",
"505 244 OFFCURVE",
"456 194 OFFCURVE",
"427 137 CURVE",
"441 133 OFFCURVE",
"449 123 OFFCURVE",
"450 107 CURVE"
);
}
);
width = 580;
}
);
},
{
color = 7;
glyphname = "che-cy.ss02";
layers = (
{
background = {
components = (
{
name = "en-cy";
transform = "{1, 0, 0, 1, 121, 0}";
}
);
};
layerId = "5B238DC5-4F6F-4A74-B879-7A3E5189648B";
paths = (
{
closed = 1;
nodes = (
"270 217 LINE",
"237 179 OFFCURVE",
"208 157 OFFCURVE",
"168 144 CURVE",
"115 171 OFFCURVE",
"96 206 OFFCURVE",
"119 264 CURVE SMOOTH",
"135 304 OFFCURVE",
"153 342 OFFCURVE",
"176 378 CURVE",
"204 381 LINE",
"218 372 OFFCURVE",
"224 357 OFFCURVE",
"230 342 CURVE",
"220 314 OFFCURVE",
"203 294 OFFCURVE",
"193 267 CURVE SMOOTH",
"180 233 OFFCURVE",
"183 253 OFFCURVE",
"174 214 CURVE",
"204 205 OFFCURVE",
"251 253 OFFCURVE",
"279 278 CURVE SMOOTH",
"303 299 OFFCURVE",
"344 353 OFFCURVE",
"370 369 CURVE",
"399 361 OFFCURVE",
"389 367 OFFCURVE",
"409 342 CURVE",
"409 299 OFFCURVE",
"383 272 OFFCURVE",
"359 239 CURVE SMOOTH",
"341 214 OFFCURVE",
"316 163 OFFCURVE",
"306 134 CURVE",
"303 123 OFFCURVE",
"300 113 OFFCURVE",
"296 102 CURVE SMOOTH",
"291 89 OFFCURVE",
"296 87 OFFCURVE",
"295 75 CURVE",
"292 67 OFFCURVE",
"297 45 OFFCURVE",
"298 36 CURVE",
"291 32 OFFCURVE",
"283 29 OFFCURVE",
"276 24 CURVE",
"270 26 OFFCURVE",
"265 26 OFFCURVE",
"259 28 CURVE SMOOTH",
"200 48 OFFCURVE",
"231 141 OFFCURVE",
"275 217 CURVE"
);
}
);
width = 323;
}
);
leftKerningGroup = "che-cy";
rightKerningGroup = "che-cy";
},
{
color = 7;
glyphname = "tse-cy.ss02";
layers = (
{
background = {
paths = (
{
closed = 1;
nodes = (
"100 -3 OFFCURVE",
"113 4 OFFCURVE",
"115 33 CURVE SMOOTH",
"116 51 OFFCURVE",
"121 68 OFFCURVE",
"123 86 CURVE",
"123 108 OFFCURVE",
"138 139 OFFCURVE",
"140 152 CURVE",
"146 155 LINE",
"158 150 OFFCURVE",
"200 148 OFFCURVE",
"211 153 CURVE",
"208 151 OFFCURVE",
"275 166 OFFCURVE",
"286 161 CURVE",
"280 127 OFFCURVE",
"277 114 OFFCURVE",
"270 94 CURVE",
"265 78 OFFCURVE",
"264 67 OFFCURVE",
"265 59 CURVE",
"273 52 OFFCURVE",
"277 51 OFFCURVE",
"304 41 CURVE",
"307 42 OFFCURVE",
"317 48 OFFCURVE",
"320 59 CURVE SMOOTH",
"327 83 OFFCURVE",
"343 156 OFFCURVE",
"345 162 CURVE",
"346 167 OFFCURVE",
"353 172 OFFCURVE",
"357 172 CURVE",
"367 173 OFFCURVE",
"371 181 OFFCURVE",
"387 184 CURVE",
"388 200 OFFCURVE",
"386 215 OFFCURVE",
"365 215 CURVE",
"365 218 LINE",
"360 205 OFFCURVE",
"416 338 OFFCURVE",
"412 321 CURVE",
"423 352 OFFCURVE",
"385 371 OFFCURVE",
"357 355 CURVE",
"353 346 OFFCURVE",
"347 326 OFFCURVE",
"346 324 CURVE",
"324 287 OFFCURVE",
"316 253 OFFCURVE",
"301 213 CURVE",
"299 215 OFFCURVE",
"232 213 OFFCURVE",
"223 211 CURVE",
"210 211 OFFCURVE",
"177 200 OFFCURVE",
"164 208 CURVE",
"164 216 LINE",
"216 343 LINE",
"218 347 OFFCURVE",
"218 354 OFFCURVE",
"219 362 CURVE",
"218 378 OFFCURVE",
"201 391 OFFCURVE",
"179 390 CURVE",
"171 390 OFFCURVE",
"166 387 OFFCURVE",
"163 379 CURVE",
"162 377 OFFCURVE",
"142 315 OFFCURVE",
"137 304 CURVE",
"142 319 OFFCURVE",
"110 231 OFFCURVE",
"117 247 CURVE",
"103 219 OFFCURVE",
"94 187 OFFCURVE",
"83 157 CURVE SMOOTH",
"77 141 OFFCURVE",
"74 124 OFFCURVE",
"69 106 CURVE",
"53 29 LINE",
"60 22 OFFCURVE",
"65 17 OFFCURVE",
"72 13 CURVE SMOOTH"
);
}
);
};
layerId = "5B238DC5-4F6F-4A74-B879-7A3E5189648B";
paths = (
{
closed = 1;
nodes = (
"375 110 LINE SMOOTH",
"368 110 OFFCURVE",
"367 102 OFFCURVE",
"357 108 CURVE",
"350 113 OFFCURVE",
"342 107 OFFCURVE",
"336 115 CURVE",
"343 148 OFFCURVE",
"379 241 OFFCURVE",
"380 266 CURVE",
"390 290 OFFCURVE",
"398 314 OFFCURVE",
"405 338 CURVE",
"392 357 OFFCURVE",
"373 364 OFFCURVE",
"353 371 CURVE",
"334 358 OFFCURVE",
"295 194 OFFCURVE",
"280 156 CURVE SMOOTH",
"276 146 OFFCURVE",
"278 135 OFFCURVE",
"274 127 CURVE SMOOTH",
"269 116 OFFCURVE",
"271 105 OFFCURVE",
"268 94 CURVE",
"247 82 OFFCURVE",
"212 81 OFFCURVE",
"189 79 CURVE SMOOTH",
"178 78 OFFCURVE",
"145 69 OFFCURVE",
"145 88 CURVE SMOOTH",
"145 105 OFFCURVE",
"152 123 OFFCURVE",
"158 138 CURVE SMOOTH",
"170 167 OFFCURVE",
"177 189 OFFCURVE",
"185 220 CURVE SMOOTH",
"194 254 OFFCURVE",
"228 302 OFFCURVE",
"234 333 CURVE SMOOTH",
"236 344 OFFCURVE",
"239 356 OFFCURVE",
"237 366 CURVE",
"238 382 OFFCURVE",
"220 388 OFFCURVE",
"205 391 CURVE",
"199 394 LINE",
"194 390 OFFCURVE",
"190 385 OFFCURVE",
"184 381 CURVE",
"175 357 OFFCURVE",
"178 324 OFFCURVE",
"150 296 CURVE",
"151 282 OFFCURVE",
"141 270 OFFCURVE",
"136 257 CURVE SMOOTH",
"121 218 OFFCURVE",
"86 125 OFFCURVE",
"87 85 CURVE SMOOTH",
"88 57 OFFCURVE",
"105 58 OFFCURVE",
"119 40 CURVE SMOOTH",
"128 29 OFFCURVE",
"141 27 OFFCURVE",
"154 26 CURVE",
"182 25 OFFCURVE",
"211 26 OFFCURVE",
"239 26 CURVE SMOOTH",
"273 26 OFFCURVE",
"325 44 OFFCURVE",
"359 53 CURVE",
"364 40 OFFCURVE",
"365 39 OFFCURVE",
"361 26 CURVE SMOOTH",
"335 -54 LINE",
"337 -58 LINE",
"341 -70 OFFCURVE",
"340 -75 OFFCURVE",
"352 -80 CURVE",
"363 -85 OFFCURVE",
"376 -97 OFFCURVE",
"386 -84 CURVE SMOOTH",
"412 -51 OFFCURVE",
"427 18 OFFCURVE",
"436 60 CURVE SMOOTH",
"438 69 OFFCURVE",
"436 78 OFFCURVE",
"432 87 CURVE SMOOTH",
"427 98 OFFCURVE",
"413 101 OFFCURVE",
"405 110 CURVE"
);
}
);
width = 401;
}
);
},
{
color = 7;
glyphname = "sha-cy.ss02";
layers = (
{
background = {
components = (
{
name = n;
transform = "{1, 0, 0, 1, 9, 0}";
}
);
};
layerId = "5B238DC5-4F6F-4A74-B879-7A3E5189648B";
paths = (
{
closed = 1;
nodes = (
"340 118 OFFCURVE",
"344 114 OFFCURVE",
"349 116 CURVE",
"367 122 OFFCURVE",
"384 116 OFFCURVE",
"400 122 CURVE",
"410 125 OFFCURVE",
"414 119 OFFCURVE",
"421 122 CURVE",
"434 127 OFFCURVE",
"445 126 OFFCURVE",
"459 126 CURVE",
"470 141 OFFCURVE",
"498 247 OFFCURVE",
"503 271 CURVE",
"505 278 OFFCURVE",
"508 317 OFFCURVE",
"510 319 CURVE",
"518 330 OFFCURVE",
"509 333 OFFCURVE",
"508 344 CURVE",
"511 352 OFFCURVE",
"513 361 OFFCURVE",
"521 367 CURVE",
"548 374 OFFCURVE",
"566 364 OFFCURVE",
"578 339 CURVE",
"577 320 OFFCURVE",
"581 301 OFFCURVE",
"572 284 CURVE",
"574 261 OFFCURVE",
"558 240 OFFCURVE",
"559 217 CURVE",
"550 187 OFFCURVE",
"539 137 OFFCURVE",
"527 111 CURVE",
"521 104 OFFCURVE",
"535 86 OFFCURVE",
"504 63 CURVE",
"489 63 OFFCURVE",
"435 66 OFFCURVE",
"417 59 CURVE SMOOTH",
"397 51 OFFCURVE",
"369 59 OFFCURVE",
"346 52 CURVE",
"342 51 OFFCURVE",
"339 52 OFFCURVE",
"335 52 CURVE SMOOTH",
"303 52 OFFCURVE",
"273 38 OFFCURVE",
"242 40 CURVE SMOOTH",
"227 41 OFFCURVE",
"227 34 OFFCURVE",
"207 41 CURVE SMOOTH",
"159 58 OFFCURVE",
"115 87 OFFCURVE",
"110 142 CURVE SMOOTH",
"107 177 OFFCURVE",
"117 214 OFFCURVE",
"122 249 CURVE",
"137 278 OFFCURVE",
"149 360 OFFCURVE",
"185 368 CURVE",
"197 361 OFFCURVE",
"208 354 OFFCURVE",
"218 345 CURVE SMOOTH",
"227 337 OFFCURVE",
"226 326 OFFCURVE",
"222 316 CURVE SMOOTH",
"217 304 OFFCURVE",
"210 293 OFFCURVE",
"204 281 CURVE SMOOTH",
"188 248 OFFCURVE",
"171 186 OFFCURVE",
"173 149 CURVE SMOOTH",
"174 131 OFFCURVE",
"187 104 OFFCURVE",
"209 104 CURVE SMOOTH",
"233 104 OFFCURVE",
"255 100 OFFCURVE",
"276 111 CURVE",
"275 119 OFFCURVE",
"273 128 OFFCURVE",
"273 136 CURVE SMOOTH",
"273 146 OFFCURVE",
"320 317 OFFCURVE",
"326 332 CURVE",
"333 336 OFFCURVE",
"341 340 OFFCURVE",
"349 343 CURVE",
"374 338 LINE",
"385 323 LINE",
"395 311 OFFCURVE",
"394 302 OFFCURVE",
"388 289 CURVE SMOOTH",
"363 236 OFFCURVE",
"357 177 OFFCURVE",
"338 122 CURVE"
);
}
);
width = 544;
}
);
},
{
color = 7;
glyphname = "shcha-cy.ss02";
layers = (
{
layerId = "5B238DC5-4F6F-4A74-B879-7A3E5189648B";
paths = (
{
closed = 1;
nodes = (
"604 304 OFFCURVE",
"555 185 OFFCURVE",
"560 161 CURVE",
"582 159 OFFCURVE",
"598 144 OFFCURVE",
"610 127 CURVE",
"622 63 OFFCURVE",
"565 14 OFFCURVE",
"547 -43 CURVE SMOOTH",
"540 -64 OFFCURVE",
"529 -69 OFFCURVE",
"510 -80 CURVE",
"500 -62 OFFCURVE",
"481 -55 OFFCURVE",
"478 -31 CURVE",
"498 8 OFFCURVE",
"514 46 OFFCURVE",
"535 86 CURVE",
"530 89 LINE",
"512 85 OFFCURVE",
"488 83 OFFCURVE",
"472 76 CURVE SMOOTH",
"463 72 OFFCURVE",
"456 66 OFFCURVE",
"446 71 CURVE",
"420 60 OFFCURVE",
"392 55 OFFCURVE",
"365 45 CURVE SMOOTH",
"347 39 OFFCURVE",
"328 37 OFFCURVE",
"310 34 CURVE SMOOTH",
"295 31 OFFCURVE",
"280 27 OFFCURVE",
"265 27 CURVE SMOOTH",
"223 27 OFFCURVE",
"170 41 OFFCURVE",
"147 78 CURVE",
"144 82 LINE",
"127 100 OFFCURVE",
"124 110 OFFCURVE",
"117 134 CURVE SMOOTH",
"106 173 OFFCURVE",
"149 270 OFFCURVE",
"170 305 CURVE",
"173 311 OFFCURVE",
"171 318 OFFCURVE",
"175 324 CURVE SMOOTH",
"184 338 OFFCURVE",
"186 353 OFFCURVE",
"194 367 CURVE",
"219 367 OFFCURVE",
"236 360 OFFCURVE",
"249 338 CURVE",
"241 314 OFFCURVE",
"218 245 OFFCURVE",
"204 227 CURVE SMOOTH",
"194 215 OFFCURVE",
"178 152 OFFCURVE",
"178 135 CURVE SMOOTH",
"178 125 OFFCURVE",
"183 116 OFFCURVE",
"188 108 CURVE",
"192 105 LINE",
"206 102 OFFCURVE",
"217 91 OFFCURVE",
"232 91 CURVE SMOOTH",
"241 91 OFFCURVE",
"303 90 OFFCURVE",
"315 99 CURVE",
"316 102 OFFCURVE",
"316 106 OFFCURVE",
"316 109 CURVE SMOOTH",
"316 127 OFFCURVE",
"321 142 OFFCURVE",
"325 159 CURVE SMOOTH",
"336 203 OFFCURVE",
"361 277 OFFCURVE",
"362 319 CURVE SMOOTH",
"362 329 OFFCURVE",
"369 334 OFFCURVE",
"379 335 CURVE SMOOTH",
"402 337 OFFCURVE",
"406 321 OFFCURVE",
"419 308 CURVE",
"420 298 OFFCURVE",
"414 253 OFFCURVE",
"409 246 CURVE",
"408 222 OFFCURVE",
"390 156 OFFCURVE",
"381 133 CURVE",
"379 127 OFFCURVE",
"380 121 OFFCURVE",
"383 116 CURVE",
"417 127 OFFCURVE",
"452 133 OFFCURVE",
"486 143 CURVE",
"495 145 OFFCURVE",
"493 156 OFFCURVE",
"490 162 CURVE",
"497 189 OFFCURVE",
"497 215 OFFCURVE",
"510 241 CURVE",
"513 246 OFFCURVE",
"540 352 OFFCURVE",
"543 365 CURVE",
"562 371 LINE",
"585 360 LINE",
"599 339 LINE"
);
}
);
width = 564;
}
);
},
{
color = 7;
glyphname = "iu-cy.ss02";
layers = (
{
background = {
components = (
{
name = "en-cy.ss02";
transform = "{1, 0, 0, 1, 20, 0}";
}
);
};
layerId = "5B238DC5-4F6F-4A74-B879-7A3E5189648B";
paths = (
{
closed = 1;
nodes = (
"263 191 OFFCURVE",
"297 181 OFFCURVE",
"325 192 CURVE SMOOTH",
"335 196 OFFCURVE",
"345 196 OFFCURVE",
"356 196 CURVE",
"376 260 LINE",
"359 260 OFFCURVE",
"343 259 OFFCURVE",
"327 255 CURVE SMOOTH",
"304 249 OFFCURVE",
"278 251 OFFCURVE",
"255 251 CURVE",
"265 283 OFFCURVE",
"303 379 OFFCURVE",
"298 406 CURVE",
"296 421 OFFCURVE",
"270 422 OFFCURVE",
"258 424 CURVE",
"225 406 OFFCURVE",
"208 277 OFFCURVE",
"181 240 CURVE",
"152 236 OFFCURVE",
"150 235 OFFCURVE",
"138 210 CURVE",
"145 196 OFFCURVE",
"152 184 OFFCURVE",
"160 171 CURVE",
"149 138 OFFCURVE",
"138 106 OFFCURVE",
"122 74 CURVE SMOOTH",
"114 58 OFFCURVE",
"112 40 OFFCURVE",
"116 23 CURVE",
"131 8 OFFCURVE",
"135 -5 OFFCURVE",
"159 3 CURVE SMOOTH",
"168 6 OFFCURVE",
"171 8 OFFCURVE",
"173 18 CURVE SMOOTH",
"184 72 OFFCURVE",
"210 126 OFFCURVE",
"228 179 CURVE"
);
},
{
closed = 1;
nodes = (
"511 392 OFFCURVE",
"505 387 OFFCURVE",
"480 377 CURVE SMOOTH",
"414 351 OFFCURVE",
"370 287 OFFCURVE",
"343 224 CURVE SMOOTH",
"336 208 OFFCURVE",
"316 150 OFFCURVE",
"322 134 CURVE",
"323 131 OFFCURVE",
"327 124 OFFCURVE",
"320 123 CURVE",
"317 119 OFFCURVE",
"315 114 OFFCURVE",
"321 111 CURVE",
"324 103 OFFCURVE",
"323 96 OFFCURVE",
"322 88 CURVE",
"320 62 OFFCURVE",
"344 33 OFFCURVE",
"364 19 CURVE SMOOTH",
"405 -10 OFFCURVE",
"446 17 OFFCURVE",
"479 45 CURVE SMOOTH",
"553 108 OFFCURVE",
"616 217 OFFCURVE",
"590 316 CURVE SMOOTH",
"581 349 OFFCURVE",
"567 365 OFFCURVE",
"534 374 CURVE"
);
},
{
closed = 1;
nodes = (
"469 103 OFFCURVE",
"449 76 OFFCURVE",
"424 64 CURVE SMOOTH",
"375 40 OFFCURVE",
"374 99 OFFCURVE",
"382 130 CURVE SMOOTH",
"395 178 OFFCURVE",
"423 258 OFFCURVE",
"458 294 CURVE SMOOTH",
"515 352 OFFCURVE",
"546 311 OFFCURVE",
"535 245 CURVE SMOOTH",
"528 201 OFFCURVE",
"511 161 OFFCURVE",
"485 125 CURVE SMOOTH"
);
}
);
width = 555;
}
);
},
{
color = 7;
glyphname = "ia-cy.ss02";
layers = (
{
background = {
components = (
{
name = "en-cy";
transform = "{1, 0, 0, 1, -25, 0}";
}
);
};
layerId = "5B238DC5-4F6F-4A74-B879-7A3E5189648B";
paths = (
{
closed = 1;
nodes = (
"360 369 OFFCURVE",
"352 375 OFFCURVE",
"343 378 CURVE",
"325 385 OFFCURVE",
"275 387 OFFCURVE",
"256 383 CURVE",
"244 381 OFFCURVE",
"232 379 OFFCURVE",
"221 372 CURVE SMOOTH",
"191 353 OFFCURVE",
"184 346 OFFCURVE",
"167 315 CURVE",
"166 313 OFFCURVE",
"165 310 OFFCURVE",
"163 308 CURVE",
"144 280 OFFCURVE",
"121 226 OFFCURVE",
"145 195 CURVE SMOOTH",
"159 181 OFFCURVE",
"175 166 OFFCURVE",
"210 164 CURVE",
"159 135 OFFCURVE",
"92 91 OFFCURVE",
"71 64 CURVE",
"76 41 OFFCURVE",
"84 23 OFFCURVE",
"104 22 CURVE",
"111 17 OFFCURVE",
"116 22 OFFCURVE",
"121 27 CURVE SMOOTH",
"130 36 OFFCURVE",
"141 42 OFFCURVE",
"149 52 CURVE SMOOTH",
"158 63 OFFCURVE",
"172 65 OFFCURVE",
"182 74 CURVE SMOOTH",
"212 100 OFFCURVE",
"245 120 OFFCURVE",
"278 143 CURVE",
"291 161 OFFCURVE",
"284 169 OFFCURVE",
"275 185 CURVE",
"270 193 OFFCURVE",
"267 186 OFFCURVE",
"261 189 CURVE SMOOTH",
"244 197 OFFCURVE",
"216 195 OFFCURVE",
"206 210 CURVE SMOOTH",
"201 217 OFFCURVE",
"202 222 OFFCURVE",
"201 230 CURVE",
"216 271 OFFCURVE",
"234 314 OFFCURVE",
"276 332 CURVE SMOOTH",
"286 336 OFFCURVE",
"339 345 OFFCURVE",
"339 327 CURVE SMOOTH",
"339 305 OFFCURVE",
"293 130 OFFCURVE",
"282 85 CURVE SMOOTH",
"275 57 OFFCURVE",
"305 29 OFFCURVE",
"329 42 CURVE",
"334 44 OFFCURVE",
"337 49 OFFCURVE",
"341 52 CURVE",
"329 105 OFFCURVE",
"386 212 OFFCURVE",
"382 250 CURVE",
"389 265 OFFCURVE",
"399 315 OFFCURVE",
"403 334 CURVE",
"387 357 OFFCURVE",
"387 361 OFFCURVE",
"370 371 CURVE"
);
}
);
width = 343;
}
);
},
